<?xml version="1.0" encoding="utf-8"?>
<!-- Generator: Adobe Illustrator 26.5.0, SVG Export Plug-In . SVG Version: 6.00 Build 0)  -->
<svg version="1.1" id="Layer_1" xmlns="http://www.w3.org/2000/svg" xmlns:xlink="http://www.w3.org/1999/xlink" x="0px" y="0px"
	 viewBox="0 0 600 600" style="enable-background:new 0 0 600 600;" xml:space="preserve">
<style type="text/css">
	.st0{fill:#FFFFFF;}
	.st1{fill:#42696B;}
	.st2{fill:none;}
	.st3{font-family:'RadicalsStamp-Stamp';}
	.st4{font-size:109.9351px;}
	.st5{font-family:'Montserrat-BoldItalic';}
	.st6{font-size:25.832px;}
	.st7{fill-rule:evenodd;clip-rule:evenodd;}
	.st8{font-family:'Montserrat-Bold';}
	.st9{font-size:35.3439px;}
	.st10{font-size:59.2626px;}
</style>
<g>
	<path d="M215.1,326.1c-1.1-0.9-3.3-1.8-4-3.1c-0.7-1.2,0.1-2.8-0.4-4.1c-0.6-1.7-2-2.2-3.7-2.8c0.4-4.8,0.8-9.8-0.1-14.1
		c-1.1-5.7-9.2-7.6-13.8-9.6c-14.7-6.5-29.8-12.3-45.1-17.3c-7.3-2.4-14.8-5.3-22.4-6.5c-7.9-1.3-15.3,1.8-22.6,4.7
		c-15.1,6-29.4,13.7-43.6,21.4c-4.2,2.3-8.5,4.6-12.7,6.9c-3.2,1.7-7.2,3.1-9.9,5.7c-2.6,2.5-2.3,5.1-2.4,8.4
		c-0.1,2.6,0,5.1,0.2,7.5c-1.9,1.4-5.3-0.6-7.5,0.8c-1.7,1.2-0.8,2-1.2,3.6c-0.7,2.9-6.6,4.9-4,8.5c0.8,1.2,2.5,1.5,3.9,1.6
		c2.5,0.2,2.9-0.3,5.3,1.7c0.4,0.3,0.2,0.9,0.7,1.1c0.7,0.4,1.4,0.7,2,0.7c-0.6,3.8,1.3,6.4,4.3,8.2c-1,1.5-2,3-3,4.6
		c-0.4,0.6,0,1.7,0.7,1.8c0.8,0.1,1.6,0.3,2.3,0.4c-1.4,2-2.7,4.1-3.8,6.4c-0.3,0.6-0.1,1.4,0.5,1.7c0,0.1,0,0.1,0,0.2
		c0.2,5.1-1.2,15.8,3.9,19.3c2.3,1.6,5.4,1.5,8,1.6c4.9,0.3,9.8,0.5,14.6,0.7c19.9,0.7,39.8,0.7,59.7-0.1c19.5-0.8,39-2.4,58.4-4.7
		c4.9-0.6,9.8-1.2,14.7-1.3c3.1-0.1,7,1,9.7-0.8c4.9-3.2,5-13.3,4.6-18.3c0.3,0,0.6-0.1,0.9-0.1c0.8-0.1,1.6-1,1-1.8
		c-2-3-4-6-5.7-9.2c1.4-0.3,2.9-0.6,4.3-0.7c1-0.1,1.6-1.2,0.9-2c-2-2.3-4.1-4.2-6.4-6.2c1.4-1.7,2-3.6,1.2-5.7
		c1.9-0.2,4.1-0.9,5.6-1.4C215,332.4,219.8,330,215.1,326.1L215.1,326.1z M42.4,307.6c1.6-1.1,3.6-1.8,5.3-2.8
		c7.8-4.2,15.6-8.5,23.5-12.7c7.7-4.1,15.5-8.1,23.5-11.7c9-4.1,20.3-10.1,30.5-8.7c8.4,1.2,16.8,4.6,24.8,7.3
		c8.4,2.8,16.7,5.9,24.9,9.1c8.4,3.3,16.7,6.8,24.8,10.7c1.3,0.6,2.2,1.4,2.8,2.2c-6.9,2-14.2,2-21.3,2.7
		c-6.1,0.6-12.2,1.1-18.4,1.3c-11.7,0.4-23.4,0.3-35.1,0.5c-12.7,0.3-25.4,0.3-38,1.1c-16.3,1.1-32.7,3.3-49.1,2.5
		C41.1,308.7,41.7,308.1,42.4,307.6L42.4,307.6z M36.7,340.5c0.6-0.4,0.9-1,1.4-1.4c2.7-2.1,3.6-3,7.5-2.2c1.3,0.3,2.9,0,4,1
		c1.4,1.3,0.6,1.8,1.8,2.5c0.5,0.3,0.8,0.1,1.3,0.3c1.4,0.5,2.1,0.4,3.2,1.3c0.4,0.4,0.6,1,1.1,1.4c3.6,3.2,8.4-0.4,11.7-2.2
		c1.4-0.8,2.4-1.1,4-0.6c0.1,0,2.8,1.3,3,1.5c0.9,1,0.5,2.6,1.6,3.6c3.1,2.8,7.5-0.7,9.6-3c0.1-0.2,0.3-0.4,0.4-0.6
		c4.3,10.4-19.1,8.9-24.6,8.8C56.7,350.9,33.7,351.4,36.7,340.5L36.7,340.5z M37.5,362.3c1.1-2,2.3-3.9,3.7-5.8
		c10.6,1.1,21.5,0,32.1-0.2c-1.4,2.8-2.6,5.4-5.9,6.3c-3.1,0.9-5.9,0.4-9,0c-3.7-0.5-7.5-1.3-11.2-1C44,361.9,40.8,362.7,37.5,362.3
		L37.5,362.3z M141.1,358.5c-2.5-1.4-5.1-2.7-7.6-3.8c12.2,0.2,24.6,1.1,36.7-0.4c4.6-0.5,9.2-0.5,13.8-0.7
		c-1.3,2.3-2.4,5.5-4.4,6.5c-1.6,0.8-5.8,0.1-7.7,0.3c-2.3,0.2-4.5,0.5-6.8,0.7c-9,1.1-17.9,2.4-26.8,0.8c1-0.5,1.9-0.9,2.9-1.3
		C142,360.2,141.8,358.9,141.1,358.5L141.1,358.5z M137.7,359.4c-2.1,1-4.2,2.1-6.2,3.4c-1.7,1.1-3,2.6-4.9,2.6
		c-4.1-0.1-8.5-2.1-12.5-2.9c-3-0.6-6.2,0.3-9.3-0.5c-2.5-0.6-4.8-2-7.2-3c-2.8-1.2-5.7-2.1-8.7-2.9c11.3-0.4,22.6-1,34-1.4
		c1.3,0,2.6-0.1,3.9-0.1c0.1,0.1,0.2,0.1,0.3,0.1C130.8,356.1,134.3,357.6,137.7,359.4L137.7,359.4z M97.9,361.8
		c2.6,1.1,5,2.4,7.8,2.9c0.1,0,0.2,0,0.3,0c-2.9,0.9-5.8,1.7-8.9,1.8c-3.8,0.2-7.6-0.2-10.9,2c-1,0.6-1.8,1.8-2.1,1.7
		c-0.8-0.2-2-2.8-2.5-3.5c-2.1-3-4.4-5.8-6.3-8.9c0.2-0.5,0.5-1,0.7-1.4c1.5,0,2.9,0,4.4-0.1c0,0,0.1,0,0.1,0
		C86.5,357.9,92.4,359.4,97.9,361.8L97.9,361.8z M207.5,358.6c-4.7,0.4-9,1.3-13.4,3.2c-3.2,1.4-6.5,2.4-10.1,2.3
		c-1.9,0-2.9,0.5-4.6-1.1c-0.1-0.1-0.3-0.3-0.4-0.5c0.8,0,1.6,0,2.4,0c0.6,0,1-0.4,1.2-0.9c1-3,2.4-5.6,4.3-8.2c0,0,0-0.1,0-0.1
		c1.3-0.1,2.5-0.2,3.8-0.4c4-0.6,7.9-1.7,11.8-2.7C204.1,353.2,205.7,355.9,207.5,358.6L207.5,358.6z M206.9,347.1
		c-4.6,0.7-8.9,2-13.5,3c-6.9,1.6-14.1,0.8-21.2,1.6c-15.7,1.8-31.4,0.1-47.2,0.6c-15.7,0.5-31.3,1.7-47,1.7
		c-7.3,0-14.6,0.9-21.9,0.6c-5.7-0.2-11.9,0-17.6-0.8c0.7-1.1,1.4-2.1,2.1-3.2c7.5,3.1,19.5,2.8,24.1,2.8c5.8,0.1,23.2,0.5,25.4-6.9
		c2.4,1,5.9,0.6,8.2,0.7c4.6,0.1,9.2-0.5,13.7-1.4c0.3,0.3,0.6,0.6,1.1,0.8c1.8,1,3.3,0.5,5-0.3l0,0c4.2,4,10.8,3.7,16.2,4.2
		c7.7,0.7,15.4,0.8,23.1-0.2c3.7-0.5,7.5-1.2,9.7-4.2c0.2,0.1,0.4,0.2,0.6,0.3c9.9,1.2,20.5,2.5,30-1.4c1.5-0.6,3-1.5,4.3-2.5
		C203.7,344.1,205.3,345.5,206.9,347.1L206.9,347.1z M88.6,339.5L88.6,339.5c0.7-0.5,3,0.6,3.8,0.7c0.9,0.2,1.8,0.3,2.8,0
		c0.7-0.2,1.8-1.5,2.3-1.6c2.5-0.4,3.9,2.7,6.6,2c1.8-0.4,3.3-2.1,4.2-3.7c1.8,1.7,1.7,4.3,2.4,6.6c-3.3,0.6-6.6,1.1-9.9,1.2
		c-2.1,0.1-8.7,0.7-10.6-1C90,342.5,89.5,341.1,88.6,339.5C88.6,339.5,88.6,339.5,88.6,339.5L88.6,339.5z M200.2,333.3
		c0.6,0.4,1.1,1.1,1.7,1.5c0,0,0,0.1,0.1,0.1c3.7,4.3-4.7,8-7.7,8.9c-3.1,1-6.4,1.4-9.7,1.5c-5.5,0.2-11-0.5-16.4-1.1
		c1.3-3.5-0.5-6.7-3.3-8.6c1.6-0.5,3.2-0.4,4.7,0.8c1.9,1.4,3,3.5,5.8,3.4c2.5-0.1,3.1-3.1,4.8-3.3c1.1-0.1,2.5,1.8,3.4,2.4
		c1.3,0.9,3,1.7,4.5,2.1c2.3,0.6,3.9,0.5,5.8-0.9c1.8-1.3,4-2.7,4.8-4.8c0.2-0.4,0.1-0.9,0.2-1.3C199.6,332.1,198,332,200.2,333.3
		L200.2,333.3z M161.6,347.2c-1.5,0.6-4.1,0.8-5.5,0.9c-3.7,0.4-7.5,0.7-11.2,0.6c-3.9,0-7.7-0.3-11.5-0.7
		c-4.2-0.4-9.5-0.2-12.9-2.9c2.7-1.8,4.5-4.7,8-5.3c3.4-0.6,5.8,0.9,9-0.6c2.3-1.2,2.2-2.1,4.4,0.4c1.3,1.4,2.5,2.9,4.1,4
		c2.2,1.4,4.9,2.2,7.5,1.3c3.2-1.1,3.6-4.2,6.1-6.2c0.8-0.6,1.7-1.3,2.7-1.9c0.1,0,0.1,0.1,0.2,0.1
		C168,339.6,165.9,345.3,161.6,347.2L161.6,347.2z M205.7,332.5c-2.4,0-3.4-1.5-5.2-2.2c-4.2-1.7-2.7,1.7-4.1,4.3
		c-1.7,3.1-6.4,4.7-9.3,3.3c-2-0.9-3.9-4.1-6.1-4.4c-1.7-0.2-2,1.2-3.2,1.9c-2.4,1.5-5.1,0.9-6.8-1.4c-0.6-0.7-1-1.6-1.7-2.1
		c-4.1-3-6.8,2-9.8,4c-1.8,1.2-2.7,2.3-4.2,3.7c-0.2,0.1-5.5,2.9-5.8,2.9c-1,0-3-1.8-3.8-2.4c-1.5-1.3-2.5-3.3-4.1-4.4
		c-0.8-0.6-1.6-1.2-2.8-1c-1.5,0.3-1.1,1.1-2.2,1.7c-2.7,1.4-4.2,0.5-6.8,0.3c-3-0.2-5.4,1.5-7.6,3.4c-0.8,0.7-1.4,1.6-2.2,2.3
		c-2.3,2-3,2-5.2,0.3c-2.7-2.2-1.4-2.7-2.3-5.1c-0.7-1.9-2.3-2.5-4-3.5c-0.5-0.3-1.4-0.2-1.7,0.4c-1.4,3.2-2.5,3.7-6.3,2.2
		c-0.9-0.3-1.3-1.2-2.4-1.2c-0.5,0-0.9,0.3-1.4,0.4c-0.4,0.3-0.7,0.6-1,1c-1.7,1-3.3,1.1-4.9,0.4c-1.8-0.2-2.6-0.8-4.1,0.3
		c-1.7,1.2-3.6,9.9-8.4,5.2c-0.6-0.6-0.5-1.9-1.3-2.7c-1.2-1-4.6-2.7-6.4-2.5c-2.2,0.3-3.8,2.3-5.7,3.3c-2.4,1.2-4.8,1.6-7.1-0.1
		c-0.7-0.5-1-1.5-1.9-1.9c-1.7-0.9-2.5-0.5-4-1.7c-1.6-1.2-2.2-2.1-4.1-2.6c-2.1-0.6-5.7-1.2-7.9-0.5c-1.1,0.4-1.1,0.6-2.1,1.3
		c-0.4,0.5-0.7,0.9-1,1.3c-2.1,2.4-3.3,2.6-3.6,0.7c-1.4-0.9-1.3-1.8-3.2-2.2c-2-0.4-3.6,1.1-4.2-1.2c-0.5-2,0.3-1.4,1.6-2.7
		c1.3-1.2,0.8-2.2,1.5-3.4c-0.8-1.7,0.2-2.3,3.1-1.9c0.5,0.1,1,0.1,1.6,0.2c0.8-0.2,1.2-0.3,1.6-0.4c0.1,0.7,0.1,1.4,0.2,2.2
		c0,0.4,0.2,0.7,0.5,1c0.3,0.3,0.6,0.6,1.1,0.6c28.7,3.2,57.4,1.1,86.2-0.7c14.2-0.9,28.4-1.7,42.7-1.6c13.3,0.1,26.6,0.9,39.6-2.8
		c0.7-0.2,1.2-0.8,1.2-1.6c0-1.4,0.2-2.9,0.3-4.4c2.1,1.1,0.7,2.2,1.7,4.6c0.6,1.4,1.7,2.2,2.9,3c0.7,0.5,2.8,1.5,3,2.3
		c0.4,1.3-3.5,2.5-4.5,2.8C208.7,331.9,207.1,332.5,205.7,332.5L205.7,332.5z"/>
	<g>
		<g>
			<path d="M98.6,282.4c0.2,0.2,0.5,0.3,0.7,0.3l18.8-1l0.8,14.8l1.9-0.1l-0.8-14.8l4.9-0.3l0.8,14.8l1.9-0.1l-0.8-14.8l19.7-1.1
				c0.5,0,0.9-0.5,0.9-1l-1.2-21.7c0-0.5-0.5-0.9-1-0.9l-19.7,1.1l-0.3-4.6l19.1-1.1c0.3,0,0.5-0.1,0.6-0.3l9.8-11.4
				c0.3-0.4,0.3-0.9-0.1-1.3l-10.9-10.3c-0.2-0.2-0.5-0.3-0.7-0.3l-19.1,1.1l-0.1-2.4c-0.1-2.2-2-4-4.3-3.9l-0.5,0
				c-2.2,0.1-4,2-3.9,4.3l0.1,2.4L95.8,231c-0.5,0-0.9,0.5-0.9,1l1.2,21.7c0,0.5,0.5,0.9,1,0.9l19.4-1.1l0.3,4.6l-18.8,1
				c-0.3,0-0.5,0.1-0.6,0.3l-9.8,11.4c-0.3,0.4-0.3,0.9,0.1,1.3L98.6,282.4z M119,225l0.5,0c1.2-0.1,2.2,0.9,2.3,2.1l0.1,2.4
				l-4.9,0.3l-0.2-2.4C116.9,226.1,117.8,225.1,119,225z M123.3,253.1l0.3,4.6l-4.9,0.3l-0.3-4.6L123.3,253.1z"/>
			<polygon class="st0" points="98,252.6 96.9,232.8 142.7,230.3 152.7,239.6 143.8,250.1 			"/>
			<polygon class="st0" points="98.5,261 144.4,258.4 145.5,278.2 99.6,280.8 89.6,271.4 			"/>
		</g>
	</g>
</g>
<g>
	<g>
		<path class="st1" d="M70.2,295.5c1.6-0.5,3.3-0.2,4.5,0.9c0.6,0.6,1.1,1.2,1.3,1.9c0.3,0.8,0.4,1.7,0.2,2.4
			c-0.1,0.5,0.1,1,0.7,1.2c0.5,0.1,1.1-0.2,1.2-0.7c0.4-2.3-0.3-4.7-2-6.3c-1.7-1.5-4.2-2.1-6.4-1.4c-0.5,0.2-0.8,0.7-0.7,1.2
			C69.2,295.3,69.7,295.7,70.2,295.5L70.2,295.5z"/>
	</g>
</g>
<g>
	<g>
		<path class="st1" d="M141.5,289.8c-0.4,0-0.7,0-1,0c-0.2,0,0,0-0.1,0c-0.1,0-0.2,0-0.2,0c-0.2,0-0.3-0.1-0.5-0.1
			c-0.2,0-0.3-0.1-0.5-0.2c-0.1,0-0.2-0.1-0.2-0.1c0.2,0.1-0.1-0.1-0.1-0.1c-0.3-0.1-0.6-0.3-0.9-0.5c-0.1,0-0.1-0.1-0.2-0.1
			c0,0-0.2-0.2-0.1-0.1c0.1,0.1-0.1-0.1-0.1-0.1c-0.1-0.1-0.1-0.1-0.2-0.2c-0.3-0.2-0.5-0.5-0.7-0.7c0-0.1,0-0.1,0,0
			c0,0,0-0.1-0.1-0.1c-0.1-0.1-0.1-0.2-0.2-0.2c-0.1-0.1-0.2-0.3-0.3-0.4c-0.1-0.1-0.2-0.3-0.2-0.4c-0.1-0.3,0.1,0.2-0.1-0.1
			c0-0.1-0.1-0.2-0.1-0.3c-0.2-0.5-0.7-0.8-1.2-0.7c-0.5,0.1-0.8,0.7-0.7,1.2c1.1,3.1,4.2,5.4,7.6,5.2c0.5,0,1-0.4,1-1
			C142.4,290.3,142,289.7,141.5,289.8L141.5,289.8z"/>
	</g>
</g>
<g>
	<g>
		<path class="st1" d="M191.3,294.8c-0.6-0.3-1.2-0.4-1.9-0.3c-0.6,0.1-1.2,0.3-1.8,0.6c-1.1,0.7-1.8,1.8-1.9,3.1c0,0.5,0.5,1,1,1
			c0.6,0,0.9-0.4,1-1c0-0.1,0-0.1,0-0.2c0-0.1,0,0,0,0.1c0,0,0-0.1,0-0.1c0-0.1,0-0.2,0.1-0.3c0,0,0-0.1,0.1-0.1
			c-0.1,0.3-0.1,0.1,0,0c0-0.1,0.1-0.2,0.2-0.3c0-0.1,0.1-0.1,0.1-0.2c0.1-0.1-0.2,0.2,0,0c0.1-0.1,0.1-0.2,0.2-0.2
			c0.1-0.1,0.2-0.2,0.3-0.2c0.1,0,0,0-0.1,0.1c0,0,0.1,0,0.1-0.1s0.1-0.1,0.1-0.1c0.1-0.1,0.2-0.1,0.3-0.2c0,0,0.1,0,0.1-0.1
			c0.2-0.1-0.2,0.1,0,0c0.2-0.1,0.4-0.1,0.6-0.2c-0.3,0.1-0.1,0-0.1,0c0.1,0,0.1,0,0.2,0c0.1,0,0.2,0,0.3,0c0.2,0-0.2-0.1-0.1,0
			c0.1,0,0.1,0,0.2,0c0.1,0,0.5,0.2,0.2,0c0.3,0.1,0.5,0.2,0.7,0.1c0.2-0.1,0.5-0.2,0.6-0.5C191.9,295.7,191.9,295,191.3,294.8
			L191.3,294.8z"/>
	</g>
</g>
<path d="M95.1,293.9c0,0.1,0,0.2,0,0.3c-0.3,1.5-1.8,1.7-3.1,1.5c-1.1-0.2-3.5-1.3-2.2-2.7c0.9-1,3.2-1.2,4.3-0.6
	C94.6,292.7,95.1,293.3,95.1,293.9z"/>
<path d="M158.2,290.5c0,0.1,0,0.2,0,0.3c-0.3,1.5-1.8,1.7-3.1,1.5c-1.1-0.2-3.5-1.3-2.2-2.7c0.9-1,3.2-1.2,4.3-0.6
	C157.7,289.3,158.2,289.9,158.2,290.5z"/>
<g>
	<rect x="253.4" y="179.4" width="27.3" height="27.3"/>
	<rect x="280.8" y="179.4" class="st2" width="27.3" height="27.3"/>
	<rect x="308.3" y="179.4" width="27.3" height="27.3"/>
	<rect x="335.7" y="179.4" class="st2" width="27.3" height="27.3"/>
	<rect x="363" y="179.4" width="27.3" height="27.3"/>
	<rect x="390.4" y="179.4" class="st2" width="27.3" height="27.3"/>
	<rect x="418" y="179.4" width="27.3" height="27.3"/>
	<rect x="445.3" y="179.4" class="st2" width="27.3" height="27.3"/>
	<rect x="472.7" y="179.4" width="27.3" height="27.3"/>
	<rect x="500.1" y="179.4" class="st2" width="27.3" height="27.3"/>
	<rect x="527.6" y="179.4" width="27.3" height="27.3"/>
	<rect x="555" y="179.4" class="st2" width="27.3" height="27.3"/>
	<rect x="555" y="206.8" width="27.3" height="27.3"/>
	<rect x="527.6" y="206.8" class="st2" width="27.3" height="27.3"/>
	<rect x="500.1" y="206.8" width="27.3" height="27.3"/>
	<rect x="472.7" y="206.8" class="st2" width="27.3" height="27.3"/>
	<rect x="445.3" y="206.8" width="27.3" height="27.3"/>
	<rect x="418" y="206.8" class="st2" width="27.3" height="27.3"/>
	<rect x="390.4" y="206.8" width="27.3" height="27.3"/>
	<rect x="363.1" y="206.8" class="st2" width="27.3" height="27.3"/>
	<rect x="335.7" y="206.8" width="27.3" height="27.3"/>
	<rect x="308.3" y="206.8" class="st2" width="27.3" height="27.3"/>
	<rect x="280.8" y="206.8" width="27.3" height="27.3"/>
	<rect x="253.4" y="206.8" class="st2" width="27.3" height="27.3"/>
</g>
<g>
	<rect x="17.7" y="513.4" width="27.3" height="27.3"/>
	<rect x="45" y="513.4" class="st2" width="27.3" height="27.3"/>
	<rect x="72.6" y="513.4" width="27.3" height="27.3"/>
	<rect x="99.9" y="513.4" class="st2" width="27.3" height="27.3"/>
	<rect x="127.3" y="513.4" width="27.3" height="27.3"/>
	<rect x="154.7" y="513.4" class="st2" width="27.3" height="27.3"/>
	<rect x="182.2" y="513.4" width="27.3" height="27.3"/>
	<rect x="209.6" y="513.4" class="st2" width="27.3" height="27.3"/>
	<rect x="236.9" y="513.4" width="27.3" height="27.3"/>
	<rect x="264.3" y="513.4" class="st2" width="27.3" height="27.3"/>
	<rect x="291.9" y="513.4" width="27.3" height="27.3"/>
	<rect x="319.2" y="513.4" class="st2" width="27.3" height="27.3"/>
	<rect x="319.2" y="540.7" width="27.3" height="27.3"/>
	<rect x="291.9" y="540.7" class="st2" width="27.3" height="27.3"/>
	<rect x="264.3" y="540.7" width="27.3" height="27.3"/>
	<rect x="237" y="540.7" class="st2" width="27.3" height="27.3"/>
	<rect x="209.6" y="540.7" width="27.3" height="27.3"/>
	<rect x="182.2" y="540.7" class="st2" width="27.3" height="27.3"/>
	<rect x="154.7" y="540.7" width="27.3" height="27.3"/>
	<rect x="127.3" y="540.7" class="st2" width="27.3" height="27.3"/>
	<rect x="100" y="540.7" width="27.3" height="27.3"/>
	<rect x="72.6" y="540.7" class="st2" width="27.3" height="27.3"/>
	<rect x="45" y="540.7" width="27.3" height="27.3"/>
	<rect x="17.7" y="540.7" class="st2" width="27.3" height="27.3"/>
</g>
<g>
	<rect x="17.7" y="24.2" width="27.3" height="27.3"/>
	<rect x="45" y="24.2" class="st2" width="27.3" height="27.3"/>
	<rect x="72.6" y="24.2" width="27.3" height="27.3"/>
	<rect x="99.9" y="24.2" class="st2" width="27.3" height="27.3"/>
	<rect x="127.3" y="24.2" width="27.3" height="27.3"/>
	<rect x="154.7" y="24.2" class="st2" width="27.3" height="27.3"/>
	<rect x="182.2" y="24.2" width="27.3" height="27.3"/>
	<rect x="209.6" y="24.2" class="st2" width="27.3" height="27.3"/>
	<rect x="236.9" y="24.2" width="27.3" height="27.3"/>
	<rect x="264.3" y="24.2" class="st2" width="27.3" height="27.3"/>
	<rect x="291.9" y="24.2" width="27.3" height="27.3"/>
	<rect x="319.2" y="24.2" class="st2" width="27.3" height="27.3"/>
	<rect x="319.2" y="51.6" width="27.3" height="27.3"/>
	<rect x="291.9" y="51.6" class="st2" width="27.3" height="27.3"/>
	<rect x="264.3" y="51.6" width="27.3" height="27.3"/>
	<rect x="237" y="51.6" class="st2" width="27.3" height="27.3"/>
	<rect x="209.6" y="51.6" width="27.3" height="27.3"/>
	<rect x="182.2" y="51.6" class="st2" width="27.3" height="27.3"/>
	<rect x="154.7" y="51.6" width="27.3" height="27.3"/>
	<rect x="127.3" y="51.6" class="st2" width="27.3" height="27.3"/>
	<rect x="100" y="51.6" width="27.3" height="27.3"/>
	<rect x="72.6" y="51.6" class="st2" width="27.3" height="27.3"/>
	<rect x="45" y="51.6" width="27.3" height="27.3"/>
	<rect x="17.7" y="51.6" class="st2" width="27.3" height="27.3"/>
</g>
<g>
	<path d="M455.6,298.8c0.1,3.2,0.3,6.4,0.5,9.6c0,0.6,0,1.1-0.7,1.4c-7.8,2.1-15.7,3.1-23.5,0.7c-6.8-2.1-10.7-7.1-12.3-13.9
		c-1.7-7.6-1.6-15.3,1.1-22.7c3.2-8.9,10.4-13.5,19.3-14.1c4.7-0.3,9.4,0,14,1c1.3,0.3,1.7,0.7,1.5,2c-0.5,3.8-0.9,7.5-1.2,11.3
		c-0.1,1.3-0.6,1.4-1.7,1c-2.5-0.8-5-1.4-7.6-1c-4.3,0.5-7,3-8,7.2c-1.1,4.7-0.8,9.4,0.2,14.1c0.2,0.9,0.6,1.7,1.2,2.4
		c0.4,0.3,0.8,0.7,1.3,0.5c0.4-0.2,0.2-0.7,0.2-1.1c-0.1-2.6-0.2-5.2-0.4-7.7c-0.1-1.1,0.2-1.5,1.3-1.4c4.5,0.1,8.9,0.1,13.4,0
		c1.2,0,1.4,0.4,1.3,1.5C455.5,292.5,455.5,295.7,455.6,298.8C455.5,298.8,455.6,298.8,455.6,298.8z"/>
	<path d="M290.4,285.6c0-7.8,0-15.7,0-23.5c0-1.2,0.3-1.4,1.4-1.4c9.5,0,19,0,28.4,0c1,0,1.3,0.3,1.2,1.3c-0.3,4.1-0.6,8.2-0.8,12.2
		c-0.1,1-0.5,1.1-1.4,1.1c-3.2-0.2-6.5-0.3-9.8-0.5c-1.3-0.1-1.9,0.2-1.8,1.7c0.1,3.3,0,3.3,3.4,3.3c2.2,0,4.5,0.1,6.7,0
		c1.2,0,1.6,0.2,1.5,1.5c-0.3,3-0.5,6.1-0.6,9.2c0,0.9-0.4,1.1-1.2,1.1c-2.8,0-5.5,0-8.3,0c-1,0-1.3,0.3-1.4,1.3
		c-0.1,3.8-0.1,3.8,3.6,3.6c3.2-0.1,6.4-0.2,9.6-0.4c1.1-0.1,1.5,0.1,1.4,1.3c-0.4,4.1-0.6,8.2-0.8,12.2c0,0.8-0.2,1.2-1.1,1.2
		c-9.6,0-19.2,0-28.8,0c-1.1,0-1-0.6-1-1.4C290.4,301.5,290.4,293.5,290.4,285.6z"/>
	<path d="M367.9,285.5c0-7.8,0-15.7,0-23.5c0-1,0.3-1.3,1.3-1.3c5,0,10,0.1,15,0c1.2,0,1.5,0.3,1.4,1.5c-0.3,10.7-0.5,21.4-0.4,32.1
		c0,1.5,0.3,2,1.9,1.9c3.6-0.2,7.2-0.2,10.9-0.4c1.1-0.1,1.5,0.2,1.4,1.3c-0.3,4.1-0.6,8.3-0.8,12.4c-0.1,0.9-0.4,1.2-1.3,1.2
		c-9.4,0-18.7,0-28.1,0c-1.2,0-1.2-0.6-1.2-1.4C367.9,301.4,367.9,293.5,367.9,285.5C367.9,285.5,367.9,285.5,367.9,285.5z"/>
	<path d="M267.4,294.2c0,5-0.1,10,0,15c0,1.4-0.4,1.7-1.7,1.7c-4.8-0.1-9.7-0.1-14.5,0c-1.3,0-1.6-0.4-1.6-1.6
		c0.5-11.7,0.4-23.5,0.3-35.2c0-4-0.2-7.9-0.3-11.9c0-1,0.2-1.3,1.3-1.3c7.4,0.1,14.8,0,22.3,0.1c2.5,0,5,0.5,7.4,1.6
		c4.6,2.2,6.2,6.2,6.6,10.8c0.3,3.4-0.1,6.7-1.6,9.8c-1.6,3.2-4.3,5-7.9,5.2c-1.6,0.1-1.3,0.7-0.9,1.7c1.7,3.9,5.6,5.8,10.5,5.2
		c0.3,0,0.6-0.1,1-0.2c0,5.1,0,10,0.4,15c0.1,1.1-0.7,1.2-1.3,1.3c-8.5,1.7-15.3-0.5-18.3-9.9c-0.6-2-1-4.1-1.3-6.2
		C267.7,294.8,267.8,294.3,267.4,294.2z M267,280.1c0,1.1-0.1,2.2,0,3.2c0,0.6-0.5,1.5,0.5,1.6c0.9,0.1,2.1,0.3,2.5-0.9
		c0.7-2.7,0.7-5.3,0-8c-0.3-1.2-1.5-0.8-2.3-0.8c-1.2,0-0.6,1-0.6,1.5C267,277.9,267,279,267,280.1z"/>
	<path d="M498.3,285.5c0.2-5.6,0.5-11.2,2.9-16.5c2.4-5.3,6.5-8.4,12.3-9.1c3.8-0.5,7.6-0.6,11.3,0.3c6.5,1.5,10.2,5.9,11.9,12.1
		c2.5,9.5,2.5,19-0.5,28.4c-2.2,6.9-7.7,10.8-14.9,11c-3.1,0.1-6.3,0.3-9.4-0.5c-6.6-1.6-10.2-6.2-12-12.4
		C498.7,294.5,498.5,290,498.3,285.5z M520.4,286c0.2-2.9,0.3-5.9-0.2-8.8c-0.2-1-0.6-1.7-1.7-1.7c-1.1,0-1.6,0.6-1.7,1.7
		c-0.1,0.8-0.3,1.5-0.3,2.3c0,4.4,0,8.9,0,13.3c0,0.9,0.2,1.8,0.4,2.7c0.2,0.9,0.7,1.3,1.7,1.3c0.8,0,1.4-0.4,1.6-1.2
		c0.1-0.7,0.3-1.4,0.4-2.1C520.4,290.9,520.4,288.4,520.4,286z"/>
	<path d="M457.2,286.3c0-6.5,0.4-12.2,2.9-17.5c2.4-5.2,6.5-8.2,12.2-8.9c3.8-0.5,7.6-0.6,11.3,0.3c6.7,1.6,10.4,6.3,12,12.6
		c2.2,9,2.3,18.1-0.4,27.1c-2.3,7.6-7.8,11.7-15.8,11.8c-2.9,0.1-5.9,0.2-8.8-0.5c-6.6-1.6-10.1-6.1-11.9-12.3
		C457.5,294.6,457.1,290.1,457.2,286.3z M479.3,286.3c0-1.1,0-2,0-2.8c-0.1-2-0.2-4.1-0.4-6.1c-0.1-1-0.5-1.9-1.7-1.9
		c-1.2,0-1.7,0.8-1.8,1.8c-0.1,0.8-0.3,1.6-0.3,2.3c0,4.2,0,8.5,0,12.8c0,1.1,0.2,2.3,0.6,3.3c0.3,0.7,0.8,1,1.6,1
		c0.7,0,1.3-0.3,1.5-1c0.2-0.5,0.3-1,0.3-1.6C479.3,291.4,479.4,288.7,479.3,286.3z"/>
	<path d="M345.1,260.8c4,0,8,0,12,0c1.2,0,1.6,0.3,1.7,1.5c1.4,10.7,3.2,21.3,5.1,31.9c0.9,5.2,1.9,10.3,2.9,15.4
		c0.2,1,0,1.4-1.1,1.3c-5.5-0.1-11-0.1-16.5,0c-1.1,0-1.3-0.4-1.3-1.4c-0.1-2.1-0.4-4.2-0.5-6.3c-0.1-1-0.5-1.2-1.4-1.3
		c-3.9,0-3.9-0.1-4.1,3.8c-0.1,1.7,0.3,3.8-0.7,4.8c-1,0.9-3.1,0.3-4.7,0.3c-3.9,0-7.8,0-11.8,0c-1,0-1.4-0.1-1.1-1.3
		c2.6-12.2,4.6-24.4,6.6-36.7c0.6-3.6,1.1-7.1,1.5-10.7c0.1-1.2,0.6-1.3,1.6-1.3C337.1,260.8,341,260.8,345.1,260.8z M344.2,276
		c-0.4,4.2-0.6,8.4-1,12.6c-0.1,1.5,0.8,1.1,1.6,1.2c0.8,0,1.5,0.2,1.4-1.1c-0.4-3.8-0.7-7.5-1.1-11.3
		C345,276.9,345,276.3,344.2,276z"/>
	<path d="M540.1,285.7c0-7.7,0-15.5,0-23.3c0-1.4,0.4-1.7,1.7-1.7c5.9,0.1,11.8,0,17.7,0c9.1,0,14.8,3.9,17.4,12.5
		c2.8,9.3,2.8,18.8-1.1,27.8c-2.7,6.2-7.6,9.4-14.5,9.6c-6.6,0.1-13.3,0-19.9,0.1c-1.4,0-1.3-0.7-1.3-1.7
		C540.1,301.3,540.1,293.5,540.1,285.7z M557.3,285.9L557.3,285.9c0,3.2,0.1,6.4,0,9.5c0,1.4,0.6,1.3,1.5,1c1.6-0.6,1.6-2,1.7-3.3
		c0.4-4.8,0.4-9.6,0-14.4c-0.1-0.9-0.2-1.9-0.8-2.7c-0.5-0.7-1.3-0.9-2.1-0.7c-0.7,0.2-0.3,0.9-0.3,1.4
		C557.3,279.7,557.3,282.8,557.3,285.9z"/>
</g>
<text transform="matrix(0.9964 -8.451708e-02 8.451708e-02 0.9964 227.6535 391.898)" class="st3 st4">Sandwiches</text>
<text transform="matrix(1 0 0 1 34.4477 200.4117)" class="st5 st6">come hungry</text>
<g>
	<path d="M179.7,399.2c-12-3.7-26.3-0.2-38.4,1.3c-7.8,0.9-15.7,1.7-23.5,1.7c-13.9-0.5-27.2-4-41.2-5.9c-13.7-1.9-25,3.2-33.2,14.1
		c-13.7,18.3-9.7,46.6,9.6,59.1c10.1,6.6,23.8,8.7,35.4,10.4c5.7,0.8,11.5,1.4,17.2,1.6c-0.7,5.9-4.4,11-8.8,15.4
		c-0.5,0.5-0.3,1.4,0.4,1.6c12.5,3.7,26.6-5,30-17.1c2-0.1,4.1-0.3,6.1-0.4c22.6-2,57.1-8.6,67.3-32.2
		C208.3,431.2,198.3,405,179.7,399.2z"/>
	<path class="st0" d="M73.2,414.6c0.3-0.1,0.6-0.1,1.1,0.1c0.4,0.1,0.8,0.4,1.3,0.9c0.2,0.2,0.3,0.3,0.4,0.5s0.2,0.3,0.3,0.4
		c0.1,0.1,0.2,0.2,0.2,0.3c0,0.1,0.1,0.2,0.1,0.3c0,0.1,0,0.1,0,0.2c0,0.1,0,0.1,0,0.1c0,0,0,0.1-0.1,0.1c0,0,0,0.1-0.1,0.1
		c0,0,0,0-0.1,0.1c0,0,0,0,0,0.1c0.1,0.5,0.1,1.2,0.2,2.1c0.1,1,0.1,2.2-0.1,3.6c0,0.2,0,0.4-0.1,0.6c0,1.3,0,2.7-0.1,4.1
		c0,0.3,0,0.6,0,0.9c-0.1,2.1-0.2,4.7-0.4,7.7c-0.2,3.6-0.6,6.4-1,8.7c-0.5,2.2-1,4.1-1.6,5.9c-0.6,1.8-1.3,3.3-2,4.3
		c-0.9,1.4-2.2,2.3-3.8,2.9c-1.7,0.6-3.5,0.4-5.4-0.5c-1.8-0.8-3.1-2-4-3.6c-0.7-1.4-1.2-2.8-1.3-4.3l-0.1-1.7
		c-0.1-0.8,0.2-1.5,0.6-2c0.5-0.6,1.1-0.9,1.9-1c0.8-0.1,1.5,0.2,2,0.6c0.6,0.5,0.9,1.1,1,1.9l0.1,1.7c0.1,0.8,0.3,1.5,0.6,2.1
		c0.3,0.5,0.7,0.9,1.4,1.2c0.6,0.3,1,0.3,1.4,0.3c0.4-0.1,0.6-0.4,0.8-0.6c0.4-0.6,0.9-1.7,1.4-3c0.5-1.5,1-3.3,1.5-5.3
		c0.4-1.9,0.7-4.5,0.9-7.8c0.1-0.8,0.1-1.6,0.2-2.4c-0.7,0.3-1.4,0.6-2.1,0.7c-2.2,0.4-4.1-0.3-5.7-2c-0.9-0.9-1.5-2-1.8-3.3
		c-0.3-1.3-0.5-2.9-0.6-4.8c-0.1-3.4,0-5.9,0.3-7.4l0.4-1.8c0.2-0.8,0.6-1.4,1.2-1.8c0.6-0.4,1.4-0.6,2.1-0.4
		c0.7,0.2,1.3,0.6,1.7,1.2c0.4,0.6,0.6,1.4,0.4,2.1l-0.4,1.9c-0.2,1.1-0.3,3.1-0.2,6c0,0.8,0.1,1.6,0.2,2.3c0.1,0.7,0.2,1.2,0.3,1.5
		c0.1,0.3,0.2,0.5,0.2,0.5c0.3,0.3,0.5,0.4,0.8,0.4c0.5-0.1,1-0.4,1.5-1.1c0.4-0.5,0.7-1,1-1.5c0.2-0.4,0.3-0.6,0.4-0.9
		c0.2-0.6,0.3-1.2,0.4-2c0-0.6,0-1.3,0-1.8c0-2-0.1-3.2-0.1-3.8c0-0.1,0-0.2,0.1-0.4c0.1-0.1,0.2-0.4,0.3-0.7
		c0.1-0.4,0.3-0.6,0.5-0.9c0.2-0.3,0.4-0.6,0.7-0.8C72.6,414.9,72.9,414.7,73.2,414.6z M96.7,426.3c0.5,2.3,0.6,4.6,0.5,7.1
		c-0.1,2.3-0.3,4.6-0.6,6.9c-0.2,2.3-0.4,4.4-0.6,6.3c-0.2,1.9-0.3,3.3-0.4,4.3c-0.1,1-0.2,2.1-0.3,3.1c-0.1,1-0.2,1.7-0.2,2.1
		c0,0,0,0.1,0,0.2c0,0.1,0,0.3,0,0.5c0,0.2,0,0.5-0.1,0.6s-0.1,0.4-0.3,0.6c-0.2,0.2-0.4,0.4-0.6,0.5s-0.6,0.2-1,0.2
		c-0.5,0-1-0.1-1.6-0.3l-1.4-0.7c-0.2,0-0.4,0.1-0.6,0.1c-1.5,0.3-3.1,0.3-4.9,0.2c-2.2-0.1-4-0.8-5.4-2.1c-1.4-1.3-2.3-2.8-2.5-4.6
		c-0.3-1.9,0.4-3.9,2-6c1.6-2.1,3.6-3.5,6-3.9c2.5-0.5,4.5-0.1,6,1c0.1-0.8,0.1-1.7,0.2-2.5c0.2-2.3,0.4-4.5,0.6-6.7
		c0.1-2,0-3.9-0.4-5.6c-0.2-1.1-0.8-1.9-1.8-2.4l-1.4-0.4c-0.7,0.6-1.6,1.7-2.5,3.2c-0.9,1.6-1.4,2.6-1.5,3l-0.2,0.7
		c-0.1,0.7-0.6,1.3-1.2,1.7c-0.6,0.4-1.4,0.6-2.1,0.4c-0.7-0.1-1.3-0.6-1.7-1.2c-0.4-0.6-0.6-1.4-0.4-2.1l0.2-0.7
		c0-0.2,0.1-0.4,0.1-0.6c0.1-0.2,0.1-0.4,0.2-0.6c0.1-0.2,0.2-0.4,0.2-0.5c0.1-0.1,0.2-0.3,0.3-0.6c0.2-0.3,0.3-0.5,0.3-0.6
		c0.1-0.1,0.2-0.4,0.4-0.8c0.2-0.4,0.4-0.7,0.5-0.8c1.3-2.3,2.7-4,4.1-5.1c2-1.5,4.4-1.5,7.2-0.1C94.6,421.3,96.1,423.4,96.7,426.3z
		 M89.2,452.2c-0.1-0.6-0.1-1.1-0.2-1.7c-0.2-1.3-0.4-2.2-0.6-2.8c-0.1-0.3-0.4-0.6-0.9-1c-0.3-0.1-0.8-0.1-1.7,0.1
		c-1,0.2-1.8,0.7-2.5,1.7c-0.3,0.4-0.5,0.7-0.7,1.1c-0.2,0.3-0.3,0.6-0.3,0.7c0,0.1,0,0.2,0,0.2c0.1,0.4,0.3,0.8,0.7,1.2
		c0.5,0.4,1.2,0.6,2.1,0.7c1.4,0.1,2.6,0.1,3.6-0.1C88.9,452.2,89,452.2,89.2,452.2z M112.8,459.3l-1.4-0.7c-0.2,0-0.4,0.1-0.6,0.1
		c-1.5,0.3-3.1,0.3-4.9,0.2c-2.2-0.1-4-0.8-5.4-2.1c-1.4-1.3-2.3-2.8-2.5-4.6c-0.3-1.9,0.4-3.9,2-6c1.6-2.1,3.6-3.5,6-3.9
		c2.5-0.5,4.5-0.1,6,1c0.1-0.8,0.1-1.7,0.2-2.5c0.2-2.3,0.4-4.5,0.6-6.7c0.1-2,0-3.9-0.4-5.6c-0.2-1.1-0.8-1.9-1.8-2.4l-1.4-0.4
		c-0.7,0.6-1.6,1.7-2.5,3.2c-0.9,1.6-1.4,2.6-1.5,3l-0.2,0.7c-0.1,0.7-0.6,1.3-1.2,1.7c-0.7,0.4-1.4,0.6-2.1,0.4
		c-0.7-0.1-1.3-0.6-1.7-1.2c-0.4-0.6-0.6-1.4-0.4-2.1l0.2-0.7c0-0.2,0.1-0.4,0.1-0.6c0.1-0.2,0.1-0.4,0.2-0.6
		c0.1-0.2,0.2-0.4,0.2-0.5c0.1-0.1,0.2-0.3,0.3-0.6c0.2-0.3,0.3-0.5,0.3-0.6s0.2-0.4,0.4-0.8c0.2-0.4,0.4-0.7,0.5-0.8
		c1.3-2.3,2.7-4,4.1-5.1c2-1.5,4.4-1.5,7.2-0.1c2.6,1.3,4.1,3.4,4.7,6.3c0.5,2.3,0.6,4.6,0.5,7.1c-0.1,2.3-0.3,4.6-0.6,6.9
		c-0.2,2.3-0.4,4.4-0.6,6.3c-0.2,1.9-0.3,3.3-0.4,4.3c-0.1,1-0.2,2.1-0.3,3.1c-0.1,1-0.2,1.7-0.2,2.1c0,0,0,0.1,0,0.2
		c0,0.1,0,0.3,0,0.5c0,0.2,0,0.5-0.1,0.6s-0.1,0.4-0.3,0.6c-0.2,0.2-0.4,0.4-0.6,0.5s-0.6,0.2-1,0.2
		C113.9,459.6,113.4,459.5,112.8,459.3z M110.4,453.1c-0.1-0.6-0.1-1.1-0.2-1.7c-0.2-1.3-0.4-2.2-0.6-2.8c-0.1-0.3-0.4-0.6-0.9-1
		c-0.3-0.1-0.8-0.1-1.7,0.1c-1,0.2-1.8,0.7-2.5,1.7c-0.3,0.4-0.5,0.7-0.7,1.1c-0.2,0.3-0.3,0.6-0.3,0.7c0,0.1,0,0.2,0,0.2
		c0.1,0.4,0.3,0.8,0.7,1.2c0.5,0.4,1.2,0.6,2.1,0.7c1.4,0.1,2.6,0.1,3.6-0.1C110,453.1,110.2,453.1,110.4,453.1z M132.3,436.7
		c-1.5-0.5-2.6-1-3.4-1.4c-0.4-0.2-0.9-0.9-1.6-2.2c-0.6-1.3-0.8-2.5-0.6-3.5c0.3-1.3,0.8-2.5,1.7-3.8c0.8-1.2,1.4-1.9,1.8-2
		c0.1,0,0.1-0.1,0.2-0.1c0.1,0.3,0.2,0.5,0.2,0.6l0.1,0.6c0.1,0.7,0.4,1.4,1,1.8c0.6,0.5,1.3,0.7,2.1,0.6c0.7-0.1,1.4-0.5,1.8-1.1
		c0.5-0.6,0.7-1.3,0.6-2l-0.1-0.6c-0.1-0.6-0.3-1.4-0.6-2.3c-0.6-1.4-1.6-2.3-3-2.9c-1.4-0.6-3-0.5-4.6,0.3c-1.4,0.6-2.7,2-4.1,4.1
		c-1.3,1.9-2.2,3.9-2.6,5.9c-0.4,2.3-0.1,4.6,1.1,7c1.2,2.4,2.5,4,4.1,4.8c1,0.6,2.4,1.1,4.1,1.7c1,0.3,1.7,0.9,2.2,1.8
		c0.6,0.9,0.8,2.3,0.7,4.2c-0.1,2-0.6,3.6-1.2,4.7c-0.5,0.8-1,1.3-1.5,1.5c-0.4,0.1-0.8,0-1.1-0.2c-0.4-0.3-0.6-0.5-0.7-0.6
		c-0.1-0.7-0.2-1.1-0.2-1.4v-0.7c0-0.7-0.3-1.4-0.8-2c-0.6-0.6-1.2-0.8-2-0.8s-1.4,0.3-2,0.8s-0.8,1.2-0.8,2v0.7
		c0,0.6,0.1,1.5,0.3,2.5c0.3,1.6,1.3,2.9,2.9,4.1c1.7,1.3,3.6,1.6,5.8,1.1c2-0.5,3.7-1.8,5-4.1c1.1-1.9,1.8-4.3,2-7.2
		c0.2-3-0.3-5.6-1.4-7.5C136.3,438.8,134.5,437.4,132.3,436.7z M154.8,455.6c1.1-1.9,1.8-4.3,2-7.2c0.2-3-0.3-5.6-1.4-7.5
		c-1.3-2-3-3.4-5.2-4.2c-1.5-0.5-2.6-1-3.4-1.4c-0.4-0.2-0.9-0.9-1.6-2.2c-0.6-1.3-0.8-2.5-0.6-3.5c0.3-1.3,0.8-2.5,1.7-3.8
		c0.8-1.2,1.4-1.9,1.8-2c0.1,0,0.1-0.1,0.2-0.1c0.1,0.3,0.2,0.5,0.2,0.6l0.1,0.6c0.1,0.7,0.4,1.4,1,1.8c0.6,0.5,1.3,0.7,2.1,0.6
		c0.7-0.1,1.4-0.5,1.8-1.1c0.5-0.6,0.7-1.3,0.6-2l-0.1-0.6c-0.1-0.6-0.3-1.4-0.6-2.3c-0.6-1.4-1.6-2.3-3-2.9c-1.4-0.6-3-0.5-4.6,0.3
		c-1.4,0.6-2.7,2-4.1,4.1c-1.3,1.9-2.2,3.9-2.6,5.9c-0.4,2.3-0.1,4.6,1.1,7c1.2,2.4,2.5,4,4.1,4.8c1,0.6,2.4,1.1,4.1,1.7
		c1,0.3,1.7,0.9,2.2,1.8c0.6,0.9,0.8,2.3,0.7,4.2c-0.1,2-0.6,3.6-1.2,4.7c-0.5,0.8-1,1.3-1.5,1.5c-0.4,0.1-0.8,0-1.1-0.2
		c-0.4-0.3-0.6-0.5-0.7-0.6c-0.1-0.7-0.2-1.1-0.2-1.4v-0.7c0-0.7-0.3-1.4-0.8-2c-0.6-0.6-1.2-0.8-2-0.8c-0.8,0-1.4,0.3-2,0.8
		c-0.6,0.6-0.8,1.2-0.8,2v0.7c0,0.6,0.1,1.5,0.3,2.5c0.3,1.6,1.3,2.9,2.9,4.1c1.7,1.3,3.6,1.6,5.8,1.1
		C151.9,459.1,153.5,457.8,154.8,455.6z M161.4,438.6c1.1,0.5,2.5,1,4.2,1.5c1,0.3,1.7,0.8,2.3,1.7c0.6,0.9,0.9,2.3,0.9,4.1
		c0,2-0.4,3.6-1,4.8c-0.5,0.8-0.9,1.4-1.4,1.5c-0.4,0.1-0.8,0-1.1-0.2c-0.4-0.2-0.6-0.4-0.7-0.6c-0.2-0.7-0.3-1.1-0.3-1.4l0-0.7
		c0-0.7-0.3-1.4-0.9-1.9c-0.6-0.5-1.2-0.8-2-0.7c-0.8,0-1.4,0.4-1.9,0.9s-0.8,1.3-0.7,2l0,0.7c0,0.6,0.2,1.5,0.5,2.5
		c0.4,1.5,1.4,2.8,3,3.9c1.8,1.2,3.7,1.5,5.8,0.8c2-0.6,3.6-2,4.7-4.3c1-1.9,1.6-4.4,1.6-7.3c0.1-3-0.5-5.5-1.8-7.5
		c-1.4-2-3.2-3.3-5.4-3.9c-1.5-0.4-2.7-0.8-3.5-1.2c-0.5-0.2-1-0.9-1.7-2.1c-0.7-1.3-0.9-2.4-0.8-3.5c0.2-1.3,0.7-2.6,1.5-3.9
		c0.7-1.2,1.3-1.9,1.7-2.1c0.1,0,0.1-0.1,0.2-0.1c0.1,0.3,0.2,0.5,0.2,0.6l0.1,0.6c0.1,0.7,0.5,1.4,1.1,1.8c0.6,0.5,1.4,0.6,2.1,0.5
		c0.7-0.1,1.4-0.5,1.8-1.2c0.5-0.6,0.6-1.3,0.5-2.1l-0.1-0.6c-0.1-0.6-0.4-1.4-0.7-2.2c-0.6-1.3-1.7-2.2-3.1-2.8
		c-1.5-0.5-3-0.3-4.6,0.5c-1.3,0.7-2.6,2.1-3.9,4.2c-1.2,2-2,4-2.3,6c-0.3,2.3,0.2,4.6,1.5,7C158.4,436.4,159.8,437.9,161.4,438.6z
		 M183.1,447.7l-0.2-0.1c-0.6-0.4-1.3-0.6-2.1-0.5c-0.8,0.1-1.4,0.5-1.8,1.1s-0.6,1.3-0.5,2.1c0.1,0.8,0.5,1.4,1.1,1.8l0.2,0.1
		c0.6,0.4,1.3,0.6,2.1,0.5c0.8-0.1,1.4-0.5,1.8-1.1c0.4-0.6,0.6-1.3,0.5-2.1C184.1,448.7,183.7,448.1,183.1,447.7z M173.6,422
		c0.3,2,0.6,3.8,0.9,5.5c0.3,1.8,0.7,4,1.3,6.7c0.4,2.1,0.7,3.5,0.8,4v0.3c0,0.8,0.3,1.4,0.8,2c0.6,0.6,1.2,0.8,2,0.8
		c0.8,0,1.4-0.3,2-0.8c0.6-0.6,0.8-1.2,0.8-2l0-0.5c0-0.4-0.3-2.1-0.9-5c-0.6-2.6-0.9-4.8-1.2-6.5c-0.3-1.7-0.6-3.6-0.9-5.5
		l-0.5-2.9c-0.1-0.7-0.5-1.3-1.1-1.8s-1.3-0.6-2.1-0.5c-0.8,0.1-1.4,0.5-1.8,1.1c-0.5,0.6-0.6,1.3-0.5,2.1L173.6,422z M73.4,402.4
		c-8.3-2.9-23.2,2.4-25.8,11.6c0,0.2,0.2,0.3,0.3,0.2c6.8-8,15-10.8,25.4-11.2C73.6,403,73.7,402.5,73.4,402.4z M78,403.1
		c0.4-0.1,0.4-0.6,0.1-0.8c-0.7-0.5-1.9-0.4-2.4,0.4c-0.1,0.1,0,0.3,0.1,0.4C76.5,403.1,77.3,403.3,78,403.1z M195.4,446.4
		c-6.2,8.1-12.2,14.2-21.4,18.9c-7.6,3.9-16.1,5.7-23.8,9.2c-0.2,0.1,0,0.3,0.1,0.3c16.1-2.7,39.5-11.3,45.5-28.2
		C195.9,446.3,195.5,446.3,195.4,446.4z M198.4,438.8c-0.1-0.1-0.3-0.2-0.4,0c-0.5,0.8-0.6,1.8-0.8,2.7c-0.2,0.9-0.6,1.7-0.5,2.6
		c0,0.1,0.1,0.2,0.3,0.2C198.4,443.2,199.6,440.4,198.4,438.8z M92.7,476.2c-6.6-1.9-13.7-2.4-20.4-3.9c-8.2-1.9-15.3-5.5-22.3-10.1
		c-0.1-0.1-0.2,0.1-0.1,0.2C60,473,78.4,476.9,92.7,476.6C92.9,476.6,93,476.3,92.7,476.2z M186.3,407.4c2.1,1.8,3.7,4.1,5.5,6.2
		c0.1,0.1,0.4,0,0.3-0.2c-1.6-4.9-8-10.8-13.5-10.3c-0.1,0-0.2,0.2-0.1,0.2C181.3,404.5,183.9,405.4,186.3,407.4z M121.1,484.8
		c-1.4,1.6-2.6,3.3-4,4.8c-1.5,1.7-3.5,2.9-5.1,4.4c-0.1,0.1,0,0.3,0.1,0.3c2.2-0.2,4.1-1.7,5.6-3.2c1.8-1.7,3.2-3.6,3.7-6.1
		C121.5,484.8,121.3,484.6,121.1,484.8z M110.1,495c-0.6,0-1.3,0.4-1.5,1c-0.1,0.1,0.1,0.3,0.2,0.3c0.6,0.2,1.3-0.1,1.7-0.5
		C110.8,495.5,110.5,495,110.1,495z"/>
</g>
<g>
	<path class="st7" d="M357,482.7c-0.5-0.9-1.1-1.6-1.2-2.4c-0.8-3.8-1.6-7.6-2.3-11.4c-0.3-1.4-0.6-2.9-0.9-4.3
		c-0.1-0.5-0.1-1.2,0.2-1.5c0.9-1.1,0.6-2.2,0.3-3.3c-1-2.9-2.2-5.7-3.1-8.6c-1-3.5-1.7-7.1-2.5-10.6c-0.4-1.6-0.7-3.2-0.9-4.9
		s0.4-2.4,2.1-2.7c1-0.2,2-0.2,2.9-0.4c1.6-0.3,3.2-0.7,4.8-1.1c0.7-0.2,0.8-0.6,0.6-1.4c-0.5-1.9-0.9-3.9-1.2-5.9
		c-0.1-0.7-0.1-1.5,0.1-2.2c0.2-0.7,0.7-1.1,1.5-1.3c1.8-0.4,3.6-1,5.5-1.5c1.1-0.3,2.3-0.5,3.5-0.6c0.4-0.1,0.8-0.1,1.2-0.2
		c1.4-0.4,1.6-0.7,1.5-2.1c-0.2-1.7-0.3-3.5-0.5-5.2c0-0.2-0.1-0.5-0.2-0.6c-0.4-1.5,0.2-2.4,1.6-2.7c2.5-0.5,5.1-1,7.6-1.5
		c1.5-0.3,1.9-0.2,2.6,1.1c0.7,1.3,1.3,2.7,2,4.1c0.1,0.2,0.2,0.4,0.3,0.7c1.9-0.5,3.9-0.9,5.8-1.3c1.4-0.3,2.9-0.6,4.3-0.7
		c2.3-0.3,2.9,0.3,3.1,2.7c0,0.2,0.1,0.5,0.2,0.9c2.2,0.3,4.3-0.3,6.5-0.4c0.6-2-0.2-3.7-0.3-5.4c0-0.8-0.1-1.5-0.2-2.3
		c0-1.5,0.8-2.4,2.2-2.9c0.6-0.2,1.2-0.4,1.9-0.5c3.4-0.4,6.9-0.9,10.3-1.2c1.8-0.2,2.4,0.6,2.7,2.5c0.1,0.6,0.3,1.2,0.5,1.9
		c0.1,0.6,0.2,1.1,0.3,1.9c1.4-0.1,2.8-0.2,4.1-0.4c1.1-0.1,2.2-0.4,3.3-0.5c1.1-0.2,2.2-0.5,3.1,0.6c0.1,0.2,0.6,0.1,1.3,0.2
		c0.2,2.6,0.3,5.1,0.5,7.9c0,0,0.3,0.3,0.5,0.2c1.3-0.1,2,0.5,2.7,1.6c0.3,0.5,0.4,0.8,0.4,1.4c-0.2,2.1-0.3,4.3-0.5,6.4
		c0,0.3,0.2,0.6,0.3,0.9c0.5,0,0.8,0,1.2-0.1c1.4-0.2,1.7-0.5,1.8-1.9c0.1-1.1,0.3-2.2,0.5-3.6c-0.7-1.3,0.4-3.2,2.4-3.3
		c1.3-0.1,2.6,0,3.9,0c1.5,0.1,3,0.2,4.5,0.3c0.4,0,0.8,0.1,1.2,0.2c1.3,0.4,1.7,0.8,1.5,2.1c-0.5,3.2-0.1,6.4-0.2,9.6
		c0,1.1,0.3,2.3,0.4,3.5c0.1,0.9,0.1,1.7,0.1,2.6c-0.1,0.6-0.4,1.2-0.6,1.9c0.7,0.5,0.5,1.4,0.5,2.3c0,2.4-0.1,4.8,0.3,7.2
		c0.3,1.7,0.6,3.3,0.7,5c0.4,4.5,0.8,9,1.1,13.5c0.1,0.8-0.3,1.6-0.4,2.6c0.7,0.4,0.8,1.3,0.9,2.4c0.1,4,0.2,8,0.5,12
		c0.2,3.5,0.6,7,1,10.5c0.2,2.3,0.3,4.5,0.6,6.8c0.4,4,0.9,7.9,1.3,11.9c0.4,3.8,0.5,7.6,0.8,11.4c0.2,2.2,0.5,4.3,0.7,6.5
		c0.4,4.6,0.9,9.1,1.1,13.7c0.1,2.8,0.7,5.4,0.6,8.2c-0.1,1.8-0.6,2.9-2.2,3.6c-2.5,1.1-4.9,2.2-7.4,3.2c-2.3,0.9-4.6,1.7-6.8,2.7
		c-4.5,2-9.3,2.9-13.9,4.5c-4,1.5-8.1,1.8-12.2,2.7c-5.5,1.2-11.1,1.4-16.8,1.4c-2.4,0-4.8,0.1-7.2,0c-2.2-0.1-4.4-0.4-6.6-0.6
		c-3-0.3-5.9-0.6-8.9-1c-1-0.1-2-0.2-2.9-0.4c-1.6-0.2-2.6-1.1-2.9-2.6c-0.5-2.2-1.4-4.3-1.2-6.7c-1.3-2.4-1.4-5.2-2-7.8
		c-0.9-4.3-1.7-8.6-2.6-12.9c-0.7-3.3-1.5-6.6-2.2-10c-0.8-3.9-1.5-7.9-2.2-11.8c-0.5-2.5-1-4.9-1.5-7.4c-0.7-3.5-1.6-7-2.3-10.5
		c-0.8-3.9-1.6-7.7-2.8-11.4c-0.1-0.5-0.2-0.9-0.4-1.4C356.5,484,356.2,483.2,357,482.7z M410.2,476.3c0.8-0.2,1.8-0.2,2.7-0.5
		c1.5-0.5,3.1-0.9,4.4-1.7c2.2-1.4,2.4-0.7,1.9-3.8c-0.4-2.3-0.9-4.6-1.2-6.9c-0.5-2.9-0.7-5.7-1.2-8.6c-0.5-2.9-0.3-5.8-1.1-8.5
		c-0.1-0.2,0-0.4-0.1-0.5c-0.2-2-0.3-4.1-0.6-6.1c-0.5-3.1-1-6.1-1.5-9.2c-0.1-0.6-0.2-1.3-0.1-1.9c0.2-1.2,0-2.2-1-3.1
		c-3.4,0.6-7,0.5-10.5,1.5c0,0.5-0.1,0.9,0,1.2c0.6,4.7,1.1,9.4,1.8,14c0.5,3,0.8,6.2,1.7,9.1c0.7,2.4,1.2,4.9,1.6,7.4
		c0.3,2,0.5,4.1,0.8,6.1c0.3,2.3,0.7,4.5,0.9,6.8C408.8,473.1,408.9,474.8,410.2,476.3z M422,470.9c1.3-0.6,3.6-2.3,4.2-3.2
		c0.3-0.4,0.5-0.8,0.5-1.3c0.3-1.6,0.5-3.1,0.7-4.7c0.6-3.7,1.1-7.3,1.7-11c0.2-1.2,0.4-2.4,0.5-3.7c0.3-2.9,1.3-5.6,1.6-8.5
		c0.3-2.5,0.7-5,1-7.5c0.2-1.6,0.2-3.1,0.4-4.7c0.2-2.3,0.5-4.7,0.6-7c0.1-1.4-0.2-1.7-1.6-1.7c-2.7,0.1-5.3,0.2-7.9,0.3
		c-0.9,0-1.5,0.5-1.8,1.4c-0.9,3-1.6,6-1.8,9.1c-0.2,2.6-0.5,5.1-0.8,7.7c-0.3,2.1-0.8,4.2-0.9,6.3c-0.1,1.3-0.5,2.4-0.6,3.5
		c-0.1,1.2,0.6,2.4,0.7,3.6c0.1,0.7-0.1,1.5-0.2,2.5c0.6,0.5,0.8,1.3,0.8,2.3c0,1.3,0.1,2.6,0.3,3.8c0.7,3.9,1.4,7.8,2.1,11.8
		C421.8,470.3,421.9,470.6,422,470.9z M374.3,432c0.5,2.2,0.8,4,1.2,5.8c0.6,2.5,1.2,5,1.8,7.5c0.5,1.7,0.8,3.4,1.5,5
		c0.1,0.2,0.2,0.5,0.1,0.7c-0.4,0.9,0,1.5,0.5,2.2c0.3,0.4,0.4,1,0.6,1.5c0.6,1.7,1.2,3.5,1.8,5.3c0.7,2.2,1.5,4.3,2.1,6.5
		c0.6,2.1,1.1,4.2,1.6,6.3c0.2,0.7,0.5,1,1.1,1.2c2.2,0.9,4.6,1.5,6.9,2.1c0.5,0.1,0.9,0.1,1.5,0.2c0-0.5,0.1-0.9,0-1.3
		c-0.5-2.4-0.9-4.7-1.4-7.1c-1.3-5.7-3-11.3-3.8-17.2c-0.2-1.4-0.6-2.8-0.8-4.1c-0.5-2.7-1-5.3-1.4-8c-0.1-0.5,0-1.1,0.3-1.4
		c0.8-0.7,0.7-1.6,0.5-2.5c-0.4-1.8-0.9-3.5-1.4-5.3c-0.2-0.9-0.7-1.1-1.6-0.9c-1.3,0.3-2.7,0.6-3.9,1
		C379.1,430.1,376.7,431.1,374.3,432z M382.5,471.7c-0.4-1.4-0.6-2.5-0.9-3.5c-0.7-2.7-1.4-5.3-2.2-7.9c-0.5-1.7-1.3-3.4-1.8-5.1
		c-0.5-1.6-0.9-3.3-1.3-4.9s-1.1-3.2-1.5-4.9c-1-3.9-1.9-7.9-2.8-11.8c-0.3-1.3-0.3-2.6,0.9-3.5c0.1-0.1,0.1-0.3,0.2-0.4
		c-0.8-3-1.6-5.9-2.4-9c-4.2,0.6-8.3,1.2-12.4,2.9c0.3,1.9,0.7,3.7,0.9,5.5c0.1,1,0.2,1.9,1.3,2.5c0.4,0.2,0.6,0.9,0.7,1.4
		c0.9,2.7,1.7,5.3,2.6,8c0.7,2.4,1.5,4.8,2.2,7.2c0.6,1.9,1.2,3.9,1.8,5.8c0.4,1.2,0.9,2.4,1.2,3.6c0.3,0.9,1,1.2,1.7,1.6
		c0.5,0.2,1,0.4,1.2,0.8c0.9,1.7,2,3.1,3.2,4.6c1.4,1.6,2.1,3.9,4,5.1c0.1,0.1,0.1,0.2,0.2,0.3C380.3,470.6,381.1,471.3,382.5,471.7
		z M400.1,437.2c-3.1,0.4-6.1,0.6-9,1.1c-0.9,0.1-1.2,0.6-1,1.7c0.4,1.9,0.8,3.9,1.2,5.8c0.5,2.7,1,5.3,1.5,8c0.4,2,0.8,4.1,1.3,6.1
		c0.7,3.2,1.6,6.4,2.3,9.6c0.6,2.4,0.9,4.8,1.4,7.3c2.5,0.8,7.2,0.7,9.2-0.3c-0.2-1-0.5-2-0.6-3c-0.2-1.6-0.3-3.1-0.5-4.7
		c-0.4-2.9-1-5.7-1.3-8.5c-0.3-3.3-1.1-6.5-1.8-9.7c-0.7-2.9-1.3-5.9-1.7-8.8C400.9,440.1,400.6,438.8,400.1,437.2z M358.6,433.5
		c-2.6,0.5-5.3,1-8,1.6c-1.7,0.4-1.7,0.6-1.5,2.2c0,0.4,0.1,0.7,0.2,1c0.4,2,0.8,4,1.3,6c0.6,2.6,1.2,5.2,2,7.8
		c0.8,2.5,1.8,4.8,2.7,7.3c0.2,0.6,0.4,1.2,0.6,1.8c2.1-0.6,4-1.2,5.9-1.6c1.5-0.3,2.9-1.1,4.5-0.3c-0.1-1.1,0.1-2.3-0.3-3
		c-1.3-2.2-1.2-4.9-2.3-7.2c-1.1-2.3-1.7-4.9-2.5-7.3c-0.4-1.4-0.8-2.8-1.1-4.1c0.4-0.1,0.6-0.2,0.9-0.3
		C359.5,436.7,360,434.8,358.6,433.5z M405.4,412.6c2.4-0.1,3.1,0.6,3.4,2.9c0.1,1.1,0,2.2,0.2,3.3c0.2,1.4,0.5,2.9,0.8,4.2
		c0.1,0.3,0.6,0.5,0.9,0.8c0.7-1.3,1.9-1,2.9-1.2c1.3,1.2,1.7,2.7,2,4.2c0.4,2.6,0.7,5.2,1.2,8.2c0.3-0.6,0.4-0.8,0.4-1
		c0-4,0.8-7.8,1.5-11.7c0.2-1.5,1.2-3-0.1-4.5c-0.1-0.1,0.1-0.5,0.1-0.7c0-0.7,0-1.4-0.1-2.1c-0.3-2.4-0.7-4.9-1-7.3
		c-0.2-1.3-0.5-2.6-0.7-4.1c-0.5,0-1-0.1-1.4-0.1c-1.7,0.2-3.5,0.4-5.2,0.6c-1.2,0.2-2.5,0.3-3.7,0.5c-1.7,0.3-1.9,0.5-1.8,2.2
		C404.8,408.7,405.1,410.5,405.4,412.6z M442.7,427.3c-2.4,0.3-4.6,0.6-6.9,0.9c-0.8,0.1-1,0.8-1.1,1.4c-0.2,1.5-0.4,3-0.6,4.5
		c-0.3,2.3-0.6,4.6-1,6.9c-0.5,2.8-1.1,5.6-1.6,8.5c-0.3,1.6-0.4,3.1-0.6,4.7c-0.1,0.7-0.4,1.5-0.5,2.2c-0.3,1.6-0.5,3.1-0.6,4.7
		c-0.1,0.9-0.1,1.8-0.3,3.1c0.6-0.5,1-0.7,1.1-0.9c1.2-2.8,2.6-5.4,3.1-8.4c0.4-1.9,0.8-3.9,1.4-5.8c0.3-1.1,0.9-2.1,2.4-2.2
		c1.3,0,2.6-0.2,3.8-0.5c0.4-0.1,0.9-0.5,1-0.7c0.3-2.2,0.6-4.3,0.5-6.5c-0.1-2,0.2-4,0.2-6C443.1,431.4,443.4,429.5,442.7,427.3z
		 M381.8,415.2c0.4,1.4,0.6,2.6,1,3.8c0.6,2,1.3,4,1.9,6c0.3,0.8,0.7,0.9,1.5,0.8c1.7-0.3,2.7,0.3,3.1,2c0.3,1.1,0.6,2.2,0.7,3.3
		c0.1,0.4-0.2,0.8-0.3,1.2c0.3,0.5,0.7,0.9,0.9,1.5c0.2,0.5,0.2,1.1,0.3,1.7c1.4,0.6,2.6-0.2,4.1-0.2c-0.1-2-0.2-3.8-0.3-5.7
		c-0.1-1.1-0.1-2.2-0.3-3.3c-0.6-3.2-1.3-6.4-1.9-9.6c-0.1-0.4,0.1-1,0.4-1.3c1-0.9,0.8-1.8,0.3-2.9
		C389.3,413.2,385.5,413.6,381.8,415.2z M440.9,424.8c0.6,0,1,0.1,1.4,0.1c2.1,0,3,0.8,3.1,2.9c0.1,1.4,0.2,2.8,0.1,4.2
		c-0.2,4-0.4,7.9-0.6,11.9c0,0.6-0.1,1.2-0.2,2.1c1.9-0.3,3.6-0.5,5.3-0.7c0.3-8.5-0.1-16.9-0.4-25.5c-2.4-0.6-5-0.5-7.6-0.4
		c-0.7,0-1.1,0.4-1.1,1.1C441,421.8,441,423.2,440.9,424.8z M382.5,426.3c-0.7-2.4-1.2-4.7-2.1-6.8c-0.3-0.8-0.1-1.4-0.2-2.1
		s-0.6-1.4-0.8-2.1c-0.1-0.5,0.2-1,0.2-1.5c0.1-0.5,0.3-1,0.1-1.5c-0.4-1.1-0.9-2.2-1.5-3.5c-2.2,0.2-4.4,0.2-6.4,1
		c-0.8,0.4-1.1,0.9-1,1.8c0.2,1.6,0.3,3.3,0.6,4.9c0.1,0.9,0.1,1.9,1.2,2.4c0.2,0.1,0.4,0.6,0.5,0.9c0.3,1.4,0.6,2.8,1,4.1
		c0.4,1.7,1,3.2,1.9,4.7C378,427.9,380.1,427.1,382.5,426.3z M399.8,434.6c0.1-0.3,0.3-0.6,0.2-0.9c-0.2-2.1-0.5-4.3-0.8-6.4
		c-0.3-1.9,0.5-2.9,2.5-3.1c1.8-0.2,3.6-0.5,5.6-0.7c-0.3-2.4-0.6-4.7-0.9-7.1c-0.2-1.2-0.4-1.3-1.6-1.1c-1.9,0.3-3.9,0.7-5.9,0.8
		c-1.5,0-2.9,0.3-4,1.4c1.1,5.7,2.7,11.3,2.4,17.4C398.2,434.8,399,434.7,399.8,434.6z M428.9,408.8c-3,0.4-5.7,0.7-8.7,1.1
		c0.3,2,0.5,3.9,0.8,6c2.7-0.2,5.4-0.4,8-0.5C430,413,429.6,411,428.9,408.8z M361.8,420.8c0,0.1,0,0.3,0,0.4c0.3,0,0.6-0.1,1-0.1
		c0-0.1,0-0.2,0-0.3C362.5,420.8,362.2,420.8,361.8,420.8z M383.4,567.2c-0.1,0.1-0.1,0.3-0.1,0.4c0.3,0.1,0.6,0.2,1,0.2
		c0-0.1,0-0.1,0.1-0.2C384,567.4,383.7,567.3,383.4,567.2z M363.7,420.6c0,0.2,0.1,0.3,0.1,0.5c0.3-0.1,0.5-0.2,0.8-0.3
		c0,0-0.1-0.3-0.1-0.3C364.2,420.5,363.9,420.6,363.7,420.6z"/>
</g>
<g>
	<g>
		<circle class="st0" cx="413.9" cy="521.4" r="32.9"/>
		<path d="M413.9,555.4c-17.6,0-32.5-13.5-34-31.3c-1.5-18.7,12.5-35.2,31.2-36.7c18.7-1.5,35.2,12.5,36.7,31.2l0,0
			c0.7,9.1-2.1,17.9-8,24.8c-5.9,6.9-14.1,11.2-23.2,11.9C415.7,555.4,414.8,555.4,413.9,555.4z M413.9,489.6c-0.8,0-1.7,0-2.6,0.1
			c-17.4,1.4-30.5,16.8-29,34.2c1.4,17.4,16.7,30.5,34.2,29c8.4-0.7,16.1-4.6,21.6-11.1c5.5-6.4,8.1-14.6,7.5-23.1l0,0
			C444.1,502.2,430.2,489.6,413.9,489.6z"/>
	</g>
	<g>
		<g>
			<path d="M403.1,519.8c0.1,1.2,0.2,2.4,0.3,3.6c0,0.3,0,0.4-0.3,0.4c-1.2,0.1-2.4,0.2-3.6,0.3c-0.3,0-0.3-0.1-0.4-0.3
				c-0.2-3.8-0.5-7.6-0.9-11.4c0-0.2,0-0.3,0.3-0.3c1.7-0.1,3.5-0.3,5.3-0.4c0.5,0,0.9,0,1.4,0.1c1.3,0.3,2.1,1.2,2.3,2.5
				c0.1,0.8,0.2,1.7-0.1,2.5c-0.3,0.8-0.9,1.3-1.8,1.5c-0.4,0.1-0.4,0.2-0.2,0.4c0.5,0.9,1.4,1.2,2.5,1c0.3,0,0.4,0,0.4,0.3
				c0.1,1.1,0.2,2.1,0.4,3.2c0,0.3-0.1,0.4-0.3,0.5c-2.2,0.6-3.8,0-4.7-2.4C403.4,520.8,403.3,520.3,403.1,519.8
				C403.1,519.8,403.1,519.8,403.1,519.8z M402.8,516.5c0,0.3,0,0.6,0.1,0.8c0,0.1-0.1,0.4,0.2,0.4c0.2,0,0.5,0,0.5-0.3
				c0.1-0.6,0-1.3-0.2-1.9c-0.1-0.3-0.4-0.2-0.6-0.2c-0.3,0-0.1,0.2-0.1,0.3C402.7,515.9,402.7,516.2,402.8,516.5z"/>
			<path d="M412.9,510.7c0.7-0.1,1.5-0.1,2.2,0.1c1.4,0.4,2.1,1.4,2.5,2.7c0.7,2.1,0.9,4.3,0.4,6.6c-0.4,1.8-1.7,2.9-3.6,3.1
				c-0.7,0.1-1.4,0.2-2.1,0.1c-1.6-0.3-2.6-1.2-3.1-2.7c-0.7-2.1-0.9-4.3-0.5-6.5c0.3-1.9,1.7-3.1,3.6-3.3
				C412.5,510.7,412.7,510.7,412.9,510.7z M412.9,517.1c0.1,0.7,0.1,1.4,0.3,2.1c0.1,0.3,0.1,0.5,0.5,0.5s0.4-0.3,0.4-0.6
				c0-1.4-0.1-2.7-0.3-4c0-0.3-0.1-0.5-0.5-0.5c-0.3,0-0.4,0.3-0.4,0.5C412.7,515.7,412.9,516.4,412.9,517.1z"/>
			<path d="M423.4,509.9c1.1-0.1,2.1-0.1,3.2,0c0.3,0,0.5,0.1,0.5,0.5c0,0.9,0,1.8,0.1,2.8c0,0.3,0,0.4-0.4,0.3
				c-0.8-0.2-1.6-0.3-2.3-0.3c-0.2,0-0.4,0-0.6,0.1c-0.5,0.2-0.6,0.6-0.3,1c0.3,0.3,0.6,0.5,0.9,0.6c0.7,0.4,1.4,0.8,2.1,1.3
				c1.9,1.6,1.9,4.9-1.1,6c-1.4,0.5-2.9,0.4-4.4,0.2c-0.4-0.1-0.8-0.2-1.2-0.2c-0.2,0-0.3-0.1-0.3-0.4c0-1,0-2,0-3
				c0-0.3,0.1-0.4,0.4-0.2c0.8,0.3,1.7,0.6,2.6,0.5c0.3,0,0.6-0.1,0.7-0.4c0.1-0.4-0.1-0.6-0.4-0.7c-0.6-0.4-1.2-0.7-1.8-1
				c-0.8-0.5-1.6-1-2-1.8c-1.1-1.9-0.1-4.1,2.1-4.8C421.9,510,422.6,509.9,423.4,509.9z"/>
			<path d="M428.5,517.6c0.6,0.3,1.3,0.5,1.9,0.6c0.3,0.1,0.6,0.1,1,0.1c0.3,0,0.7-0.1,0.8-0.4c0.1-0.4-0.2-0.6-0.5-0.8
				c-0.5-0.3-1-0.6-1.5-0.8c-0.7-0.4-1.4-0.8-1.9-1.4c-1.6-1.9-0.7-4.5,1.7-5.3c1.5-0.5,2.9-0.5,4.4-0.4c0.3,0,0.7,0.1,1,0
				c0.4,0,0.5,0.1,0.5,0.5c0,0.8,0,1.7,0,2.6c0,0.6,0.1,0.6-0.6,0.4c-0.7-0.1-1.4-0.3-2.2-0.2c-0.2,0-0.3,0-0.5,0.1
				c-0.5,0.2-0.6,0.6-0.3,1c0.3,0.3,0.6,0.5,1,0.7c0.7,0.4,1.4,0.7,1.9,1.2c2.2,1.9,1.6,5-1.1,6c-1.4,0.5-2.9,0.4-4.4,0.2
				c-0.4-0.1-0.8-0.2-1.3-0.2c-0.2,0-0.3-0.1-0.3-0.3C428.4,519.9,428.5,518.8,428.5,517.6z"/>
			<path d="M394.8,512.2c0.9-0.1,1.7,0,2.5,0.1c0.3,0,0.4,0.1,0.4,0.4c0,0.9-0.1,1.8-0.1,2.7c0,0.3-0.1,0.3-0.4,0.3
				c-0.7-0.2-1.5-0.2-2.1,0.1c-0.3,0.1-0.6,0.3-0.8,0.5c-0.8,0.8-1,2.7-0.3,3.9c0.5,0.9,1.7,1.3,2.9,1c0.2,0,0.3-0.1,0.5-0.2
				c0.6-0.2,0.5-0.2,0.6,0.4c0.1,0.7,0.3,1.5,0.4,2.2c0.1,0.2,0,0.4-0.2,0.5c-2,1-4.1,1.2-6.2,0.3c-1.1-0.5-1.8-1.5-2.3-2.6
				c-0.6-1.8-0.8-3.6-0.3-5.4c0.6-2.2,2.3-3.7,4.7-4C394.4,512.2,394.6,512.2,394.8,512.2z"/>
		</g>
		<g>
			<path d="M394.9,533.3c0.1,1.2,0.2,2.4,0.3,3.6c0,0.3,0,0.4-0.3,0.4c-1.2,0.1-2.4,0.2-3.5,0.3c-0.3,0-0.4-0.1-0.4-0.3
				c-0.2-3.8-0.5-7.6-0.9-11.3c0-0.3,0.1-0.4,0.3-0.4c1.7-0.1,3.4-0.3,5.1-0.4c0.5,0,1,0,1.6,0.1c1.1,0.2,1.8,0.9,2.1,2
				c0.3,1,0.4,2,0,2.9c-0.3,0.8-0.9,1.4-1.8,1.5c-0.3,0-0.4,0.1-0.2,0.4c0.5,0.9,1.4,1.3,2.5,1.1c0.3-0.1,0.3,0,0.4,0.3
				c0.1,1,0.2,2.1,0.3,3.1c0,0.3-0.1,0.5-0.4,0.5c-2.2,0.6-3.8,0-4.7-2.4C395.1,534.2,395,533.7,394.9,533.3
				C394.9,533.3,394.9,533.3,394.9,533.3z M394.5,529.9c0,0.3,0,0.6,0.1,0.8c0,0.1-0.1,0.4,0.2,0.4c0.2,0,0.5,0,0.5-0.3
				c0.1-0.6,0-1.2-0.2-1.8c-0.1-0.3-0.4-0.2-0.6-0.2c-0.3,0-0.2,0.2-0.1,0.4C394.5,529.3,394.5,529.6,394.5,529.9z"/>
			<path d="M404.7,524.1c0.7-0.1,1.4-0.1,2.1,0.1c1.3,0.4,2.1,1.3,2.5,2.5c0.8,2.4,1.1,4.8,0.4,7.2c-0.5,1.6-1.6,2.5-3.3,2.7
				c-0.7,0.1-1.5,0.2-2.3,0.1c-1.6-0.2-2.6-1.2-3.1-2.6c-0.8-2-1-4.2-0.6-6.4c0.4-2.3,1.6-3.4,4-3.6
				C404.5,524.1,404.6,524.1,404.7,524.1z M404.6,530.5c0.1,0.7,0.1,1.4,0.3,2.1c0.1,0.3,0.1,0.5,0.5,0.5s0.4-0.3,0.4-0.6
				c0-1.4-0.1-2.7-0.3-4.1c0-0.3-0.1-0.5-0.5-0.5s-0.4,0.3-0.4,0.5C404.5,529.1,404.6,529.8,404.6,530.5z"/>
			<path d="M421,529.1c-0.2-1.8-0.3-3.7-0.5-5.5c0-0.4,0.1-0.5,0.5-0.5c1.3-0.1,2.7-0.2,4-0.3c2.5-0.2,3.9,0.6,4.7,2.9
				c0.7,2,0.9,4.2,0.2,6.3c-0.5,1.6-1.6,2.6-3.3,2.8c-1.6,0.2-3.2,0.3-4.8,0.4c-0.3,0-0.3-0.1-0.3-0.3
				C421.3,532.9,421.2,531,421,529.1L421,529.1z M425.2,528.8L425.2,528.8c0.1,0.8,0.1,1.5,0.2,2.3c0,0.3,0.1,0.3,0.3,0.2
				c0.3-0.1,0.4-0.4,0.4-0.7c0-1.3-0.1-2.6-0.3-3.8c0-0.2-0.1-0.4-0.2-0.5c-0.1-0.1-0.3-0.2-0.5-0.1c-0.2,0.1-0.1,0.2-0.1,0.3
				C425.1,527.3,425.2,528.1,425.2,528.8z"/>
			<path d="M414.7,523.6c0.9-0.1,1.9-0.1,2.9-0.2c0.3,0,0.4,0.1,0.5,0.4c0.8,3.6,1.7,7.1,2.7,10.6c0.3,0.9,0.3,0.9-0.7,1
				c-1.1,0.1-2.2,0.2-3.3,0.3c-0.3,0-0.4-0.1-0.4-0.3c-0.1-0.5-0.2-0.9-0.2-1.4c0-0.3-0.1-0.4-0.4-0.4c-0.9,0.1-0.9,0.1-0.9,0.9
				c0,0,0,0.1,0,0.1c0,0.4,0.2,0.9-0.1,1.1c-0.3,0.2-0.7,0.1-1.1,0.2c-0.8,0.1-1.7,0.1-2.6,0.2c-0.6,0-0.6,0-0.5-0.5
				c0.3-1.9,0.5-3.8,0.6-5.8c0.2-1.8,0.3-3.7,0.4-5.5c0-0.3,0.1-0.4,0.4-0.4C412.8,523.7,413.8,523.6,414.7,523.6z M414.9,526.9
				c-0.2,0.3-0.1,0.7-0.1,1c0,0.8,0,1.7,0,2.5c0,0.2,0.1,0.2,0.3,0.2c0.2,0,0.5,0.1,0.4-0.2C415.3,529.2,415.1,528,414.9,526.9z"/>
			<path d="M431,530.2c0.6,0.3,1.3,0.5,1.9,0.6c0.4,0.1,0.8,0.1,1.3,0c0.2,0,0.4-0.1,0.5-0.4c0.1-0.2,0-0.4-0.2-0.6
				c-0.3-0.3-0.7-0.5-1.1-0.7c-0.7-0.4-1.4-0.7-2-1.2c-1-0.8-1.5-1.9-1.3-3.3c0.2-1.4,1.2-2.2,2.5-2.6c1.4-0.5,2.9-0.5,4.4-0.4
				c0.4,0,0.7,0,1.1,0.1c0.2,0,0.3,0.1,0.3,0.3c0,1,0,2,0.1,3c0,0.2-0.1,0.2-0.3,0.2c-0.6-0.2-1.3-0.3-2-0.3c-0.3,0-0.5,0-0.7,0
				c-0.3,0-0.6,0.2-0.7,0.5c-0.1,0.3,0.1,0.6,0.3,0.7c0.5,0.4,1.1,0.6,1.6,1c0.6,0.4,1.3,0.8,1.7,1.4c1.5,1.9,0.7,4.5-1.6,5.3
				c-1.5,0.6-3,0.5-4.5,0.3c-0.4-0.1-0.8-0.2-1.2-0.2c-0.3,0-0.4-0.2-0.4-0.5C431,532.4,431,531.3,431,530.2z"/>
		</g>
	</g>
	<path d="M413.9,552.1c-15.8,0-29.4-12.2-30.7-28.3c-1.4-16.9,11.3-31.8,28.2-33.1c16.9-1.4,31.8,11.3,33.1,28.2l0,0
		c1.4,16.9-11.3,31.8-28.2,33.1C415.5,552.1,414.7,552.1,413.9,552.1z M413.9,491.5c-0.8,0-1.6,0-2.4,0.1
		c-16.4,1.3-28.7,15.8-27.4,32.2c1.3,16.4,15.8,28.7,32.2,27.4s28.7-15.8,27.4-32.2l0,0C442.4,503.3,429.3,491.5,413.9,491.5z"/>
	<g>
		<g>
			<path d="M403.8,507.9c0.1,0.1,0.2,0.1,0.3,0.1l7.1-1l0.8,5.6l0.7-0.1l-0.8-5.6l1.8-0.3l0.8,5.6l0.7-0.1l-0.8-5.6l7.5-1.1
				c0.2,0,0.3-0.2,0.3-0.4l-1.2-8.2c0-0.2-0.2-0.3-0.4-0.3l-7.5,1.1l-0.3-1.7l7.3-1c0.1,0,0.2-0.1,0.3-0.2l3.3-4.7
				c0.1-0.2,0.1-0.4-0.1-0.5l-4.5-3.5c-0.1-0.1-0.2-0.1-0.3-0.1l-7.3,1l-0.1-0.9c-0.1-0.8-0.9-1.5-1.8-1.3l-0.2,0
				c-0.8,0.1-1.5,0.9-1.3,1.8l0.1,0.9l-7.3,1c-0.2,0-0.3,0.2-0.3,0.4l1.2,8.2c0,0.2,0.2,0.3,0.4,0.3l7.3-1l0.3,1.7l-7.1,1
				c-0.1,0-0.2,0.1-0.3,0.2l-3.3,4.7c-0.1,0.2-0.1,0.4,0.1,0.5L403.8,507.9z M409.7,485.4l0.2,0c0.5-0.1,0.9,0.3,0.9,0.7l0.1,0.9
				l-1.8,0.3l-0.1-0.9C408.9,485.8,409.2,485.4,409.7,485.4z M412.2,495.9l0.3,1.7l-1.8,0.3l-0.3-1.7L412.2,495.9z"/>
			<polygon class="st0" points="402.6,496.5 401.5,489.1 418.9,486.6 423,489.8 419.9,494 			"/>
			<polygon class="st0" points="403,499.7 420.4,497.2 421.5,504.7 404.1,507.2 400,504 			"/>
		</g>
		<g>
			<path d="M404.1,491l0.1,0.9l1.6-0.2l0.1,0.6l-1.6,0.2l0.2,1.3l-0.8,0.1l-0.4-3.5l2.6-0.3l0.1,0.6L404.1,491z"/>
			<path d="M407.4,493.2c-0.3-0.1-0.6-0.3-0.7-0.6c-0.2-0.3-0.3-0.6-0.4-0.9c0-0.3,0-0.6,0.1-0.9c0.1-0.3,0.3-0.5,0.6-0.7
				c0.3-0.2,0.6-0.3,0.9-0.4c0.4,0,0.7,0,1,0.1c0.3,0.1,0.6,0.3,0.7,0.6c0.2,0.3,0.3,0.6,0.4,0.9c0,0.3,0,0.6-0.1,0.9
				s-0.3,0.5-0.6,0.7c-0.3,0.2-0.6,0.3-0.9,0.4C408.1,493.4,407.8,493.4,407.4,493.2z M408.9,492.5c0.2-0.1,0.3-0.3,0.4-0.5
				c0.1-0.2,0.1-0.4,0.1-0.6c0-0.2-0.1-0.4-0.2-0.6c-0.1-0.2-0.3-0.3-0.4-0.4c-0.2-0.1-0.4-0.1-0.6-0.1c-0.2,0-0.4,0.1-0.6,0.2
				c-0.2,0.1-0.3,0.3-0.4,0.5c-0.1,0.2-0.1,0.4-0.1,0.6c0,0.2,0.1,0.4,0.2,0.6s0.3,0.3,0.4,0.4c0.2,0.1,0.4,0.1,0.6,0.1
				C408.6,492.7,408.7,492.6,408.9,492.5z"/>
			<path d="M411.6,492.7c-0.3-0.1-0.6-0.3-0.7-0.6c-0.2-0.3-0.3-0.6-0.4-0.9c0-0.3,0-0.6,0.1-0.9c0.1-0.3,0.3-0.5,0.6-0.7
				c0.3-0.2,0.6-0.3,0.9-0.4c0.4,0,0.7,0,1,0.1c0.3,0.1,0.6,0.3,0.7,0.6c0.2,0.3,0.3,0.6,0.4,0.9c0,0.3,0,0.6-0.1,0.9
				c-0.1,0.3-0.3,0.5-0.6,0.7c-0.3,0.2-0.6,0.3-0.9,0.4C412.3,492.9,411.9,492.8,411.6,492.7z M413.1,491.9c0.2-0.1,0.3-0.3,0.4-0.5
				c0.1-0.2,0.1-0.4,0.1-0.6c0-0.2-0.1-0.4-0.2-0.6c-0.1-0.2-0.3-0.3-0.4-0.4c-0.2-0.1-0.4-0.1-0.6-0.1c-0.2,0-0.4,0.1-0.6,0.2
				c-0.2,0.1-0.3,0.3-0.4,0.5c-0.1,0.2-0.1,0.4-0.1,0.6s0.1,0.4,0.2,0.6c0.1,0.2,0.3,0.3,0.4,0.4c0.2,0.1,0.4,0.1,0.6,0.1
				C412.7,492.1,412.9,492.1,413.1,491.9z"/>
			<path d="M414.7,489l1.6-0.2c0.4,0,0.7,0,1,0.1c0.3,0.1,0.6,0.3,0.7,0.5c0.2,0.2,0.3,0.6,0.4,0.9c0,0.4,0,0.6-0.1,0.9
				c-0.1,0.3-0.3,0.5-0.6,0.7c-0.3,0.2-0.6,0.3-1,0.3l-1.6,0.2L414.7,489z M416.6,491.6c0.4,0,0.6-0.2,0.8-0.4s0.3-0.5,0.2-0.8
				c0-0.3-0.2-0.6-0.4-0.7c-0.2-0.2-0.5-0.2-0.9-0.2l-0.7,0.1l0.3,2.1L416.6,491.6z"/>
		</g>
		<g>
			<path d="M405.8,504.9l-0.5-0.3c-0.3,0.3-0.6,0.5-1.1,0.6c-0.3,0-0.5,0-0.7,0c-0.2-0.1-0.4-0.1-0.5-0.3c-0.1-0.1-0.2-0.3-0.2-0.5
				c0-0.2,0-0.4,0.1-0.6c0.1-0.2,0.3-0.4,0.5-0.6c-0.1-0.1-0.3-0.2-0.3-0.3s-0.1-0.2-0.1-0.4c0-0.2,0-0.3,0.1-0.5s0.2-0.3,0.3-0.4
				c0.2-0.1,0.3-0.2,0.6-0.2c0.3,0,0.6,0,0.7,0.1c0.2,0.1,0.3,0.3,0.4,0.6c0,0.2,0,0.4-0.1,0.5c-0.1,0.2-0.2,0.3-0.5,0.5l0.7,0.5
				c0.1-0.2,0.1-0.4,0.1-0.6l0.6,0.1c0,0.3-0.1,0.6-0.2,0.8l0.5,0.3L405.8,504.9z M404.8,504.2l-0.9-0.7c-0.1,0.1-0.2,0.2-0.3,0.3
				c-0.1,0.1-0.1,0.2-0.1,0.3c0,0.1,0.1,0.2,0.2,0.3c0.1,0.1,0.3,0.1,0.5,0.1C404.5,504.4,404.7,504.3,404.8,504.2z M403.7,502.1
				c-0.1,0.1-0.1,0.2-0.1,0.2c0,0.1,0,0.1,0.1,0.2c0,0.1,0.1,0.1,0.3,0.2c0.2-0.1,0.3-0.2,0.3-0.3c0.1-0.1,0.1-0.2,0.1-0.3
				c0-0.1-0.1-0.2-0.1-0.2c-0.1,0-0.2-0.1-0.3,0C403.9,502,403.8,502.1,403.7,502.1z"/>
			<path d="M408.5,501.6l-1.1,0.2l-0.1-0.6l3-0.4l0.1,0.6l-1.1,0.2l0.4,2.8l-0.8,0.1L408.5,501.6z"/>
			<path d="M413.8,503.1l0.1,0.6l-2.7,0.4l-0.5-3.5l2.6-0.4l0.1,0.6l-1.8,0.3l0.1,0.7l1.6-0.2l0.1,0.6l-1.6,0.2l0.1,0.8L413.8,503.1
				z"/>
			<path d="M417.1,502.6l0.1,0.6l-2.7,0.4l-0.5-3.5l2.6-0.4l0.1,0.6l-1.8,0.3l0.1,0.7l1.6-0.2l0.1,0.6l-1.6,0.2l0.1,0.8L417.1,502.6
				z"/>
			<path d="M418.2,503.1c-0.3,0-0.5-0.1-0.6-0.2l0.2-0.6c0.2,0.1,0.4,0.2,0.6,0.2c0.2,0,0.4,0,0.6,0c0.2,0,0.4-0.1,0.5-0.2
				c0.1-0.1,0.1-0.2,0.1-0.3s-0.1-0.2-0.1-0.2c-0.1,0-0.2-0.1-0.3-0.1c-0.1,0-0.3,0-0.4-0.1c-0.3,0-0.5-0.1-0.7-0.1
				c-0.2,0-0.3-0.1-0.5-0.2c-0.1-0.1-0.2-0.3-0.3-0.5c0-0.2,0-0.4,0.1-0.6c0.1-0.2,0.2-0.3,0.5-0.5c0.2-0.1,0.5-0.2,0.8-0.3
				c0.2,0,0.5,0,0.6,0c0.2,0,0.4,0.1,0.6,0.2l-0.2,0.6c-0.4-0.1-0.7-0.2-1-0.1c-0.2,0-0.4,0.1-0.5,0.2c-0.1,0.1-0.1,0.2-0.1,0.3
				c0,0.1,0.1,0.2,0.2,0.2c0.1,0,0.3,0.1,0.6,0.1c0.3,0,0.5,0.1,0.7,0.1c0.2,0,0.3,0.1,0.5,0.2c0.1,0.1,0.2,0.3,0.3,0.5
				c0,0.2,0,0.4-0.1,0.6c-0.1,0.2-0.2,0.3-0.5,0.5c-0.2,0.1-0.5,0.2-0.8,0.3C418.7,503.1,418.4,503.1,418.2,503.1z"/>
		</g>
	</g>
	<g>
		<path d="M406.7,546l-0.2,0.6l-2.5-0.9l1.2-3.3l2.5,0.9l-0.2,0.6l-1.7-0.6l-0.3,0.7l1.5,0.6l-0.2,0.6l-1.5-0.6l-0.3,0.7L406.7,546z
			"/>
		<path d="M407.8,546.9c-0.2-0.1-0.4-0.3-0.6-0.4l0.4-0.6c0.1,0.1,0.3,0.3,0.5,0.4c0.2,0.1,0.4,0.2,0.6,0.2c0.2,0.1,0.4,0.1,0.5,0
			c0.1,0,0.2-0.1,0.2-0.2c0-0.1,0-0.2-0.1-0.2c-0.1-0.1-0.1-0.1-0.2-0.2c-0.1-0.1-0.2-0.1-0.4-0.2c-0.3-0.1-0.5-0.2-0.6-0.3
			c-0.2-0.1-0.3-0.2-0.4-0.4c-0.1-0.2-0.1-0.4-0.1-0.6c0-0.2,0.1-0.4,0.3-0.5c0.1-0.1,0.3-0.2,0.6-0.3c0.2,0,0.5,0,0.8,0
			c0.2,0,0.4,0.1,0.6,0.2c0.2,0.1,0.4,0.2,0.5,0.4l-0.4,0.6c-0.3-0.3-0.6-0.4-0.9-0.5c-0.2,0-0.4,0-0.5,0c-0.1,0.1-0.2,0.1-0.2,0.3
			c0,0.1,0,0.2,0.1,0.3c0.1,0.1,0.3,0.2,0.5,0.3c0.3,0.1,0.5,0.2,0.6,0.3c0.2,0.1,0.3,0.2,0.4,0.4c0.1,0.2,0.1,0.4,0.1,0.6
			c0,0.2-0.1,0.4-0.3,0.5c-0.1,0.1-0.3,0.2-0.6,0.3c-0.2,0-0.5,0-0.8,0C408.2,547.1,408,547,407.8,546.9z"/>
		<path d="M411.7,544.8l-1.1-0.1l0.1-0.6l3,0.3l-0.1,0.6l-1.1-0.1l-0.3,2.8l-0.8-0.1L411.7,544.8z"/>
		<path d="M413.7,547.6c-0.1-0.1-0.1-0.2-0.1-0.4c0-0.1,0-0.3,0.1-0.4c0.1-0.1,0.2-0.1,0.4-0.1c0.1,0,0.3,0,0.4,0.1
			c0.1,0.1,0.1,0.2,0.1,0.4c0,0.1-0.1,0.3-0.1,0.4c-0.1,0.1-0.2,0.1-0.4,0.1C413.9,547.8,413.8,547.7,413.7,547.6z"/>
		<path d="M419.1,546.7l0.1,0.6l-2.6,0.4l-0.1-0.5l1.2-1.5c0.1-0.2,0.2-0.3,0.2-0.4c0-0.1,0-0.2,0-0.3c0-0.1-0.1-0.2-0.2-0.3
			c-0.1-0.1-0.3-0.1-0.4-0.1c-0.2,0-0.3,0.1-0.4,0.1c-0.1,0.1-0.2,0.2-0.3,0.3l-0.6-0.3c0.1-0.2,0.3-0.4,0.5-0.6
			c0.2-0.2,0.5-0.2,0.8-0.3c0.3,0,0.5,0,0.7,0c0.2,0.1,0.4,0.2,0.5,0.3c0.1,0.1,0.2,0.3,0.2,0.5c0,0.2,0,0.4,0,0.6
			c-0.1,0.2-0.2,0.4-0.4,0.6l-0.7,0.9L419.1,546.7z"/>
		<path d="M420.5,546.9c-0.3-0.1-0.5-0.2-0.7-0.5c-0.2-0.2-0.4-0.5-0.5-0.9c-0.1-0.4-0.1-0.7-0.1-1c0.1-0.3,0.2-0.6,0.4-0.7
			c0.2-0.2,0.4-0.3,0.7-0.4c0.3-0.1,0.6-0.1,0.8,0c0.3,0.1,0.5,0.2,0.7,0.5c0.2,0.2,0.4,0.5,0.5,0.9c0.1,0.4,0.1,0.7,0.1,1
			c-0.1,0.3-0.2,0.6-0.4,0.7s-0.4,0.3-0.7,0.4C421,546.9,420.7,546.9,420.5,546.9z M421.5,545.8c0.1-0.2,0.1-0.5-0.1-0.9
			c-0.1-0.4-0.2-0.6-0.4-0.8c-0.2-0.1-0.4-0.2-0.6-0.1c-0.2,0.1-0.3,0.2-0.4,0.4c-0.1,0.2-0.1,0.5,0.1,0.9c0.1,0.4,0.2,0.6,0.4,0.8
			c0.2,0.1,0.4,0.2,0.6,0.1C421.3,546.1,421.4,546,421.5,545.8z"/>
		<path d="M425.4,544.6l0.3,0.6l-2.4,1l-0.2-0.5l0.7-1.7c0.1-0.2,0.1-0.3,0.1-0.4s0-0.2,0-0.3c-0.1-0.1-0.1-0.2-0.3-0.2
			s-0.3,0-0.4,0.1c-0.1,0.1-0.3,0.1-0.4,0.2c-0.1,0.1-0.2,0.2-0.2,0.4l-0.7-0.1c0-0.2,0.2-0.5,0.3-0.6s0.4-0.4,0.7-0.5
			c0.2-0.1,0.5-0.2,0.7-0.2c0.2,0,0.4,0.1,0.6,0.2c0.2,0.1,0.3,0.3,0.4,0.5c0.1,0.2,0.1,0.4,0.1,0.6s-0.1,0.4-0.2,0.7l-0.5,1
			L425.4,544.6z"/>
		<path d="M428.2,543l0.3,0.6l-2.3,1.3l-0.3-0.5l0.6-1.8c0.1-0.2,0.1-0.3,0.1-0.5c0-0.1,0-0.2-0.1-0.3c-0.1-0.1-0.2-0.2-0.3-0.2
			c-0.1,0-0.3,0-0.4,0.1c-0.1,0.1-0.2,0.2-0.3,0.3c-0.1,0.1-0.1,0.2-0.1,0.4l-0.7,0c0-0.3,0.1-0.5,0.3-0.7c0.2-0.2,0.4-0.4,0.6-0.6
			c0.2-0.1,0.5-0.2,0.6-0.2c0.2,0,0.4,0,0.6,0.1c0.2,0.1,0.3,0.2,0.4,0.4c0.1,0.2,0.2,0.3,0.2,0.5s0,0.4-0.1,0.7l-0.3,1.1L428.2,543
			z"/>
	</g>
</g>
<g>
	<g>
		<path d="M545.3,448.6c2.2,1.2,4.3,2.4,6.4,3.5c6.3,3.2,11.8,7.4,17,12.2c3.5,3.2,4,7.5,1.3,11.3c-0.4,0.5-1.3,0.8-1.9,0.8
			c-1.6-0.1-2.3,0.8-2.9,2.1c-3.1,6.4-6.1,12.8-9.6,19c-6.6,12.1-12.7,24.5-20.2,36.1c-5.6,8.7-11.2,17.4-16.8,26.1
			c-0.7,1.2-1.5,2.4-2.4,3.4c-0.6,0.6-1.4,1.3-2.2,1.5c-3.2,0.8-6.4,1.2-9.7,0.6c-10.6-2.1-20-6.6-27.9-13.9
			c-1.7-1.6-2.9-3.8-4.2-5.8c-0.9-1.4-0.9-3-0.1-4.6c6.8-14.2,11.6-29.1,16.6-44c4.5-13.4,9.3-26.8,13.9-40.2
			c0.6-1.8,1.4-3.7,2.1-5.5c0.6-1.7,1.3-3.2,0-5c-0.4-0.5-0.3-1.5,0-2.1c1.1-2.9,4.2-5,7.4-4.9c5.6,0.1,11.1,1,16.5,2.7
			c3.1,1,6.1,2.2,9.2,3.3c0.7,0.3,1.4,0.5,2.3,0.8c0.9-1.8,1.9-3.5,2.7-5.3c4.2-9.2,8.4-18.5,12.6-27.8c0.3-0.6,0.6-1.2,0.8-1.8
			c1.3-3.1,1.8-6.3,0.4-9.5c-1.8-4.1-3.6-8.2-5.4-12.3c-0.5-1-1-2-1.4-3c-0.7-1.8-0.3-2.8,1.4-3.7c1.4-0.7,2.2-0.6,3.3,1
			c1.3,1.9,2.7,3.9,3.6,6c1.7,4.2,3.2,8.6,4.6,12.9c0.7,2.1,0.4,4.2-0.5,6.3c-2.4,6.1-4.5,12.2-7.1,18.2c-2.7,6.4-5.7,12.6-8.5,18.9
			C546,446.9,545.8,447.6,545.3,448.6z M509.7,440.7c-0.2,0.2-0.4,0.5-0.5,0.7c0.9,1.2,1.8,2.6,2.8,3.7c2.9,3.1,6.2,5.7,9.7,7.9
			c6.7,4.3,14,7.4,21.2,10.8c6.6,3.2,13.7,4.9,21,5.2c2,0.1,4.1,0.4,6.4-0.7c-7.3-8.3-16-13.7-25.7-18.2c-0.5,0.8-0.8,1.4-1.1,2
			c-0.3,0.7-0.6,1.4-1,2c-1,1.6-2.4,2.1-3.8,1.5c-1.4-0.6-1.9-2.1-1.3-3.8c0.4-1.3,1-2.6,1.6-4.1
			C529.6,443.5,520.1,440.5,509.7,440.7z M539.1,469.4c-12.6,30.4-26.4,59.8-41.3,89c2.1,0.6,3.7,1.1,5.2,1.6
			c4-5,41.1-82.7,42.2-88.3C543.4,471,541.5,470.3,539.1,469.4z M504.9,560c2.6,1,2.7,1,3.9-1c5.8-10.3,11.8-20.5,17.2-31
			c8.8-17.3,18.2-34.2,26.1-51.9c0.3-0.6,0.5-1.1,0.9-1.9c-2.3-0.7-4.4-1.3-6.3-1.9C533.5,502.1,519.7,531.3,504.9,560z
			 M528.1,464.1c-0.9,2.2-1.8,4.2-2.6,6.2c-2.1,5.3-4.2,10.8-6.4,16.1c-1.7,4.1-3.7,8.1-5.6,12.2c-7.9,16.8-15.8,33.6-23.7,50.4
			c-0.7,1.5-1.4,3-2.1,4.7c1.2,0.6,2.1,1.1,3.5,1.7c3.8-7.5,7.5-14.8,11.2-22.1c3.6-7.3,7.3-14.5,10.7-21.8
			c3.5-7.4,6.7-14.9,10.1-22.4c3.3-7.5,6.6-14.9,10-22.5C531.3,465.7,529.9,465,528.1,464.1z M534.2,467.1c-2.4,5.2-4.8,10-7,14.9
			c-4.3,9.6-8.2,19.4-12.8,28.9c-6.9,14.5-14.3,28.7-21.4,43.1c-0.3,0.6-0.5,1.1-0.8,1.9c1.6,0.7,2.9,1.3,4.4,2
			c15.1-29.3,28.8-58.8,41.7-89C536.9,468.3,535.6,467.7,534.2,467.1z M554,474.5c-13.4,29.7-28.9,57.9-44.7,86.1
			c2.2,0.6,3.2-0.3,4.2-1.8c4.1-6.7,8.2-13.3,12.2-20c3.1-5.1,6.2-10.2,9-15.5c6.3-11.8,12.5-23.7,18.7-35.6c2-3.9,3.8-7.8,5.8-12
			C557.4,475.3,555.8,474.9,554,474.5z M523.3,461.4c-1.2,2.5-2.3,4.7-3.2,6.9c-2.8,6.6-5.5,13.3-8.3,19.9c-1.4,3.3-3,6.6-4.5,9.9
			c-7.1,16-14.1,32.1-21.2,48.2c-0.7,1.6-1.4,3.2-2.2,5c0.9,0.6,1.6,1.1,2.5,1.6c0.4-0.8,0.7-1.4,0.9-2c4.6-9.8,9.2-19.6,13.8-29.4
			c8.2-17.3,16.7-34.6,23.5-52.6c0.7-1.8,1.6-3.5,2.4-5.4C525.9,462.8,524.8,462.2,523.3,461.4z M483.4,550.1
			c13-29.7,26-59.5,39-89.4c-1.4-0.7-2.5-1.4-3.9-2.1c-0.6,1.4-1,2.4-1.4,3.4c-4.3,11-8.6,22.1-13,33.1c-2,5-4.4,9.9-6.5,14.9
			c-4.2,10.2-8.3,20.4-12.5,30.6c-1,2.4-2,4.8-3,7.2C481.6,548.8,481.5,549.7,483.4,550.1z M514.2,560c2.2-0.2,3.3-0.8,4.1-2.3
			c0.7-1.4,1.6-2.7,2.5-4.1c5.2-8.2,10.7-16.2,15.7-24.5c10.1-16.8,18.9-34.3,27.9-51.7c0.1-0.2,0.1-0.5,0.1-0.9
			c-1.3-0.2-2.6-0.3-3.8-0.5c-5,9.7-9.7,19.2-14.6,28.6c-4.9,9.3-9.8,18.7-15.1,27.8C525.8,541.6,520,550.6,514.2,560z M513,455.3
			c-0.7,2.3-1.2,4.1-1.9,6c-2.2,6.3-4.2,12.5-6.5,18.7c-2.8,7.6-5.8,15.1-8.7,22.7c-4.4,11.5-8.8,23-13.2,34.5
			c-1,2.6-2.1,5.2-3.2,7.7c-0.5,1.2-0.5,2.1,1.1,2.8c12.3-29.9,24.7-59.8,37.1-89.7C516.1,457.1,514.7,456.3,513,455.3z
			 M477.9,544.9c4-7.1,33.2-84.9,34-90.4c-0.9-0.6-1.8-1.2-2.8-1.8c-0.2,0.5-0.4,0.8-0.6,1.1c-2.8,7.8-5.5,15.7-8.2,23.5
			c-5.5,15.7-10.9,31.3-16.4,47c-2,5.7-4.4,11.3-6.6,16.9C476.8,542.5,476.4,543.7,477.9,544.9z M506.1,450.1
			c-1.3,3.8-2.5,7.6-3.8,11.4c-4.8,13.9-9.8,27.8-14.4,41.8c-3.4,10.2-6.9,20.3-11,30.2c-0.6,1.5-1.1,2.9-1.7,4.4
			c-0.4,1-0.4,1.9,0.6,2.9c0.4-0.8,0.8-1.4,1.1-2.1c2-5.1,4.1-10.2,6-15.4c5.7-16.2,11.3-32.4,16.9-48.6c2.5-7,5-14,7.6-21.1
			C508.1,451.6,508.1,451.6,506.1,450.1z M556.7,412.9c-0.4,1-0.8,1.9-1.2,2.9c-2.1,4.7-4.1,9.4-6.3,14c-3.2,7-6.5,14-9.8,21
			c-0.3,0.6-0.7,1.2-0.7,1.8c0,0.6,0.1,1.4,0.5,1.6c0.4,0.2,1.3,0,1.7-0.3c0.6-0.6,0.9-1.4,1.3-2.1c2.2-4.7,4.5-9.4,6.6-14.2
			c3.3-7.4,6.4-14.9,9.6-22.3c0.2-0.6,0.3-1.2,0.5-1.9C558,413.2,557.4,413.1,556.7,412.9z M515.6,562.3c-0.1-0.3-0.2-0.5-0.3-0.7
			c-5.2,1.6-10.4,0.9-15.4-1c-4.5-1.7-9-3.6-13.3-5.9c-5.4-2.9-9.8-7-12.3-12.8c-0.1-0.3-0.4-0.6-0.6-1c-1.2,1.5-1.2,2.8-0.4,4.3
			c1.4,2.6,3.2,4.8,5.4,6.7c7.3,5.8,15.4,9.8,24.5,11.8c3.4,0.7,6.9,0.6,10.2-0.3C514.2,563.1,514.9,562.6,515.6,562.3z
			 M560.5,400.3c-1.7-5.3-3.6-10.2-6.6-14.8c-1,0.6-1.8,1.1-2.7,1.6c2.2,4.9,4.4,9.7,6.7,14.6C558.8,401.2,559.5,400.8,560.5,400.3z
			 M508.6,449.8c1.3,1.9,3.1,3.1,5.2,3.9c0.8-1.1,1.5-2,2.2-2.9c-1.7-1.5-3.1-2.8-4.6-4.2C510.4,447.7,509.6,448.7,508.6,449.8z
			 M565.2,475.1c1.2,0,2.3,0,3.6,0c0.3-0.8,0.6-1.5,0.8-2.2c0.2-0.7,0.4-1.6,0.5-2.4C565.6,470.4,565.5,470.5,565.2,475.1z
			 M537,462.8c-0.6,1.1-1.1,2.1-1.7,3.2c1.8,0.8,3.3,1.5,5.1,2.3c0.4-1.3,0.8-2.3,1.2-3.5C540,464.1,538.6,463.5,537,462.8z
			 M508.1,442.1c-3.5,2.7-3.1,4.3-0.4,6.5c0.9-1,1.8-2,2.7-3C509.6,444.4,508.9,443.3,508.1,442.1z M519.9,457.6
			c1.7,1,3.2,1.8,4.8,2.8c0.7-1,1.2-1.8,1.9-2.8c-1.7-1-3.1-1.7-4.7-2.7C521.2,455.8,520.6,456.6,519.9,457.6z M558.6,474.1
			c0.4-1.6,0.6-2.7,0.9-3.9c-1.8-0.3-3.3-0.5-5-0.7c-0.3,1.2-0.6,2.2-0.8,3.4C555.5,473.3,556.9,473.6,558.6,474.1z M548.2,467.6
			c-0.3,1.2-0.6,2.1-0.9,3.2c1.7,0.6,3.4,1,5.2,1.6c0.3-1.2,0.6-2.1,0.9-3.2C551.7,468.6,550.1,468.2,548.2,467.6z M563.7,475
			c0.4-1.5,0.8-2.9,1.2-4.4c-1.6-0.1-2.9-0.2-4.2-0.3c-0.4,1.5-0.7,2.7-1,4C561.1,474.5,562.3,474.7,563.7,475z M546.1,470.5
			c0.4-1.3,0.7-2.3,1-3.3c-1.7-0.7-3-1.3-4.4-1.9c-0.4,1.3-0.7,2.2-1.1,3.4C543,469.3,544.5,469.8,546.1,470.5z M518.8,457
			c0.7-1,1.4-1.9,2.1-2.9c-1.4-0.9-2.6-1.7-3.9-2.5c-0.8,1-1.5,1.8-2.3,2.9C516.1,455.4,517.4,456.2,518.8,457z M532.1,460.2
			c-0.6,1.3-1,2.3-1.6,3.4c1.4,0.7,2.5,1.2,3.9,1.8c0.6-1.2,1-2.1,1.5-3.3C534.5,461.5,533.4,460.9,532.1,460.2z M525.7,461
			c1.3,0.7,2.4,1.4,3.7,2.1c0.6-1.2,1.1-2.2,1.7-3.3c-1.3-0.6-2.3-1-3.4-1.5C527,459.1,526.4,459.9,525.7,461z M561.2,404.5
			c0-0.3-0.1-0.5-0.1-0.8c-0.9,0.2-1.9,0-2.4,1.4C559.5,405,560.4,404.8,561.2,404.5z M561.4,406.5c-0.1-0.4-0.2-0.6-0.2-0.6
			c-0.8,0-1.7-0.1-2.4,1.1C559.9,406.8,560.6,406.6,561.4,406.5z M560.7,408.7c0-0.3,0-0.6-0.1-0.8c-0.7,0-1.5,0.1-2.2,0.1
			c0,0.2,0,0.4,0,0.6C559.2,408.6,560,408.6,560.7,408.7z M556.8,411.5c1.3,0.7,1.9,1.3,3,0.2c-0.7-0.2-1.1-0.4-1.5-0.5
			C558.1,411.2,557.7,411.4,556.8,411.5z M558.6,402.5c0.1,0.3,0.2,0.5,0.2,0.5c0.7-0.2,1.4-0.5,2-0.7c-0.1-0.2-0.2-0.4-0.2-0.6
			C560,402,559.3,402.2,558.6,402.5z M550.5,384.8c1.3,0.9,1.7,0.4,2-1.1C551.6,384.1,551.1,384.5,550.5,384.8z"/>
		<path d="M507.7,566.1c-1.2,0-2.4-0.1-3.6-0.4c-10.9-2.1-20.4-6.9-28.2-14c-1.4-1.3-2.5-2.9-3.5-4.6c-0.3-0.5-0.6-0.9-0.9-1.4
			c-1-1.5-1-3.2-0.2-5.1c6.2-13,10.9-26.9,15.4-40.4c0.4-1.2,0.8-2.4,1.2-3.5c3.3-9.8,6.7-19.7,10.1-29.3c1.3-3.6,2.6-7.3,3.8-10.9
			c0.4-1.1,0.8-2.2,1.2-3.2c0.3-0.7,0.6-1.5,0.9-2.3l0.1-0.3c0.6-1.5,1-2.8-0.1-4.2c-0.6-0.7-0.4-1.9-0.1-2.6
			c1.2-3.1,4.5-5.3,7.9-5.2c5.5,0.1,11.1,1,16.7,2.8c2.1,0.7,4.2,1.5,6.3,2.2c1,0.4,1.9,0.7,2.9,1.1c0.5,0.2,0.9,0.3,1.4,0.5
			l0.4,0.1c0.2-0.5,0.5-0.9,0.7-1.3c0.6-1.2,1.2-2.4,1.8-3.5c3.3-7.2,6.6-14.5,9.8-21.5l2.8-6.2c0.3-0.6,0.5-1.1,0.7-1.6l-0.1-0.1
			l0.1,0c0,0,0-0.1,0-0.1c1.5-3.6,1.6-6.4,0.4-9.1c-1.1-2.5-2.2-5-3.2-7.4c-0.7-1.6-1.4-3.3-2.1-4.9c-0.2-0.4-0.4-0.8-0.6-1.2
			c-0.3-0.6-0.6-1.2-0.8-1.8c-0.7-2-0.3-3.3,1.7-4.3c1.7-0.9,2.8-0.6,4,1.2l0.1,0.1c1.3,1.9,2.7,3.8,3.6,6c1.7,4,3,8.2,4.4,12.3
			l0.2,0.6c0.7,2,0.6,4.1-0.5,6.6c-1,2.5-2,5.1-2.9,7.6c-1.3,3.5-2.7,7.1-4.1,10.6c-1.8,4.3-3.9,8.7-5.8,12.9c-0.9,1.9-1.8,4-2.8,6
			c-0.2,0.5-0.4,1-0.6,1.6c-0.1,0.2-0.1,0.3-0.2,0.5c0.6,0.3,1.1,0.6,1.7,0.9c1.5,0.8,2.9,1.6,4.3,2.4c5.9,3,11.5,7.1,17.1,12.3
			c3.7,3.4,4.2,8,1.3,12c-0.5,0.7-1.6,1.1-2.4,1c-1.3-0.1-1.8,0.6-2.4,1.8c-0.7,1.4-1.4,2.9-2.1,4.3c-2.4,4.9-4.8,9.9-7.5,14.7
			c-2,3.6-3.9,7.2-5.8,10.8c-4.5,8.5-9.1,17.2-14.4,25.4c-3.2,5-6.5,10.2-9.7,15.1c-2.4,3.7-4.7,7.3-7.1,11l-0.2,0.3
			c-0.7,1.1-1.4,2.2-2.3,3.2c-0.7,0.8-1.7,1.4-2.5,1.7C511.9,565.8,509.8,566.1,507.7,566.1z M509.4,440.3c-2,0.7-3.8,2.3-4.5,4.1
			c-0.2,0.6-0.2,1.4,0,1.6c1.5,1.8,0.8,3.6,0.2,5.2l-0.1,0.3c-0.3,0.8-0.6,1.6-0.9,2.3c-0.4,1-0.8,2.1-1.2,3.2
			c-1.3,3.6-2.5,7.3-3.8,10.9c-3.4,9.6-6.8,19.5-10.1,29.3c-0.4,1.2-0.8,2.4-1.2,3.5c-4.5,13.5-9.2,27.4-15.4,40.5
			c-0.7,1.5-0.7,2.9,0.1,4.1c0.3,0.5,0.6,0.9,0.9,1.4c1,1.6,2,3.2,3.3,4.4c7.6,7.1,16.9,11.7,27.7,13.8c2.9,0.6,6,0.4,9.5-0.6
			c0.6-0.2,1.4-0.7,2-1.3c0.1-0.1,0.2-0.2,0.3-0.3l-0.3,0.2c-0.2,0.1-0.4,0.2-0.6,0.4c-0.5,0.3-1,0.6-1.6,0.7c-3.5,0.9-7,1-10.5,0.3
			c-8.9-1.9-17.2-6-24.7-11.9c-2.2-1.7-4-4-5.6-6.8c-1-1.7-0.8-3.2,0.4-4.8l0.5-0.6l0.4,0.6c0.1,0.2,0.2,0.3,0.3,0.4
			c0.2,0.2,0.3,0.5,0.4,0.7c2.3,5.2,6.3,9.4,12.1,12.6c4.6,2.5,9.5,4.4,13.2,5.9c5.4,2,10.3,2.3,15,0.9l0.5-0.1l0.6,1.6
			c0.7-0.8,1.3-1.7,1.8-2.7l0.2-0.3c2.4-3.7,4.7-7.3,7.1-11c3.2-5,6.5-10.1,9.7-15.1c5.3-8.2,9.9-16.9,14.4-25.3
			c1.9-3.6,3.8-7.2,5.8-10.8c2.7-4.8,5.1-9.8,7.5-14.7c0.7-1.4,1.4-2.9,2.1-4.3c0.7-1.5,1.6-2.4,3.4-2.4c0.5,0,1.2-0.3,1.5-0.6
			c1.6-2.2,2-4.5,1.4-6.7l-0.4,0.2c-2.2,0.9-4.1,0.8-5.9,0.7c-0.2,0-0.5,0-0.7,0c-7.5-0.3-14.6-2.1-21.3-5.3c-1.7-0.8-3.3-1.6-5-2.4
			c-5.4-2.5-11-5.2-16.2-8.5c-4-2.6-7.2-5.2-9.8-8c-0.7-0.8-1.4-1.7-2-2.6c-0.3-0.4-0.6-0.8-0.8-1.2l-0.2-0.3L509.4,440.3z
			 M473.7,541.8c-0.6,1-0.5,1.9,0.1,3c1.5,2.7,3.2,4.8,5.3,6.5c7.3,5.9,15.5,9.8,24.2,11.7c3.3,0.7,6.7,0.6,10-0.3
			c0.4-0.1,0.7-0.3,1.1-0.6c-4.7,1.2-9.5,0.7-14.8-1.2c-3.8-1.4-8.7-3.4-13.3-5.9c-6-3.3-10.2-7.7-12.5-13.1
			C473.8,542,473.8,541.9,473.7,541.8z M509.9,441.4c0.2,0.3,0.4,0.6,0.6,0.9c0.6,0.8,1.2,1.7,1.9,2.5c2.5,2.8,5.7,5.3,9.6,7.8
			c5.1,3.3,10.7,5.9,16.1,8.4c1.7,0.8,3.3,1.6,5,2.4c6.5,3.1,13.5,4.9,20.8,5.2c0.2,0,0.5,0,0.7,0c1.5,0.1,3,0.2,4.7-0.4
			c-6.2-6.9-13.8-12.3-24.6-17.3c-0.1,0.1-0.1,0.2-0.2,0.3c-0.3,0.5-0.5,0.8-0.6,1.2c-0.1,0.2-0.2,0.5-0.4,0.7
			c-0.2,0.4-0.4,0.9-0.7,1.3c-1.1,1.7-2.8,2.4-4.4,1.7s-2.3-2.5-1.6-4.4c0.3-0.9,0.7-1.8,1-2.8c0.1-0.3,0.3-0.6,0.4-0.9
			c-11-4.8-19.8-6.8-28.4-6.7L509.9,441.4z M544.4,449.5l0.5,0.2c11.4,5.3,19.4,11,25.9,18.4v0c-0.5-1.2-1.3-2.3-2.3-3.3
			c-5.6-5.2-11.1-9.1-16.9-12.2c-1.5-0.7-2.9-1.6-4.4-2.4c-0.7-0.4-1.4-0.8-2.1-1.1l-0.4-0.2l0.2-0.4c0.1-0.3,0.3-0.6,0.4-0.9
			c0.2-0.6,0.4-1.1,0.7-1.6c0.9-2,1.8-4,2.8-6c1.9-4.2,4-8.6,5.8-12.9c1.5-3.5,2.8-7.1,4.1-10.6c0.5-1.4,1.1-2.9,1.6-4.3
			c-0.6,0.5-1,0.7-1.5,0.7l0.8,0.2l-0.1,0.5c-0.1,0.3-0.1,0.5-0.2,0.7c-0.1,0.5-0.2,0.9-0.4,1.3c-0.6,1.5-1.2,2.9-1.8,4.3
			c-2.5,5.9-5.1,12-7.7,18c-1.6,3.7-3.4,7.4-5.1,11c-0.5,1.1-1,2.2-1.6,3.3l0,0.1c-0.4,0.7-0.7,1.6-1.4,2.2
			c-0.5,0.5-1.7,0.7-2.3,0.4c-0.7-0.4-0.8-1.6-0.8-2.1c0.1-0.6,0.3-1.1,0.6-1.6c0.1-0.1,0.1-0.3,0.2-0.4c1.1-2.3,2.2-4.7,3.3-7
			c2.1-4.6,4.3-9.3,6.5-14c1.6-3.3,3-6.8,4.5-10.1c0.6-1.3,1.2-2.6,1.7-3.9c0.3-0.6,0.6-1.3,0.8-1.9c0.1-0.3,0.3-0.6,0.4-0.9
			l0.2-0.4l1.5,0.3c-0.3-0.1-0.6-0.3-0.9-0.5c-0.1-0.1-0.3-0.2-0.4-0.2l-0.3-0.1c-0.2,0.5-0.5,1-0.7,1.5l-2.8,6.2
			c-3.2,7.1-6.5,14.4-9.8,21.5c-0.6,1.2-1.2,2.4-1.8,3.6c-0.3,0.6-0.6,1.1-0.9,1.7l-0.2,0.4l-1.3-0.4c-0.5-0.2-1-0.3-1.4-0.5
			c-1-0.4-1.9-0.7-2.9-1.1c-2-0.8-4.1-1.6-6.3-2.2c-5.4-1.7-10.9-2.6-16.4-2.7c-0.7,0-1.4,0.1-2.1,0.3c11.5-0.3,21.9,3.6,29.6,7
			l0.5,0.2l-0.2,0.5c-0.2,0.5-0.4,1-0.6,1.4c-0.4,0.9-0.7,1.8-1,2.7c-0.5,1.5-0.1,2.6,1.1,3.1c1.1,0.5,2.3,0,3.1-1.3
			c0.2-0.4,0.4-0.8,0.6-1.2c0.1-0.3,0.2-0.5,0.4-0.8c0.2-0.4,0.4-0.8,0.6-1.2c0.1-0.2,0.3-0.5,0.4-0.7L544.4,449.5z M557,413.5
			c-0.1,0.2-0.2,0.4-0.2,0.6c-0.3,0.7-0.6,1.3-0.8,1.9c-0.6,1.3-1.2,2.6-1.7,3.9c-1.5,3.3-3,6.8-4.5,10.1c-2.1,4.7-4.4,9.4-6.5,14
			c-1.1,2.3-2.2,4.7-3.3,7c-0.1,0.2-0.2,0.3-0.2,0.5c-0.2,0.4-0.4,0.8-0.5,1.2c0,0.5,0.1,1,0.3,1.1c0.2,0.1,0.8,0,1.1-0.2
			c0.5-0.5,0.8-1.2,1.2-1.9l0-0.1c0.5-1.1,1-2.2,1.6-3.3c1.7-3.6,3.4-7.3,5.1-10.9c2.6-6,5.2-12.1,7.7-18c0.6-1.5,1.2-2.9,1.8-4.3
			c0.1-0.3,0.2-0.7,0.3-1.1c0-0.1,0-0.1,0-0.2L557,413.5z M558.3,410.7c0.1,0,0.1,0,0.2,0c0.3,0,0.6,0.2,1,0.3
			c0.2,0.1,0.4,0.1,0.6,0.2l0.5,0.1c0.3-0.9,0.7-1.7,1-2.6c0.3-0.7,0.5-1.3,0.6-1.9l-2.7,0.5l1.7-0.1l0.1,1.9l-3.3-0.1l0-1.4l-0.2,0
			l0.6-1c0.8-1.4,1.9-1.4,2.7-1.4h0.1c0.4,0,0.5,0.4,0.6,0.6c0,0.1,0.1,0.2,0.1,0.4l0.2,0.5c0.3-1.4,0.2-2.7-0.2-4l-0.2-0.6
			c-1.4-4.1-2.8-8.2-4.4-12.2c-0.8-2-2.2-4-3.5-5.8l-0.1-0.1c-0.3-0.4-0.5-0.6-0.7-0.8l-0.1,0.4c-0.2,0.8-0.4,1.7-1,1.9
			c-0.6,0.3-1.3-0.2-1.7-0.5l-0.5-0.4c-0.1,0.4,0,0.9,0.2,1.6c0.2,0.6,0.5,1.1,0.8,1.7c0.2,0.4,0.4,0.8,0.6,1.3
			c0.7,1.6,1.4,3.3,2.1,4.9c1.1,2.4,2.1,4.9,3.2,7.4c1.3,2.8,1.2,5.7-0.1,9.4l0.1,0c0.3-0.1,0.6-0.1,0.8-0.2
			C557.8,410.8,558,410.7,558.3,410.7z M552.2,383c-0.3,0-0.6,0.2-1.1,0.4c-0.7,0.4-1.2,0.8-1.4,1.2l2.8-1.6
			C552.4,383,552.3,383,552.2,383z M510.6,561.3c-0.4,0-0.9-0.1-1.4-0.2l-0.6-0.2l0.3-0.6c15.9-28.5,31.2-56.5,44.6-86.1l0.2-0.4
			l6.4,1.5l-0.3,0.6c-0.6,1.3-1.3,2.6-1.9,3.9c-1.3,2.8-2.6,5.4-4,8.1l-0.3,0.6c-6,11.5-12.2,23.4-18.4,35
			c-2.5,4.6-5.2,9.2-7.9,13.6l-1.1,1.8c-2,3.3-4.1,6.7-6.1,9.9c-2,3.3-4.1,6.7-6.2,10.1C513.3,560.3,512.4,561.3,510.6,561.3z
			 M510.2,560.3c1.5,0.2,2.2-0.5,2.9-1.7c2-3.4,4.1-6.8,6.2-10.1c2-3.2,4.1-6.6,6.1-9.9l1.1-1.8c2.7-4.4,5.4-9,7.9-13.6
			c6.2-11.6,12.4-23.5,18.4-35l0.3-0.6c1.4-2.6,2.6-5.2,4-8c0.5-1.1,1-2.2,1.6-3.3l-4.2-1C541.1,504.4,525.9,532.1,510.2,560.3z
			 M507.1,561.2c-0.6,0-1.3-0.3-2.4-0.7l-0.6-0.2l0.3-0.5c14.6-28.5,28.3-57.2,41.7-87.8l0.2-0.4l7.3,2.2l-1.1,2.5
			c-5.7,12.6-12.2,25.1-18.5,37.2c-2.5,4.8-5.1,9.8-7.6,14.7c-3.8,7.5-8,14.9-12.1,22.1c-1.7,2.9-3.4,6-5.1,9
			C508.5,560.7,508,561.2,507.1,561.2z M505.6,559.8c0.8,0.3,1.3,0.5,1.6,0.4c0.3-0.1,0.6-0.5,1.1-1.4c1.7-3,3.4-6.1,5.1-9
			c4.1-7.2,8.3-14.6,12.1-22c2.5-4.9,5.1-9.9,7.6-14.8c6.3-12.1,12.8-24.5,18.5-37.1l0.6-1.4l-5.3-1.6
			C533.6,503.1,520.1,531.6,505.6,559.8z M503.2,560.6l-6.2-1.9l0.3-0.6c14.4-28.2,26.8-54.5,37.7-80.3
			c-12.4,28.6-24.9,55-37.9,80.3l-0.2,0.5l-5.3-2.4l0.2-0.5c0.1-0.3,0.2-0.5,0.3-0.7c0.2-0.5,0.4-0.8,0.6-1.2
			c2.2-4.3,4.4-8.8,6.5-13c4.9-9.8,10-20,14.9-30c2.9-6,5.6-12.2,8.2-18.3c0.5-1.1,1-2.2,1.5-3.4c0,0,0,0.1,0,0.1
			c-0.9,2.1-1.9,4.2-2.8,6.3c-2.4,5.3-4.8,10.8-7.3,16.2c-3.2,6.8-6.6,13.6-9.9,20.2l-0.8,1.7c-2.5,5.1-5.1,10-7.7,15.3
			c-1.1,2.3-2.3,4.5-3.5,6.8l-0.2,0.5l-4.4-2.2l0.2-0.5c0.3-0.6,0.5-1.1,0.7-1.6c0.5-1.1,0.9-2.1,1.4-3.1
			c3.4-7.2,6.7-14.3,10.1-21.5c4.5-9.6,9.1-19.2,13.6-28.9c0.5-1,0.9-1.9,1.4-2.9c1.4-3,2.9-6.2,4.2-9.3c1.5-3.4,2.8-6.9,4.2-10.3
			c0.7-1.9,1.5-3.8,2.3-5.7c0.6-1.3,1.1-2.7,1.7-4.1c0.3-0.7,0.6-1.4,0.9-2.1l0.2-0.5l5.9,2.8l-3.4,7.6c-0.4,0.8-0.7,1.6-1.1,2.5
			c0.7-1.5,1.4-3,2.2-4.6c0.7-1.6,1.5-3.2,2.3-4.8l0.2-0.5l5,2.2l0,0.1l6.9,2.7l-0.1,0.4c-1.2,5.7-38.4,83.4-42.3,88.5L503.2,560.6z
			 M498.5,558l4.3,1.3c4.8-7,39.3-79.2,41.8-87.3l-5.2-2C527.7,498.3,514.3,527.1,498.5,558z M492.8,555.6l3.5,1.6
			c14.2-27.6,27.7-56.4,41.2-88.1l-3.1-1.4c-0.7,1.5-1.4,2.9-2,4.3c-1.7,3.5-3.2,6.8-4.7,10.1c-1.6,3.5-3.1,7.1-4.6,10.6
			c-2.6,6.1-5.3,12.3-8.2,18.3c-4.8,10.1-9.9,20.3-14.9,30.1c-2.1,4.3-4.4,8.7-6.5,13c-0.2,0.4-0.3,0.7-0.5,1.1
			C492.9,555.5,492.9,555.6,492.8,555.6z M488.2,553.3l2.6,1.3c1.1-2.1,2.2-4.2,3.2-6.4c2.7-5.2,5.2-10.2,7.7-15.3l0.8-1.7
			c3.3-6.6,6.7-13.4,9.9-20.1c2.5-5.3,5-10.8,7.3-16.1c0.9-2.1,1.8-4.2,2.8-6.3c2.3-5.1,4.6-10.2,6.8-15.3l3-6.7l-4.1-1.9
			c-0.2,0.6-0.5,1.1-0.7,1.6c-0.6,1.4-1.2,2.7-1.7,4.1c-0.8,1.9-1.5,3.9-2.3,5.7c-1.3,3.4-2.7,6.9-4.2,10.4
			c-1.3,3.1-2.8,6.3-4.3,9.3c-0.5,0.9-0.9,1.9-1.4,2.9c-4.5,9.6-9.1,19.3-13.6,28.9c-3.4,7.2-6.7,14.3-10.1,21.5
			c-0.5,1-0.9,2-1.4,3.1C488.6,552.6,488.4,553,488.2,553.3z M513.2,560.5l0.5-0.9c1.8-2.9,3.6-5.8,5.3-8.6
			c4.1-6.5,7.9-12.6,11.5-18.9c5.3-9.2,10.3-18.6,15.1-27.8c3.4-6.5,6.7-12.9,10.1-19.7c1.5-2.9,3-5.9,4.5-8.9l0.2-0.3l4.6,0.6
			l0,0.5c0,0.1,0,0.2,0,0.3c0,0.3,0,0.5-0.1,0.7l-2.3,4.5c-8,15.7-16.4,31.9-25.6,47.2c-3.4,5.7-7.1,11.3-10.7,16.7
			c-1.7,2.6-3.4,5.2-5.1,7.8c-0.2,0.3-0.4,0.6-0.6,0.8c-0.7,1-1.4,2.1-1.9,3.2c-0.8,1.7-2.2,2.4-4.5,2.6L513.2,560.5z M561,476.6
			c-1.5,2.9-2.9,5.7-4.3,8.6c-3.4,6.8-6.7,13.3-10.1,19.8c-4.8,9.1-9.8,18.6-15.1,27.8c-3.7,6.4-7.5,12.5-11.6,19
			c-1.6,2.5-3.1,5.1-4.8,7.6c1.3-0.3,2.1-0.8,2.7-1.8c0.6-1.1,1.3-2.2,2-3.3c0.2-0.3,0.4-0.6,0.5-0.8c1.7-2.6,3.4-5.2,5.1-7.8
			c3.6-5.4,7.2-11,10.6-16.7c9.2-15.3,17.5-31.5,25.6-47.1l2.3-4.5c0,0,0-0.1,0-0.2L561,476.6z M486.7,553.6l-3.3-2.2l0.9-2.1
			c0.5-1.1,1-2.2,1.5-3.3l6.1-13.9c5-11.4,10-22.8,15-34.2c0.6-1.4,1.2-2.8,1.8-4.1c0.9-1.9,1.8-3.9,2.6-5.9
			c1.4-3.4,2.9-6.8,4.2-10.1c0.6-1.6,1.3-3.2,2-4.8l-33.9,77.7l-0.4-0.1c-1-0.3-1.5-0.6-1.8-1.2c-0.3-0.6-0.1-1.4,0.2-2
			c0.9-2.2,1.8-4.4,2.7-6.6l0.3-0.6c1.3-3.2,2.6-6.3,3.9-9.5c2.8-6.9,5.7-14.1,8.6-21.1c1-2.3,2-4.7,3-6.9c1.2-2.6,2.4-5.2,3.5-7.9
			c3-7.5,6.1-15.3,9-22.7c1-2.5,1.9-5,2.9-7.5l-34.6,83.7l-0.5-0.2c-0.9-0.3-1.4-0.7-1.7-1.3c-0.3-0.7-0.1-1.5,0.2-2.1
			c1.1-2.4,2.2-5.1,3.2-7.7c2.7-7.1,5.5-14.3,8.2-21.3c1.7-4.4,3.4-8.8,5.1-13.2c1-2.6,2-5.1,3-7.7c1.9-4.9,3.9-10,5.7-15
			c1.8-4.8,3.4-9.7,5.1-14.4c0.5-1.4,1-2.9,1.5-4.3c0.4-1.2,0.8-2.5,1.2-3.9c0.2-0.7,0.4-1.4,0.6-2.1l0.2-0.6l5.6,3.2l-0.1,0.1
			l4.8,2.6l-1.7,3.8c0.1-0.3,0.3-0.5,0.4-0.8c0.4-0.7,0.7-1.5,1.1-2.3l0.2-0.5l4.7,2.7l-0.2,0.4c-0.3,0.6-0.6,1.2-0.8,1.8
			c-0.6,1.2-1.1,2.4-1.6,3.6c-6,15.8-13.4,31.3-20.5,46.3c-1,2.1-2,4.2-3,6.3c-3.2,6.7-6.4,13.5-9.5,20.1c-1.5,3.1-2.9,6.2-4.3,9.3
			c-0.2,0.4-0.4,0.7-0.6,1.2L486.7,553.6z M484.7,551l1.6,1l0.1-0.2c0.2-0.4,0.4-0.8,0.6-1.2c1.5-3.1,2.9-6.2,4.3-9.3
			c3.1-6.6,6.3-13.4,9.5-20.1c1-2.1,2-4.2,3-6.3c7.1-15,14.5-30.5,20.5-46.3c0.5-1.2,1-2.4,1.6-3.7c0.2-0.5,0.4-0.9,0.6-1.3
			l-2.9-1.6c-0.3,0.6-0.6,1.2-0.9,1.8c-0.7,1.6-1.5,3-2.1,4.5c-1.4,3.2-2.7,6.5-4.1,9.8c-1.4,3.3-2.8,6.8-4.2,10.1
			c-0.8,2-1.7,4-2.6,5.9c-0.6,1.3-1.2,2.7-1.8,4.1c-5,11.4-10,22.8-15,34.2l-6.1,13.9c-0.5,1.1-1,2.2-1.5,3.3L484.7,551z
			 M518.8,459.4c-0.1,0.3-0.2,0.5-0.3,0.7c-0.3,0.8-0.6,1.4-0.9,2.1c-1.4,3.4-2.7,6.9-4.1,10.3c-2.9,7.5-5.9,15.2-9,22.7
			c-1.1,2.7-2.3,5.4-3.5,8c-1,2.2-2.1,4.6-3,6.9c-2.9,7-5.8,14.1-8.6,21.1c-1.3,3.2-2.6,6.4-3.9,9.5l-0.3,0.6
			c-0.9,2.2-1.8,4.4-2.7,6.6c-0.2,0.6-0.3,0.9-0.2,1.1c0.1,0.2,0.3,0.4,0.7,0.5l38.6-88.6L518.8,459.4z M513.3,456.1
			c-0.2,0.5-0.3,1-0.5,1.5c-0.4,1.4-0.8,2.6-1.2,3.9c-0.5,1.4-1,2.9-1.5,4.3c-1.6,4.7-3.3,9.7-5.1,14.5c-1.9,5-3.8,10.1-5.7,15
			c-1,2.6-2,5.1-3,7.7c-1.7,4.4-3.4,8.8-5.1,13.2c-2.7,7-5.4,14.2-8.2,21.3c-1,2.7-2.2,5.3-3.2,7.8c-0.3,0.6-0.3,1-0.2,1.3
			c0.1,0.2,0.3,0.4,0.6,0.6l36.7-88.8L513.3,456.1z M478,545.7l-0.5-0.4c-1.8-1.5-1.2-3.2-0.7-4.3c0.6-1.5,1.2-3,1.8-4.5
			c1.6-4.1,3.3-8.2,4.8-12.4c3.8-10.7,7.5-21.5,11.2-32c1.7-5,3.5-9.9,5.2-14.9c2.5-7.3,5.2-14.7,7.6-21.8l0.6-1.6
			c0.1-0.3,0.2-0.5,0.4-0.8c0.1-0.1,0.1-0.3,0.2-0.4l0.3-0.5l3.5,2.3l0,0.3c-0.7,5.6-30,83.4-34.1,90.5L478,545.7z M509.3,453.4
			c-0.1,0.2-0.2,0.4-0.3,0.6l-0.6,1.6c-2.5,7.2-5.1,14.5-7.6,21.8c-1.7,5-3.5,9.9-5.2,14.9c-3.7,10.5-7.4,21.4-11.2,32.1
			c-1.5,4.2-3.2,8.4-4.8,12.4c-0.6,1.5-1.2,3-1.8,4.5c-0.4,1-0.6,1.8,0,2.6c5-9.9,32-81.8,33.5-89.2L509.3,453.4z M475.9,541.7
			l-0.5-0.5c-1.3-1.3-1.1-2.6-0.7-3.5c0.2-0.6,0.4-1.1,0.6-1.7c0.3-0.9,0.7-1.8,1.1-2.8c4.3-10.2,7.8-20.5,11-30.2
			c3.1-9.4,6.4-19,9.7-28.2c1.6-4.5,3.2-9.1,4.7-13.6c0.9-2.6,1.8-5.2,2.6-7.8c0.4-1.2,0.8-2.4,1.2-3.6l0.2-0.7l0.6,0.4
			c2.2,1.7,2.3,1.9,1.4,4.2l0,0.1c-0.6,1.7-1.3,3.5-1.9,5.3c-1.9,5.2-3.8,10.5-5.6,15.8c-2.4,6.7-4.8,13.6-7.1,20.3
			c-3.2,9.3-6.6,18.9-9.9,28.4c-1.3,3.8-2.8,7.5-4.3,11.1c-0.6,1.4-1.1,2.9-1.7,4.3c-0.2,0.5-0.4,0.9-0.7,1.4
			c-0.1,0.2-0.3,0.5-0.4,0.7L475.9,541.7z M506.4,450.9c-0.3,1-0.6,1.9-1,2.9c-0.8,2.6-1.7,5.2-2.6,7.8c-1.6,4.5-3.2,9.2-4.7,13.6
			c-3.2,9.2-6.5,18.7-9.6,28.1c-3.2,9.6-6.7,20-11,30.2c-0.4,0.9-0.7,1.8-1.1,2.7c-0.2,0.6-0.4,1.1-0.6,1.7c-0.3,0.6-0.3,1.2,0,1.8
			c0,0,0,0,0-0.1c0.3-0.5,0.5-0.9,0.6-1.3c0.6-1.4,1.1-2.9,1.7-4.3c1.5-3.6,2.9-7.4,4.3-11.1c3.3-9.4,6.7-19.1,9.9-28.3
			c2.3-6.6,4.7-13.5,7.1-20.3c1.8-5.3,3.8-10.6,5.7-15.8c0.6-1.7,1.3-3.5,1.9-5.3l0-0.1c0.3-0.9,0.5-1.4,0.4-1.7
			C507.2,451.6,506.9,451.4,506.4,450.9z M564.7,475.6l0-0.6c0.1-1.1,0.1-2,0.3-2.7l-0.9,3.2l-5-0.9l1.3-5l5.3,0.4l-0.4,1.2
			c0.6-1.3,1.8-1.4,4.9-1.4h0.6l-0.1,0.6c-0.1,0.3-0.1,0.5-0.2,0.7c-0.1,0.6-0.2,1.1-0.4,1.7c-0.1,0.5-0.3,1-0.6,1.5
			c-0.1,0.2-0.2,0.5-0.3,0.7l-0.1,0.3L564.7,475.6z M568.8,471c-1.3,0-2,0.1-2.4,0.4c-0.4,0.4-0.6,1.4-0.6,3.1h2.7
			c0.1-0.2,0.1-0.3,0.2-0.4c0.2-0.5,0.4-1,0.5-1.4c0.2-0.5,0.3-1,0.4-1.6c0,0,0-0.1,0-0.1C569.3,471,569.1,471,568.8,471z
			 M560.3,473.8l3,0.5l0.9-3.3l-3.1-0.2L560.3,473.8z M559,474.7l-5.8-1.4l1.1-4.4l6,0.8L559,474.7z M554.4,472.5l3.8,0.9l0.7-2.9
			L555,470L554.4,472.5z M552.9,473l-6.2-1.9l1.2-4.2l6.3,1.9L552.9,473z M548,470.5l4.2,1.3l0.6-2.2l-4.2-1.3L548,470.5z
			 M546.5,471.1l-5.6-2.1l1.5-4.4l5.4,2.3L546.5,471.1z M542.2,468.4l3.6,1.4l0.7-2.3L543,466L542.2,468.4z M540.8,469l-6.1-2.8
			l2.1-4.1l5.4,2.4L540.8,469z M536.1,465.7l4.1,1.8l0.8-2.5l-3.7-1.6L536.1,465.7z M534.6,466.1l-4.8-2.3l2-4.4l4.7,2.5
			L534.6,466.1z M531.2,463.4l2.9,1.4l1.1-2.3l-2.9-1.5L531.2,463.4z M529.6,463.8l-4.7-2.7l2.6-3.6l4.3,1.9L529.6,463.8z
			 M526.5,460.8l2.7,1.6l1.2-2.4l-2.5-1.1L526.5,460.8z M524.9,461.1l-5.7-3.3l2.6-3.6l5.6,3.2L524.9,461.1z M520.6,457.4l3.9,2.2
			l1.3-1.9l-3.8-2.2L520.6,457.4z M518.9,457.7l-5-3l3-3.7l4.8,3L518.9,457.7z M515.5,454.4l3.2,1.9l1.5-2l-3-1.9L515.5,454.4z
			 M513.9,454.4l-0.4-0.1c-2.4-0.9-4.1-2.3-5.4-4.1l-0.2-0.4l3.5-3.8l5.3,4.8L513.9,454.4z M509.2,449.8c1.1,1.4,2.5,2.5,4.4,3.3
			l1.7-2.2l-3.9-3.5L509.2,449.8z M507.7,449.3l-0.4-0.3c-1.2-0.9-2.3-2.1-2.3-3.5c0-1.2,0.9-2.4,2.8-3.8l0.5-0.3l2.8,4.3
			L507.7,449.3z M508,442.8c-1.3,1-1.9,1.9-1.9,2.7c0,0.7,0.5,1.4,1.6,2.4l2.1-2.3L508,442.8z M557.9,405.9l0.3-0.9
			c0.5-1.5,1.6-1.6,2.3-1.7c0.2,0,0.4,0,0.5-0.1l0.6-0.1l0.3,1.8L557.9,405.9z M558.8,403.5c-0.3,0-0.5-0.4-0.6-0.6
			c0-0.1-0.1-0.2-0.1-0.3l-0.2-0.4l-0.2,0.1l-7.1-15.5l3.5-2.1l0.3,0.4c3.2,4.9,5.1,10,6.6,14.9l0.1,0.4l-2.7,1.4l2.5-1l0.6,1.6
			l-0.6,0.2c-0.6,0.2-1.3,0.5-1.9,0.7C558.9,403.5,558.8,403.5,558.8,403.5z M551.9,387.3l6.3,13.6l1.7-0.9
			c-1.5-4.5-3.2-9.3-6.1-13.8L551.9,387.3z"/>
	</g>
</g>
<g>
	<path class="st0" d="M502.4,438.3C502.4,438.3,502.4,438.3,502.4,438.3c-0.1-0.1-0.3-0.2-0.3-0.2c-2.6-2.7-5.2-5.3-7.8-7.9
		c-0.6-0.7-1.5-1-2.4-1c-0.9,0-1.9,0.4-2.9,0.7c-0.6,0.2-1.2,0.5-1.8,0.6c-1,0.2-2,0.5-3,0.7c-3.5,0.9-7.2,1.8-10.7,1.8l0,0
		c-0.2,0-0.4,0-0.6,0c-9.5-0.3-11.2-7.1-13.4-15.6l-0.2-0.7c-0.4-1.5-0.9-3.2-1.5-5c-2.3-7.1-5.1-15.8-1.6-21.5
		c1.7-2.8,5.6-4.2,8.8-5.1c2.6-0.7,5.2-1.5,7.8-2.3c2.8-0.8,5.6-1.7,8.4-2.5c0.8-0.2,1.7-0.5,2.7-0.8c4.6-1.3,10.9-3.2,16.3-3.2
		c3.3,0,6,0.7,7.9,2.1c4.8,3.5,6.2,10.3,7.4,16.3c0.2,1.1,0.5,2.2,0.7,3.2c0.1,0.6,0.3,1.3,0.5,1.9c1.6,6.7,3.2,13.6-0.5,19.4
		c-1.6,2.5-4.8,4.5-9.3,5.9c-0.7,0.2-1.1,0.3-1.5,0.3c-1.5,0.1-1.6,0.8-1.7,2.7l0,0.3c-0.3,2.9-0.4,6-0.6,9.3c0,0,0,0.1,0,0.1
		c0,0.2-0.1,0.2-0.1,0.2C502.6,438.3,502.5,438.3,502.4,438.3z"/>
	<path d="M516.9,397.9c-1.6-6.7-2.5-15.6-8.5-20c-6.9-5.2-20.4-0.3-27.6,1.7c-5.4,1.5-10.8,3.2-16.2,4.7c-3.3,0.9-7.4,2.4-9.3,5.5
		c-4.6,7.5,1.1,19.7,3,27.2c2.3,8.9,4,16.6,14.5,16.9c4.8,0.2,9.9-1.5,14.5-2.6c2.4-0.6,4.6-2.3,6.3-0.6c2.6,2.6,5.2,5.3,7.8,7.9
		c0.1,0.1,0.3,0.3,0.4,0.3c0.4,0.2,0.9,0.1,1.2-0.1c0.3-0.2,0.5-0.4,0.5-0.8c0,0,0-0.1,0-0.1v0c0.1-3.1,0.3-6.2,0.6-9.4
		c0.3-3,0.1-1.7,2.6-2.5c3.6-1.1,7.6-3,9.8-6.3C521,413.2,518.5,405.1,516.9,397.9z M516.2,415.6c-1.5,5.8-8.1,7.7-13.2,9.2
		c-0.6,0.2-0.8,0.6-0.9,1.2c-0.3,3-0.6,6-0.7,9c-2.9-3.6-6.2-8-10.6-6.9c-6.7,1.7-19.1,6.6-25.2,1.3c-3.2-2.9-3.9-9.1-5-13
		c-1.3-4.7-2.4-9.4-3.6-14.2c-0.8-3.3-1.7-7-0.3-10.3c1.9-4.4,8.6-5.3,12.7-6.5c7.9-2.3,15.7-4.8,23.8-6.3c4-0.7,8.3-1.1,12.2,0.1
		c3.8,1.1,5.4,5.5,6.4,9c1.6,5.8,3,11.7,4.2,17.7C516.8,409.1,517,412.3,516.2,415.6z M499,389c0.3-0.9,1-1.7,1.7-2.4
		c0.7-0.8,1.4-1.7,2.3-2.2c0.2-0.1,0.4,0.1,0.3,0.3c-0.2,1-0.9,1.8-1.7,2.5c-0.7,0.7-1.4,1.6-2.3,2.1
		C499.1,389.4,498.9,389.2,499,389z M503.2,388.6c-0.1,0.6-0.5,0.9-1,1.2c-0.5,0.3-0.9,0.6-1.5,0.6c-0.2,0-0.4-0.2-0.3-0.4
		c0.3-0.6,0.7-0.9,1.2-1.3c0.4-0.3,0.7-0.6,1.3-0.5C503.1,388.4,503.2,388.5,503.2,388.6z M475.3,418.5c-0.3,1.1-0.7,1.9-1.4,2.8
		c-0.5,0.6-0.9,1.6-1.7,1.7c-0.1,0-0.1-0.1-0.2-0.1c-0.1-0.9,0.6-1.5,1.1-2.1c0.6-0.8,1.3-1.6,1.9-2.4
		C475.2,418.3,475.3,418.4,475.3,418.5z M472.2,418.9c0.3-0.6,0.9-1.2,1.6-1.4c0.2,0,0.3,0.1,0.3,0.3c-0.1,0.6-0.6,1.4-1.2,1.7
		C472.4,419.7,472,419.3,472.2,418.9z M477.3,419c0.2,0.4,0.2,0.9,0.1,1.3c-0.1,0.5-0.1,1-0.4,1.5c-0.2,0.3-0.7,0.3-0.8-0.1
		c-0.1-0.6,0.1-1.1,0.3-1.6c0.1-0.4,0.3-0.8,0.6-1.1C477.1,418.9,477.2,418.9,477.3,419z M506.1,414c0,0.3-0.1,0.4-0.4,0.5
		c-0.8,0.1-1.5-0.8-2-1.3c-0.6-0.6-1.3-1.1-1.8-1.8c-0.1-0.1,0-0.2,0.1-0.2c0.9,0,1.7,0.6,2.4,1.1C505,412.7,506,413.3,506.1,414z
		 M503.1,410.2c-0.1-0.1-0.1-0.2,0-0.2c0.8-0.3,2.1,0,2.4,0.8c0,0.1,0,0.2-0.1,0.2c-0.5,0.1-0.6-0.1-1-0.2
		C504,410.5,503.6,410.4,503.1,410.2z M502.1,414.2c0.1,0.2,0.1,0.4-0.1,0.5c0,0-0.1,0-0.1,0.1c-0.2,0.1-0.4,0-0.5-0.1
		c-0.5-0.4-0.8-1.1-1-1.7c0-0.1,0.1-0.2,0.2-0.2C501.2,413,501.9,413.6,502.1,414.2z M470.4,394.8c0.2,0.3,0.3,0.5,0.4,0.8
		c0,0.1-0.1,0.2-0.2,0.2c-0.4,0-0.7-0.1-1.1-0.3c-0.4-0.2-0.6-0.5-1-0.7c-0.6-0.5-1.3-0.9-1.5-1.7c0-0.1,0-0.3,0.2-0.3
		c0.9-0.2,1.5,0.4,2.1,1C469.7,394.1,470.1,394.4,470.4,394.8z M472.1,394.7c-0.3-0.1-0.4-0.1-0.6-0.3c-0.2-0.2-0.4-0.5-0.6-0.7
		c-0.3-0.5-0.6-1-0.6-1.6c0-0.5,0.5-0.7,0.9-0.5c0.6,0.3,0.8,0.9,1.1,1.5c0.1,0.3,0.2,0.6,0.3,0.8c0,0.1,0,0.5,0,0.4
		C472.5,394.6,472.3,394.8,472.1,394.7z M467.8,406c-0.8,0.5-2.4,0.7-3.1-0.1c-0.1-0.1-0.1-0.2,0-0.3c0.7-0.8,2.2-0.9,3.1-0.4
		C468.1,405.4,468.1,405.8,467.8,406z M484.1,387.7c-0.1-0.7-0.1-1.2,0.2-1.9c0-0.1,0.2-0.1,0.3-0.1c1.2,0.5,1.3,2.7,0.5,3.6
		c0,0-0.1,0.1-0.2,0C484.4,389,484.2,388.3,484.1,387.7z M508.2,398.2c-0.4,1-2.2,1.3-3.1,0.9c-0.1-0.1-0.1-0.2,0-0.3
		c0.4-0.4,0.9-0.6,1.3-0.7c0.5-0.2,0.9-0.5,1.5-0.4C508.1,397.6,508.3,397.9,508.2,398.2z M494.9,421.5c-0.1,0.1-0.2,0.1-0.3,0.1
		c-0.6-0.3-0.7-0.8-0.9-1.4c-0.2-0.5-0.5-0.9-0.6-1.5c-0.1-0.3,0.2-0.5,0.4-0.3C494.4,418.9,495.4,420.5,494.9,421.5z M498.6,393.9
		c-4.9-5-11.8-0.2-14.1,5.2c-2-2.2-4.4-3.8-7.6-3.3c-3.2,0.5-4.8,3.9-5.2,6.8c-1.1,8.9,9.7,14.8,17,15.6c0.4,0,0.6-0.1,0.8-0.4
		C495.4,413.1,506.3,401.8,498.6,393.9z M473.8,405.8c-0.4-0.7-0.6-2.1,0.3-2.5c0.1,0,0.2,0,0.2,0.1c0.1,0.3,0.1,0.7,0.1,1.1
		c0,0.4,0.1,0.7,0.1,1C474.5,406,474,406.2,473.8,405.8z M486,415.1c-2.6,0.1-4.8-1.4-6.8-2.9c-1.7-1.3-3.7-3-4.3-5.1
		c0,0,0-0.1,0.1-0.1c2,1.3,3.4,3.3,5.4,4.6c1.8,1.2,3.9,1.9,5.8,3C486.3,414.8,486.2,415.1,486,415.1z M494,394.7
		c-0.1,0,0-0.1,0-0.1c2.8-0.9,7,4,5,6.4c-0.1,0.1-0.3,0.1-0.4,0c-0.7-1.2-0.7-2.6-1.5-3.7C496.3,396.1,495.2,395.5,494,394.7z
		 M499,404.1c-0.1,0-0.2,0-0.3-0.1c-0.2-0.4-0.1-0.6,0-1c0.1-0.3,0.1-0.6,0.4-0.8c0.1-0.1,0.2-0.1,0.2,0
		C499.8,402.6,499.5,403.8,499,404.1z"/>
</g>
<text transform="matrix(1 0 0 1 239.6077 454.313)" class="st8 st9">EST.</text>
<text transform="matrix(1 0 0 1 234.3945 488.7246)" class="st8 st9">2022</text>
<path d="M103.4,238.9l0.1,2.4l4.1-0.2l0.1,1.7l-4.1,0.2l0.1,3.3l-2.1,0.1l-0.4-9l6.8-0.3l0.1,1.7L103.4,238.9z"/>
<path d="M111.5,245.4c-0.8-0.4-1.4-0.9-1.8-1.6c-0.5-0.7-0.7-1.5-0.7-2.4c0-0.9,0.1-1.7,0.6-2.4c0.4-0.7,1-1.3,1.7-1.7
	c0.7-0.4,1.6-0.7,2.5-0.7c0.9,0,1.8,0.1,2.5,0.5c0.7,0.4,1.4,0.9,1.8,1.6c0.5,0.7,0.7,1.5,0.7,2.4c0,0.9-0.1,1.7-0.6,2.4
	c-0.4,0.7-1,1.3-1.7,1.7c-0.7,0.4-1.6,0.7-2.5,0.7C113.1,246,112.3,245.8,111.5,245.4z M115.4,243.7c0.4-0.3,0.7-0.6,1-1.1
	c0.2-0.5,0.3-0.9,0.3-1.5c0-0.6-0.2-1-0.4-1.5c-0.3-0.4-0.6-0.7-1-1c-0.4-0.2-0.9-0.3-1.5-0.3s-1,0.2-1.4,0.4
	c-0.4,0.3-0.7,0.6-1,1.1c-0.2,0.5-0.3,0.9-0.3,1.5c0,0.6,0.2,1,0.4,1.5s0.6,0.7,1,1c0.4,0.2,0.9,0.3,1.5,0.3
	C114.5,244.1,115,244,115.4,243.7z"/>
<path d="M122.3,245c-0.8-0.4-1.4-0.9-1.8-1.6c-0.5-0.7-0.7-1.5-0.7-2.4c0-0.9,0.1-1.7,0.6-2.4c0.4-0.7,1-1.3,1.7-1.7
	c0.7-0.4,1.6-0.7,2.5-0.7c0.9,0,1.8,0.1,2.5,0.5c0.7,0.4,1.4,0.9,1.8,1.6c0.5,0.7,0.7,1.5,0.7,2.4c0,0.9-0.1,1.7-0.6,2.4
	c-0.4,0.7-1,1.3-1.7,1.7s-1.6,0.7-2.5,0.7C123.9,245.5,123.1,245.4,122.3,245z M126.2,243.3c0.4-0.3,0.7-0.6,1-1.1
	c0.2-0.5,0.3-0.9,0.3-1.5c0-0.6-0.2-1-0.4-1.5c-0.3-0.4-0.6-0.7-1-1c-0.4-0.2-0.9-0.3-1.5-0.3c-0.5,0-1,0.2-1.4,0.4
	c-0.4,0.3-0.7,0.6-1,1.1c-0.2,0.5-0.3,0.9-0.3,1.5c0,0.6,0.2,1,0.4,1.5c0.3,0.4,0.6,0.7,1,1c0.4,0.2,0.9,0.3,1.5,0.3
	C125.3,243.7,125.8,243.5,126.2,243.3z"/>
<path d="M131,236.1l4.1-0.2c1,0,1.8,0.1,2.6,0.5c0.8,0.4,1.4,0.8,1.8,1.5c0.5,0.6,0.7,1.4,0.7,2.3c0,0.9-0.1,1.7-0.5,2.4
	c-0.4,0.7-0.9,1.2-1.7,1.7c-0.7,0.4-1.6,0.6-2.6,0.6l-4.1,0.2L131,236.1z M135.2,243.2c0.9,0,1.6-0.3,2.1-0.8
	c0.5-0.5,0.7-1.2,0.7-2.1c0-0.8-0.3-1.5-0.9-2s-1.3-0.7-2.2-0.6l-1.9,0.1l0.2,5.6L135.2,243.2z"/>
<path d="M105,274.9l-1.1-0.9c-0.8,0.7-1.8,1.1-2.9,1.2c-0.6,0-1.2,0-1.8-0.2c-0.5-0.2-1-0.5-1.3-0.8c-0.3-0.4-0.5-0.8-0.5-1.2
	c0-0.6,0.1-1,0.4-1.5c0.3-0.5,0.8-0.9,1.4-1.3c-0.4-0.3-0.6-0.6-0.7-0.9c-0.2-0.3-0.3-0.6-0.3-0.9c0-0.4,0.1-0.8,0.3-1.2
	c0.2-0.4,0.5-0.6,0.9-0.8c0.4-0.2,0.9-0.3,1.5-0.4c0.8,0,1.4,0.1,1.9,0.5c0.5,0.4,0.7,0.8,0.8,1.5c0,0.5-0.1,0.9-0.4,1.3
	c-0.3,0.4-0.7,0.7-1.3,1.1l1.7,1.4c0.2-0.4,0.3-0.9,0.4-1.4l1.6,0.4c-0.1,0.8-0.4,1.5-0.7,2.1l1.1,0.9L105,274.9z M102.6,272.9
	l-2.3-1.9c-0.4,0.3-0.6,0.5-0.8,0.7c-0.2,0.2-0.2,0.5-0.2,0.8c0,0.3,0.2,0.6,0.5,0.8c0.3,0.2,0.7,0.3,1.2,0.2
	C101.5,273.5,102.1,273.3,102.6,272.9z M100.2,267.5c-0.2,0.2-0.2,0.4-0.2,0.6c0,0.2,0.1,0.4,0.2,0.5c0.1,0.2,0.3,0.4,0.6,0.6
	c0.4-0.3,0.7-0.5,0.9-0.7c0.2-0.2,0.2-0.4,0.2-0.6c0-0.2-0.1-0.4-0.3-0.5c-0.2-0.1-0.4-0.2-0.7-0.2
	C100.5,267.3,100.3,267.4,100.2,267.5z"/>
<path d="M112.4,267l-2.9,0.2l-0.1-1.7l7.8-0.5l0.1,1.7l-2.9,0.2l0.4,7.3l-2.1,0.1L112.4,267z"/>
<path d="M125.8,271.9l0.1,1.7l-6.9,0.4l-0.5-9l6.8-0.4l0.1,1.7l-4.7,0.3l0.1,1.9l4.1-0.2l0.1,1.6l-4.1,0.2l0.1,2.1L125.8,271.9z"/>
<path d="M134.3,271.4l0.1,1.7l-6.9,0.4l-0.5-9l6.8-0.4l0.1,1.7l-4.7,0.3l0.1,1.9l4.1-0.2l0.1,1.6l-4.1,0.2l0.1,2.1L134.3,271.4z"/>
<path d="M137,272.8c-0.7-0.2-1.2-0.4-1.7-0.6l0.6-1.6c0.4,0.3,0.9,0.5,1.4,0.6c0.6,0.1,1.1,0.2,1.6,0.2c0.6,0,1-0.2,1.3-0.3
	c0.3-0.2,0.4-0.4,0.4-0.7c0-0.2-0.1-0.4-0.3-0.5c-0.2-0.1-0.4-0.2-0.6-0.3c-0.3-0.1-0.6-0.1-1.1-0.2c-0.7-0.1-1.3-0.3-1.7-0.4
	c-0.5-0.1-0.8-0.4-1.2-0.7c-0.3-0.4-0.5-0.8-0.6-1.4c0-0.5,0.1-1,0.4-1.4c0.3-0.5,0.6-0.8,1.2-1.1c0.6-0.3,1.2-0.5,2.1-0.5
	c0.6,0,1.1,0,1.7,0.1c0.6,0.1,1,0.3,1.5,0.5l-0.6,1.6c-0.8-0.4-1.7-0.6-2.5-0.6c-0.6,0-1,0.2-1.3,0.4c-0.3,0.2-0.4,0.5-0.4,0.8
	c0,0.3,0.2,0.5,0.5,0.6c0.3,0.1,0.8,0.3,1.5,0.4c0.7,0.1,1.3,0.3,1.7,0.4s0.8,0.4,1.2,0.7c0.3,0.3,0.5,0.8,0.6,1.4
	c0,0.5-0.1,1-0.4,1.4c-0.3,0.5-0.7,0.8-1.2,1.1c-0.6,0.3-1.2,0.5-2.1,0.5C138.4,273,137.6,272.9,137,272.8z"/>
<g>
	<g>
		<circle class="st0" cx="509.9" cy="91.3" r="70.4"/>
		<path d="M509.9,164.2c-9.8,0-19.4-1.9-28.4-5.7c-8.7-3.7-16.5-8.9-23.2-15.6s-11.9-14.5-15.6-23.2c-3.8-9-5.7-18.5-5.7-28.4
			s1.9-19.4,5.7-28.4c3.7-8.7,8.9-16.5,15.6-23.2s14.5-11.9,23.2-15.6c9-3.8,18.5-5.7,28.4-5.7c9.9,0,19.4,1.9,28.4,5.7
			c8.7,3.7,16.5,8.9,23.2,15.6s11.9,14.5,15.6,23.2c3.8,9,5.7,18.5,5.7,28.4s-1.9,19.4-5.7,28.4c-3.7,8.7-8.9,16.5-15.6,23.2
			s-14.5,11.9-23.2,15.6C529.2,162.3,519.7,164.2,509.9,164.2z M509.9,23.5c-18.1,0-35.1,7.1-47.9,19.9s-19.9,29.8-19.9,47.9
			s7.1,35.1,19.9,47.9s29.8,19.9,47.9,19.9s35.1-7.1,47.9-19.9c12.8-12.8,19.9-29.8,19.9-47.9s-7.1-35.1-19.9-47.9
			C545,30.5,528,23.5,509.9,23.5z"/>
	</g>
	<g>
		<g>
			<path d="M487.1,86.2c0,2.6,0,5.2,0,7.7c0,0.6,0,0.9-0.7,0.9c-2.6,0-5.1,0-7.7,0c-0.6,0-0.7-0.2-0.7-0.7c0.2-8.1,0.2-16.3,0-24.4
				c0-0.5,0.1-0.7,0.6-0.7c3.8,0,7.5,0,11.3,0c1,0,2,0.1,2.9,0.4c2.7,0.9,4.2,2.9,4.4,5.7c0.1,1.8,0.1,3.5-0.7,5.2
				c-0.8,1.7-2.2,2.7-4.1,2.8c-0.8,0-0.8,0.3-0.5,0.9c1,1.9,2.7,2.9,5.2,2.6c0.5,0,0.7,0,0.7,0.6c0,2.3,0.1,4.5,0.2,6.8
				c0,0.7-0.3,0.9-0.8,1c-4.7,0.9-8.2-0.6-9.6-5.9c-0.3-1-0.4-2-0.6-3C487.2,86.2,487.2,86.2,487.1,86.2z M487,79c0,0.6,0,1.2,0,1.8
				c0,0.3-0.3,0.7,0.3,0.8c0.5,0,1,0.1,1.2-0.5c0.3-1.4,0.3-2.8,0-4.1c-0.1-0.6-0.7-0.4-1.2-0.4c-0.5,0-0.3,0.4-0.3,0.7
				C487,77.7,487,78.4,487,79z"/>
			<path d="M509.6,68.4c1.6-0.1,3.1,0,4.6,0.6c2.8,1.1,4.3,3.4,5,6.1c1.2,4.7,1.2,9.4-0.2,14.1c-1.2,3.9-4.1,5.9-8.1,6
				c-1.5,0-3.1,0.1-4.6-0.3c-3.4-0.8-5.3-3.1-6.1-6.3c-1.2-4.6-1.2-9.3,0-13.9c1-4,4-6.3,8.2-6.4C508.7,68.4,509.2,68.4,509.6,68.4z
				 M508.4,82c0.1,1.5-0.1,3,0.2,4.4c0.1,0.6,0.2,1.1,1,1.1c0.8,0,0.9-0.6,0.9-1.2c0.3-2.9,0.3-5.7,0-8.6c-0.1-0.6-0.2-1.2-0.9-1.2
				c-0.7,0-0.9,0.5-1,1C508.4,79,508.5,80.5,508.4,82z"/>
			<path d="M532.1,68.4c2.3,0,4.6,0.3,6.8,0.5c0.6,0.1,0.9,0.3,0.9,1c-0.2,1.9-0.3,3.9-0.3,5.9c0,0.6-0.1,0.9-0.9,0.6
				c-1.6-0.5-3.2-0.9-4.9-1c-0.4,0-0.8,0-1.2,0.1c-1,0.3-1.3,1.2-0.7,2.1c0.5,0.7,1.2,1.1,1.8,1.6c1.4,1,2.9,1.9,4.2,3.1
				c3.8,3.6,3.1,10.8-3.5,12.5c-3.1,0.8-6.3,0.4-9.4-0.3c-0.9-0.2-1.7-0.5-2.6-0.7c-0.5-0.1-0.7-0.4-0.6-0.9
				c0.2-2.1,0.4-4.3,0.6-6.4c0-0.7,0.2-0.7,0.8-0.4c1.7,0.9,3.6,1.5,5.5,1.5c0.6,0,1.3-0.1,1.6-0.8s-0.2-1.2-0.7-1.6
				c-1.1-1-2.4-1.6-3.6-2.4c-1.6-1.1-3.1-2.4-4-4.2c-1.9-4.3,0.5-8.7,5.3-9.8C528.8,68.5,530.5,68.4,532.1,68.4z"/>
			<path d="M541.6,85.9c1.4,0.7,2.6,1.2,4,1.5c0.7,0.2,1.4,0.3,2.1,0.3c0.7,0,1.5,0,1.7-0.8c0.3-0.8-0.3-1.3-0.8-1.7
				c-1-0.7-2-1.3-2.9-2c-1.5-0.9-2.8-1.9-3.8-3.4c-3-4.4-0.7-9.8,4.6-11c3.2-0.7,6.3-0.4,9.5-0.1c0.7,0.1,1.4,0.2,2.1,0.3
				c0.7,0,1,0.3,0.9,1.1c-0.2,1.8-0.2,3.7-0.3,5.5c-0.1,1.4,0.1,1.2-1.2,0.8c-1.5-0.4-3-0.8-4.6-0.8c-0.3,0-0.7,0-1,0.1
				c-1.2,0.3-1.5,1.2-0.8,2.2c0.5,0.7,1.2,1.1,1.9,1.6c1.4,0.9,2.8,1.8,4,3c4.4,4.4,2.6,11-3.4,12.5c-3.1,0.8-6.3,0.4-9.4-0.3
				c-0.9-0.2-1.8-0.5-2.7-0.7c-0.3-0.1-0.6-0.2-0.6-0.7C541.1,90.8,541.4,88.4,541.6,85.9z"/>
			<path d="M470.6,68.4c2-0.1,3.7,0.3,5.3,0.6c0.5,0.1,0.8,0.3,0.7,0.9c-0.2,1.9-0.4,3.8-0.6,5.7c-0.1,0.6-0.3,0.7-0.8,0.5
				c-1.5-0.4-3.1-0.6-4.6-0.1c-0.6,0.2-1.2,0.5-1.7,0.9c-1.9,1.6-2.6,5.5-1.3,8.2c1,2.1,3.3,3.1,6.1,2.7c0.4-0.1,0.7-0.1,1.1-0.3
				c1.2-0.3,1.2-0.4,1.3,0.9c0.1,1.6,0.3,3.1,0.5,4.7c0.1,0.5-0.1,0.7-0.5,0.9c-4.5,1.8-8.9,1.9-13.3-0.4c-2.3-1.3-3.7-3.4-4.4-5.9
				c-1.1-3.9-1-7.8,0.3-11.6c1.6-4.6,5.6-7.4,10.7-7.6C469.9,68.4,470.4,68.4,470.6,68.4z"/>
		</g>
		<g>
			<path d="M467.2,113.4c0,2.6,0,5.2,0,7.7c0,0.6-0.1,0.9-0.8,0.8c-2.5,0-5.1,0-7.6,0c-0.6,0-0.8-0.2-0.7-0.8
				c0.2-8.1,0.2-16.2,0-24.3c0-0.6,0.2-0.7,0.8-0.7c3.6,0,7.2,0,10.9,0c1.1,0,2.2,0.1,3.3,0.5c2.3,0.7,3.7,2.2,4.2,4.6
				c0.4,2.1,0.4,4.3-0.5,6.3c-0.8,1.8-2.2,2.7-4.1,2.9c-0.7,0-0.8,0.2-0.5,0.8c0.9,2,2.7,2.9,5.2,2.7c0.6-0.1,0.7,0.1,0.7,0.6
				c0,2.2,0.1,4.5,0.2,6.7c0,0.7-0.2,1-0.8,1.1c-4.8,0.9-8.2-0.6-9.5-5.9C467.6,115.4,467.5,114.4,467.2,113.4
				C467.3,113.4,467.3,113.4,467.2,113.4z M467.1,106.1c0,0.6,0,1.2,0,1.8c0,0.3-0.3,0.8,0.4,0.8c0.5,0,1,0,1.2-0.6
				c0.2-1.3,0.2-2.6,0-3.9c-0.1-0.7-0.7-0.6-1.2-0.6c-0.6,0-0.4,0.5-0.4,0.7C467.1,104.9,467.1,105.5,467.1,106.1z"/>
			<path d="M489.7,95.6c1.5-0.1,3.1,0.1,4.5,0.6c2.6,1,4.2,3.1,4.9,5.7c1.4,5.2,1.5,10.3-0.4,15.4c-1.3,3.3-3.9,5-7.4,5.1
				c-1.6,0.1-3.2,0.1-4.9-0.2c-3.3-0.8-5.2-2.9-6.1-6c-1.3-4.5-1.3-9.1-0.2-13.6c1.2-4.9,4-6.9,9.1-7
				C489.3,95.6,489.5,95.6,489.7,95.6z M488.5,109.2c0.1,1.5-0.1,3,0.2,4.4c0.1,0.5,0.2,1.1,0.9,1c0.8,0,0.9-0.6,0.9-1.2
				c0.3-2.9,0.3-5.8,0-8.7c-0.1-0.6-0.2-1.1-0.9-1.1c-0.7,0-0.9,0.5-1,1C488.4,106.2,488.6,107.7,488.5,109.2z"/>
			<path d="M523.8,109c0-4,0-7.9,0-11.8c0-0.9,0.3-1,1.1-1c2.8,0,5.7,0,8.5,0c5.3,0,8.2,1.9,9.6,7.1c1.2,4.5,1.2,9-0.6,13.4
				c-1.4,3.4-3.9,5.2-7.6,5.3c-3.4,0.1-6.9,0-10.3,0c-0.7,0-0.7-0.3-0.7-0.8C523.8,117.2,523.7,113.1,523.8,109
				C523.7,109,523.7,109,523.8,109z M532.7,109.2C532.7,109.2,532.7,109.2,532.7,109.2c0,1.6,0,3.3,0,4.9c0,0.6,0.2,0.6,0.7,0.5
				c0.7-0.2,0.9-0.7,0.9-1.4c0.2-2.7,0.2-5.4,0-8.2c0-0.4-0.2-0.8-0.4-1.1c-0.2-0.3-0.6-0.4-0.9-0.3c-0.4,0.1-0.2,0.4-0.2,0.7
				C532.7,105.9,532.7,107.5,532.7,109.2z"/>
			<path d="M511.3,96.2c2,0,4.1,0,6.1,0c0.6,0,0.8,0.2,0.9,0.8c1.1,7.7,2.4,15.4,3.9,23c0.4,2,0.4,2-1.7,2c-2.4,0-4.7,0-7.1,0
				c-0.6,0-0.7-0.2-0.8-0.7c0-1-0.1-2.1-0.2-3.1c0-0.6-0.1-0.8-0.8-0.8c-1.9,0-1.9,0-2.1,1.8c0,0.1,0,0.2,0,0.3
				c-0.1,0.8,0.2,2-0.4,2.4c-0.6,0.4-1.6,0.1-2.5,0.1c-1.8,0-3.7,0-5.5,0c-1.3,0-1.3,0-1-1.2c0.9-4,1.6-8.1,2.3-12.2
				c0.6-3.9,1.2-7.8,1.8-11.7c0.1-0.6,0.3-0.8,0.9-0.8C507.2,96.2,509.2,96.2,511.3,96.2z M511.1,103.2c-0.5,0.7-0.3,1.4-0.4,2.1
				c-0.2,1.8-0.3,3.5-0.5,5.3c0,0.5,0.2,0.5,0.6,0.4c0.3-0.1,1,0.3,0.9-0.3C511.6,108.3,511.3,105.8,511.1,103.2z"/>
			<path d="M544.7,113c1.4,0.7,2.7,1.2,4,1.5c0.9,0.2,1.8,0.3,2.7,0.3c0.5,0,0.9-0.2,1.1-0.7c0.2-0.5,0-0.9-0.3-1.3
				c-0.6-0.7-1.4-1.1-2.2-1.6c-1.4-0.9-2.8-1.7-4-2.9c-2.1-2-2.9-4.4-2.2-7.2c0.7-3,3-4.4,5.8-5.1c3.1-0.8,6.3-0.4,9.4-0.2
				c0.8,0.1,1.6,0.2,2.4,0.3c0.4,0.1,0.7,0.2,0.7,0.8c-0.1,2.1-0.3,4.3-0.4,6.4c0,0.5-0.2,0.5-0.6,0.3c-1.4-0.4-2.8-0.8-4.2-0.9
				c-0.5,0-1.1-0.1-1.6-0.1c-0.6,0-1.3,0.2-1.5,0.9c-0.3,0.7,0.1,1.2,0.6,1.7c1,0.9,2.2,1.6,3.2,2.3c1.3,0.9,2.6,1.9,3.5,3.3
				c2.8,4.3,0.7,9.7-4.2,11.1c-3.2,0.9-6.5,0.5-9.7-0.2c-0.8-0.2-1.6-0.4-2.4-0.6c-0.6-0.1-0.8-0.4-0.7-1
				C544.3,117.8,544.5,115.5,544.7,113z"/>
		</g>
	</g>
	<path d="M509.9,157.1c-17.6,0-34.1-6.8-46.5-19.3c-12.4-12.4-19.3-29-19.3-46.5s6.8-34.1,19.3-46.5c12.4-12.4,29-19.3,46.5-19.3
		c17.6,0,34.1,6.8,46.5,19.3s19.3,29,19.3,46.5s-6.8,34.1-19.3,46.5S527.4,157.1,509.9,157.1z M509.9,27.4
		c-17.1,0-33.1,6.6-45.2,18.7C452.6,58.2,446,74.2,446,91.3c0,17.1,6.6,33.1,18.7,45.2c12.1,12.1,28.1,18.7,45.2,18.7
		s33.1-6.6,45.2-18.7c12.1-12.1,18.7-28.1,18.7-45.2c0-17.1-6.6-33.1-18.7-45.2C543,34,526.9,27.4,509.9,27.4z"/>
	<g>
		<g>
			<path d="M490.6,60.8c0.1,0.1,0.4,0.2,0.6,0.2l15.4-0.9l0.7,12.1l1.5-0.1L508.1,60l4-0.3l0.7,12.1l1.5-0.1l-0.7-12.1l16.1-1
				c0.4,0,0.7-0.4,0.7-0.8l-1.1-17.7c0-0.4-0.4-0.7-0.8-0.7l-16.1,1l-0.2-3.7l15.6-1c0.2,0,0.4-0.1,0.6-0.3l7.9-9.4
				c0.3-0.3,0.2-0.8-0.1-1.1l-9-8.3c-0.1-0.1-0.4-0.2-0.6-0.2l-15.6,1l-0.1-2c-0.1-1.8-1.7-3.2-3.5-3.1l-0.4,0
				c-1.8,0.1-3.2,1.7-3.1,3.5l0.1,2l-15.8,1c-0.4,0-0.7,0.4-0.7,0.8l1.1,17.7c0,0.4,0.4,0.7,0.8,0.7l15.8-1l0.2,3.7L490,41.8
				c-0.2,0-0.4,0.1-0.6,0.3l-7.9,9.4c-0.3,0.3-0.2,0.8,0.1,1.1L490.6,60.8z M507.1,13.8l0.4,0c1-0.1,1.8,0.7,1.9,1.7l0.1,2l-4,0.3
				l-0.1-2C505.3,14.7,506.1,13.9,507.1,13.8z M510.7,36.7l0.2,3.7l-4,0.3l-0.2-3.7L510.7,36.7z"/>
			<polygon class="st0" points="490,36.5 489,20.3 526.5,18 534.7,25.6 527.5,34.1 			"/>
			<polygon class="st0" points="490.5,43.3 527.9,41 528.9,57.1 491.4,59.5 483.2,51.8 			"/>
		</g>
		<g>
			<path d="M494.2,24.8l0.1,2l3.5-0.1l0.1,1.4l-3.5,0.1l0.1,2.7l-1.7,0.1l-0.3-7.5l5.6-0.2l0.1,1.4L494.2,24.8z"/>
			<path d="M501,30.3c-0.6-0.3-1.1-0.7-1.5-1.3c-0.4-0.6-0.6-1.2-0.6-2c0-0.7,0.1-1.4,0.4-2c0.3-0.6,0.8-1.1,1.4-1.4
				c0.6-0.4,1.3-0.6,2.1-0.6c0.8,0,1.5,0.1,2.1,0.4c0.6,0.3,1.1,0.7,1.5,1.3c0.4,0.6,0.6,1.2,0.6,2c0,0.7-0.1,1.4-0.4,2
				c-0.3,0.6-0.8,1.1-1.4,1.4c-0.6,0.4-1.3,0.6-2.1,0.6C502.3,30.7,501.6,30.6,501,30.3z M504.2,28.8c0.3-0.2,0.6-0.5,0.8-0.9
				c0.2-0.4,0.3-0.8,0.3-1.2c0-0.5-0.1-0.9-0.4-1.2c-0.2-0.4-0.5-0.6-0.9-0.8c-0.4-0.2-0.8-0.3-1.2-0.3c-0.4,0-0.8,0.1-1.2,0.4
				c-0.3,0.2-0.6,0.5-0.8,0.9c-0.2,0.4-0.3,0.8-0.3,1.2c0,0.5,0.1,0.9,0.4,1.2c0.2,0.4,0.5,0.6,0.9,0.8c0.4,0.2,0.8,0.3,1.2,0.3
				S503.9,29.1,504.2,28.8z"/>
			<path d="M510,29.9c-0.6-0.3-1.1-0.7-1.5-1.3s-0.6-1.2-0.6-2c0-0.7,0.1-1.4,0.4-2c0.3-0.6,0.8-1.1,1.4-1.4
				c0.6-0.4,1.3-0.6,2.1-0.6c0.8,0,1.5,0.1,2.1,0.4c0.6,0.3,1.1,0.7,1.5,1.3c0.4,0.6,0.6,1.2,0.6,2c0,0.7-0.1,1.4-0.4,2
				c-0.3,0.6-0.8,1.1-1.4,1.4c-0.6,0.4-1.3,0.6-2.1,0.6C511.3,30.3,510.6,30.2,510,29.9z M513.2,28.5c0.3-0.2,0.6-0.5,0.8-0.9
				c0.2-0.4,0.3-0.8,0.3-1.2c0-0.5-0.1-0.9-0.4-1.2c-0.2-0.4-0.5-0.6-0.9-0.8c-0.4-0.2-0.8-0.3-1.2-0.3c-0.4,0-0.8,0.1-1.2,0.4
				c-0.3,0.2-0.6,0.5-0.8,0.9c-0.2,0.4-0.3,0.8-0.3,1.2c0,0.5,0.1,0.9,0.4,1.2c0.2,0.4,0.5,0.6,0.9,0.8c0.4,0.2,0.8,0.3,1.2,0.3
				C512.5,28.8,512.8,28.7,513.2,28.5z"/>
			<path d="M517.1,22.5l3.4-0.1c0.8,0,1.5,0.1,2.2,0.4c0.6,0.3,1.1,0.7,1.5,1.2c0.4,0.6,0.6,1.2,0.6,1.9c0,0.7-0.1,1.4-0.4,2
				c-0.3,0.6-0.8,1-1.4,1.4c-0.6,0.3-1.3,0.5-2.1,0.6l-3.4,0.1L517.1,22.5z M520.7,28.4c0.7,0,1.3-0.3,1.8-0.7
				c0.4-0.4,0.6-1,0.6-1.7c0-0.7-0.3-1.3-0.7-1.7c-0.5-0.4-1.1-0.6-1.8-0.6l-1.6,0.1l0.2,4.6L520.7,28.4z"/>
		</g>
		<g>
			<path d="M495.5,54.8l-0.9-0.8c-0.7,0.6-1.5,0.9-2.4,1c-0.5,0-1,0-1.5-0.2c-0.4-0.1-0.8-0.4-1.1-0.7c-0.3-0.3-0.4-0.6-0.4-1
				c0-0.5,0.1-0.9,0.3-1.2c0.2-0.4,0.6-0.7,1.2-1.1c-0.3-0.3-0.5-0.5-0.6-0.8c-0.1-0.2-0.2-0.5-0.2-0.8c0-0.4,0.1-0.7,0.2-1
				c0.2-0.3,0.4-0.5,0.8-0.7c0.3-0.2,0.7-0.3,1.2-0.3c0.6,0,1.2,0.1,1.6,0.4s0.6,0.7,0.7,1.2c0,0.4-0.1,0.7-0.3,1s-0.6,0.6-1.1,0.9
				l1.4,1.2c0.1-0.3,0.2-0.7,0.3-1.2l1.3,0.3c-0.1,0.7-0.3,1.2-0.6,1.7l0.9,0.8L495.5,54.8z M493.5,53.1l-1.9-1.6
				c-0.3,0.2-0.6,0.4-0.7,0.6s-0.2,0.4-0.2,0.6c0,0.3,0.1,0.5,0.4,0.6c0.3,0.1,0.6,0.2,1,0.2C492.7,53.6,493.1,53.5,493.5,53.1z
				 M491.5,48.6c-0.1,0.1-0.2,0.3-0.2,0.5c0,0.1,0.1,0.3,0.1,0.4c0.1,0.1,0.3,0.3,0.5,0.5c0.3-0.2,0.6-0.4,0.7-0.6
				c0.1-0.2,0.2-0.3,0.2-0.5c0-0.2-0.1-0.3-0.2-0.4c-0.1-0.1-0.3-0.1-0.6-0.1C491.8,48.4,491.6,48.5,491.5,48.6z"/>
			<path d="M501.7,48.2l-2.4,0.1l-0.1-1.4l6.5-0.4l0.1,1.4l-2.4,0.1l0.3,6l-1.7,0.1L501.7,48.2z"/>
			<path d="M512.8,52.3l0.1,1.4l-5.8,0.3l-0.4-7.5l5.6-0.3l0.1,1.4l-3.9,0.2l0.1,1.6l3.5-0.2l0.1,1.3l-3.5,0.1l0.1,1.7L512.8,52.3z"
				/>
			<path d="M520,51.8l0.1,1.4l-5.8,0.3l-0.4-7.5l5.6-0.3l0.1,1.4l-3.9,0.2l0.1,1.6l3.5-0.2l0.1,1.3l-3.5,0.2l0.1,1.7L520,51.8z"/>
			<path d="M522.1,53c-0.6-0.1-1-0.3-1.4-0.6l0.5-1.3c0.3,0.2,0.7,0.4,1.2,0.5c0.4,0.1,0.9,0.2,1.3,0.1c0.5,0,0.9-0.1,1.1-0.3
				c0.2-0.1,0.3-0.4,0.3-0.6c0-0.2-0.1-0.3-0.2-0.4c-0.1-0.1-0.3-0.2-0.6-0.3c-0.2-0.1-0.5-0.1-0.9-0.2c-0.6-0.1-1-0.2-1.4-0.3
				s-0.7-0.3-1-0.6c-0.3-0.3-0.4-0.7-0.4-1.2c0-0.4,0.1-0.8,0.3-1.2c0.2-0.4,0.6-0.7,1-0.9c0.5-0.2,1-0.4,1.7-0.4
				c0.5,0,0.9,0,1.4,0.1c0.5,0.1,0.9,0.2,1.2,0.4l-0.4,1.3c-0.7-0.3-1.4-0.5-2.1-0.5c-0.5,0-0.8,0.1-1,0.3c-0.2,0.2-0.3,0.4-0.3,0.6
				c0,0.3,0.1,0.4,0.4,0.6c0.3,0.1,0.7,0.2,1.2,0.3c0.6,0.1,1,0.2,1.4,0.3c0.4,0.1,0.7,0.3,1,0.6c0.3,0.3,0.4,0.7,0.4,1.2
				c0,0.4-0.1,0.8-0.3,1.2c-0.2,0.4-0.6,0.7-1,0.9c-0.5,0.2-1,0.4-1.7,0.4C523.3,53.2,522.7,53.1,522.1,53z"/>
		</g>
	</g>
	<g>
		<path d="M490.3,142.7l-0.6,1.3l-5.3-2.4l3.1-6.8l5.1,2.4l-0.6,1.3l-3.6-1.6l-0.7,1.5l3.1,1.5l-0.6,1.2l-3.1-1.5l-0.7,1.6
			L490.3,142.7z"/>
		<path d="M492.4,144.7c-0.5-0.3-0.8-0.6-1.1-1l0.9-1.1c0.2,0.3,0.6,0.6,0.9,0.9c0.4,0.3,0.8,0.5,1.2,0.6c0.5,0.1,0.8,0.2,1.1,0.1
			c0.3-0.1,0.4-0.2,0.5-0.4c0-0.2,0-0.3-0.1-0.5c-0.1-0.1-0.2-0.3-0.4-0.4c-0.2-0.1-0.4-0.3-0.8-0.5c-0.5-0.3-0.9-0.6-1.2-0.8
			c-0.3-0.2-0.5-0.5-0.7-0.9c-0.2-0.4-0.2-0.8,0-1.3c0.1-0.4,0.4-0.7,0.7-1s0.7-0.4,1.3-0.5c0.5-0.1,1.1,0,1.8,0.2
			c0.4,0.1,0.9,0.3,1.3,0.6c0.4,0.2,0.7,0.5,1,0.8l-0.9,1.1c-0.6-0.6-1.2-1-1.8-1.2c-0.5-0.1-0.8-0.2-1.1-0.1
			c-0.3,0.1-0.4,0.3-0.5,0.5c-0.1,0.2,0,0.5,0.2,0.7c0.2,0.2,0.6,0.4,1.1,0.7c0.5,0.3,0.9,0.6,1.2,0.8c0.3,0.2,0.5,0.5,0.7,0.9
			c0.2,0.4,0.2,0.8,0,1.2c-0.1,0.4-0.3,0.7-0.7,1c-0.3,0.3-0.7,0.4-1.3,0.5c-0.5,0.1-1.1,0-1.8-0.2
			C493.4,145.3,492.9,145,492.4,144.7z"/>
		<path d="M501.2,140.9l-2.4-0.4l0.2-1.4l6.4,1.1l-0.2,1.4l-2.4-0.4l-1,6l-1.7-0.3L501.2,140.9z"/>
		<path d="M505,147.3c-0.2-0.2-0.3-0.5-0.2-0.8c0-0.3,0.1-0.5,0.4-0.7s0.5-0.2,0.7-0.2c0.3,0,0.5,0.1,0.7,0.3
			c0.2,0.2,0.3,0.5,0.2,0.8c0,0.3-0.1,0.5-0.4,0.7c-0.2,0.2-0.5,0.3-0.8,0.2C505.4,147.7,505.2,147.5,505,147.3z"/>
		<path d="M516.7,146.2l0.1,1.4l-5.6,0.3l-0.1-1.1l2.7-2.9c0.3-0.3,0.5-0.6,0.6-0.8c0.1-0.2,0.1-0.4,0.1-0.6c0-0.3-0.1-0.5-0.3-0.7
			s-0.5-0.2-0.9-0.2c-0.3,0-0.6,0.1-0.9,0.2c-0.3,0.1-0.5,0.3-0.6,0.6l-1.3-0.7c0.3-0.4,0.6-0.8,1.2-1.1c0.5-0.3,1.1-0.4,1.7-0.5
			c0.6,0,1,0,1.5,0.2c0.4,0.1,0.8,0.4,1,0.7c0.3,0.3,0.4,0.7,0.4,1.2c0,0.4,0,0.8-0.2,1.2s-0.4,0.8-0.9,1.3l-1.6,1.7L516.7,146.2z"
			/>
		<path d="M519.5,146.8c-0.5-0.2-1-0.6-1.4-1.1s-0.6-1.2-0.8-2c-0.1-0.8-0.1-1.5,0-2.1s0.4-1.1,0.9-1.5c0.4-0.4,0.9-0.6,1.5-0.8
			c0.6-0.1,1.2-0.1,1.7,0.1s1,0.6,1.4,1.1c0.4,0.5,0.6,1.2,0.8,2s0.1,1.5,0,2.1c-0.2,0.6-0.4,1.1-0.9,1.5c-0.4,0.4-0.9,0.6-1.5,0.8
			C520.6,147.1,520,147,519.5,146.8z M521.9,144.8c0.2-0.4,0.2-1,0-1.9s-0.4-1.4-0.7-1.7c-0.3-0.3-0.7-0.5-1.2-0.4
			c-0.4,0.1-0.7,0.3-0.9,0.8c-0.2,0.4-0.2,1,0,1.9s0.4,1.4,0.7,1.7c0.3,0.3,0.7,0.5,1.2,0.4C521.4,145.5,521.7,145.2,521.9,144.8z"
			/>
		<path d="M530.5,142.8l0.4,1.3l-5.4,1.8l-0.3-1.1l1.9-3.5c0.2-0.4,0.3-0.7,0.4-0.9c0-0.2,0-0.4,0-0.6c-0.1-0.3-0.3-0.5-0.5-0.6
			c-0.2-0.1-0.6-0.1-0.9,0c-0.3,0.1-0.6,0.3-0.8,0.4c-0.2,0.2-0.4,0.4-0.4,0.7l-1.5-0.4c0.1-0.5,0.4-1,0.8-1.3s0.9-0.7,1.6-0.9
			c0.5-0.2,1-0.2,1.5-0.2c0.4,0,0.8,0.2,1.2,0.4c0.3,0.2,0.6,0.6,0.7,1c0.1,0.4,0.2,0.8,0.1,1.2c0,0.4-0.2,0.9-0.6,1.5l-1.1,2.1
			L530.5,142.8z"/>
		<path d="M536.6,140l0.6,1.3l-5.1,2.4l-0.5-1l1.5-3.7c0.1-0.4,0.2-0.7,0.2-0.9c0-0.2,0-0.4-0.1-0.6c-0.1-0.3-0.3-0.4-0.6-0.5
			c-0.3-0.1-0.6,0-0.9,0.2c-0.3,0.1-0.5,0.3-0.7,0.5c-0.2,0.2-0.3,0.5-0.4,0.8l-1.5-0.2c0.1-0.5,0.3-1,0.7-1.4
			c0.4-0.4,0.8-0.8,1.4-1.1c0.5-0.2,1-0.4,1.4-0.4c0.4,0,0.9,0.1,1.2,0.3c0.3,0.2,0.6,0.5,0.8,0.9c0.2,0.4,0.3,0.7,0.3,1.1
			s-0.1,0.9-0.4,1.5l-0.9,2.2L536.6,140z"/>
	</g>
</g>
<g>
	<text transform="matrix(1 0 0 1 25.6045 145.5625)" class="st3 st10">The Road Less Traveled</text>
</g>
</svg>
