<?xml version="1.0" encoding="utf-8"?>
<!-- Generator: Adobe Illustrator 26.5.0, SVG Export Plug-In . SVG Version: 6.00 Build 0)  -->
<svg version="1.1" id="Layer_1" xmlns="http://www.w3.org/2000/svg" xmlns:xlink="http://www.w3.org/1999/xlink" x="0px" y="0px"
	 viewBox="0 0 997.3 371.3" style="enable-background:new 0 0 997.3 371.3;" xml:space="preserve">
<style type="text/css">
	.st0{fill:#FFCA00;}
</style>
<g>
	<g>
		<path d="M210.7,128c0,14.9-0.1,29.7,0.1,44.6c0.1,3.5-0.2,5.1-4.4,5c-14.8-0.3-29.5-0.2-44.3,0c-3.6,0.1-4-1.2-3.9-4.3
			c1.3-47,1.3-93.9,0-140.9c-0.1-3,0.6-3.9,3.7-3.9c21.8,0.2,43.6,0,65.4,0.2c5.8,0,11.5,0.8,17,2.6c15.6,5.1,24.4,16.5,25.5,33
			c0.7,10.3,0.4,20.4-4.2,30c-4.8,9.9-12.6,15.5-23.6,16.2c-4.6,0.3-4.5,1.6-2.8,5.2c5.5,11.3,15.3,16.6,29.9,15.2
			c3.1-0.3,4.3-0.2,4.3,3.4c0.1,13.1,0.4,26.2,1,39.2c0.2,3.9-1.6,5.1-4.6,5.7c-27.3,4.9-47.1-3.4-55.2-34
			c-1.5-5.6-2.3-11.4-3.4-17.1C211.1,128,210.9,128,210.7,128z M210,86.1c0,3.4-0.2,6.8,0.1,10.1c0.1,1.6-1.5,4.3,2,4.4
			c2.7,0.1,6,0.3,6.8-2.9c1.8-7.9,1.9-15.9,0-23.8c-0.8-3.4-4.3-2.5-6.9-2.5c-3.1,0-1.8,2.5-1.9,4C209.9,78.9,210,82.5,210,86.1z"/>
		<path d="M340.3,25.2c9.1-0.4,18,0.3,26.5,3.7c16.1,6.5,24.7,19.4,28.6,35.3c6.6,27.1,6.8,54.4-1.4,81.2
			c-6.8,22.4-23.4,34.3-47,34.7c-8.8,0.2-17.6,0.6-26.3-1.4c-19.4-4.6-30.4-17.9-35.2-36.1c-7.1-26.6-6.9-53.5-0.1-80.2
			c5.9-23.2,23.3-36.6,47.3-37.1C335.3,25.2,337.8,25.2,340.3,25.2z M333.8,103.3c0.5,8.6-0.6,17.2,1,25.7c0.6,3.2,1.1,6.6,5.6,6.5
			s5-3.5,5.3-6.8c1.5-16.6,1.6-33.2,0-49.8c-0.3-3.4-1.1-6.6-5.4-6.7c-4-0.1-4.9,2.8-5.5,6C333.2,86.5,334.3,94.9,333.8,103.3z"/>
		<path d="M470.3,25.2c13.2-0.3,26.2,1.5,39.3,3.1c3.7,0.5,5.4,1.5,5,6c-1.1,11.2-1.5,22.5-1.9,33.8c-0.2,3.7-0.9,5-5,3.6
			c-9.2-3.1-18.7-5.3-28.5-5.6c-2.3-0.1-4.7-0.1-6.9,0.7c-5.8,1.9-7.6,6.8-4.1,11.8c2.7,3.9,6.7,6.4,10.6,9
			c8.3,5.6,16.7,11.1,24.1,18.1c21.8,20.9,18.1,62.4-20,72.1c-18.1,4.6-36.1,2.3-54-1.4c-5.1-1.1-10-2.8-15.1-4
			c-2.9-0.7-4-2.1-3.6-5.3c1.3-12.3,2.5-24.6,3.4-36.9c0.3-3.9,1.2-4.3,4.7-2.6c10,5,20.5,8.6,31.9,8.7c3.7,0,7.5-0.4,9-4.4
			c1.6-4.1-1.2-6.9-3.8-9.2c-6.3-5.6-14-9.4-21-14.1c-9.5-6.4-18.2-13.7-22.9-24.4c-11-24.8,2.8-50.1,30.5-56.6
			C451.3,25.5,460.7,24.9,470.3,25.2z"/>
		<path d="M525,125.8c7.8,4,15.2,6.8,22.8,8.8c4,1,8.1,1.7,12.2,1.7c4.1,0.1,8.4,0.1,10-4.5c1.6-4.5-1.5-7.6-4.8-9.9
			c-5.5-4-11.3-7.6-17-11.3c-8.3-5.4-16.4-11.2-22-19.5c-17.4-25.3-4.2-56.4,26.6-63.4c18.2-4.2,36.5-2.5,54.8-0.9
			c4.1,0.4,8.2,1.3,12.3,1.5c4.2,0.3,5.8,1.8,5.4,6.3c-1,10.5-1.4,21.1-2,31.7c-0.5,8,0.7,7-7.1,4.8c-8.7-2.5-17.4-4.6-26.4-4.8
			c-2,0-4,0-5.9,0.5c-6.7,1.6-8.7,7.2-4.5,12.6c3,3.9,7.2,6.5,11.2,9.1c7.9,5.3,16,10.3,22.7,17.1c25.1,25.4,14.8,63.4-19.8,72.3
			c-18.1,4.7-36.1,2.3-53.9-1.5c-5.3-1.1-10.4-2.8-15.6-4.3c-2-0.6-3.5-1.2-3.2-4C522.3,154.3,523.6,140.4,525,125.8z"/>
		<path d="M115.6,25.3c11.4-0.6,21.1,1.5,30.8,3.2c3,0.5,4.4,2,4,5.5c-1.4,11-2.5,22-3.4,33.1c-0.3,3.7-1.6,3.8-4.8,2.8
			c-8.7-2.6-17.6-3.5-26.6-0.7c-3.7,1.1-7,2.7-10,5.1c-11.1,9-14.8,31.7-7.6,47.4c5.5,12.2,19.2,18.1,35.3,15.3
			c2.1-0.4,4.2-0.9,6.3-1.5c6.8-2,6.7-2,7.4,4.9c0.9,9.1,1.9,18.2,3.1,27.2c0.4,2.8-0.4,4.3-3,5.3c-25.8,10.1-51.5,11.2-76.4-2.5
			c-13.5-7.4-21.2-19.7-25.2-34.2c-6.2-22.5-6-45.1,1.5-67.2c9-26.4,32.2-42.7,61.8-43.8C111.6,25.2,114.3,25.3,115.6,25.3z"/>
	</g>
	<g>
		<path d="M95.9,284.9c0,14.9-0.2,29.7,0.1,44.6c0.1,3.8-0.7,4.9-4.6,4.9c-14.6-0.2-29.2-0.2-43.8,0c-3.6,0.1-4.4-1-4.3-4.5
			c1.3-46.8,1.4-93.6,0-140.4c-0.1-3.7,1.1-4.3,4.5-4.3c20.9,0.1,41.8,0,62.7,0.1c6.5,0,12.9,0.8,19.2,2.7
			c13.2,4,21.4,12.8,24.2,26.3c2.5,12.4,2.4,24.6-2.9,36.3c-4.6,10.2-12.7,15.8-23.9,16.6c-4,0.3-4.6,1.2-2.8,4.8
			c5.4,11.5,15.4,17,30.2,15.5c3.6-0.4,4.1,0.4,4.1,3.6c0.2,12.9,0.4,25.8,1.1,38.7c0.2,4-1.3,5.5-4.8,6.1
			c-27.5,4.9-47.2-3.8-55-34.1c-1.5-5.6-2.3-11.3-3.4-17C96.3,284.8,96.1,284.8,95.9,284.9z M95.1,242.6c0,3.4-0.2,6.8,0.1,10.1
			c0.1,1.7-1.7,4.6,2.3,4.7c3,0,6.1,0,6.7-3.7c1.3-7.4,1.3-14.9,0-22.3c-0.7-3.9-4.1-3.3-6.9-3.3c-3.5,0-2,2.7-2.1,4.3
			C95,235.8,95.1,239.2,95.1,242.6z"/>
		<path d="M225.7,182c8.9-0.4,17.7,0.3,26,3.6c15.2,6.1,24.1,17.8,28.1,33.2c7.8,29.8,8.3,59.6-2.6,88.7
			c-7.2,19.3-22.6,28.6-43,29.5c-9.3,0.4-18.8,0.9-28-1.3c-18.9-4.4-30.1-17-35.2-34.9c-7.4-26-7.7-52.5-1.1-78.6
			c7.2-28.3,23.2-40,52.5-40.2C223.5,181.9,224.6,182,225.7,182z M218.9,260.5c0.5,8.6-0.6,17.2,1.1,25.7c0.6,3.1,1.3,6.1,5.4,6.1
			c4.4-0.1,5.1-3.4,5.4-6.6c1.6-16.8,1.7-33.6,0-50.4c-0.3-3.2-1.2-6.2-5.2-6.3c-4-0.2-5,2.7-5.6,5.9
			C218.3,243.3,219.4,251.9,218.9,260.5z"/>
		<path d="M422.1,259.4c0-22.8,0.2-45.6-0.2-68.3c-0.1-5.2,1.5-6,6.1-5.9c16.4,0.3,32.8,0.1,49.2,0.1c30.8,0,47.2,11.2,55.3,40.7
			c7.1,25.9,6.9,52.2-3.3,77.6c-7.8,19.5-22.7,30.1-44,30.5c-19.8,0.4-39.6,0-59.4,0.3c-3.9,0-3.8-1.7-3.8-4.5
			C422.1,306.4,422,282.9,422.1,259.4L422.1,259.4z M473.6,260.2L473.6,260.2c0,9.5,0.2,19,0,28.4c-0.1,3.2,1.1,3.7,3.8,2.8
			c3.9-1.2,5-4.4,5.3-7.9c1.4-15.7,1.4-31.4,0.1-47.1c-0.2-2.4-0.9-4.6-2.4-6.4c-1.3-1.7-3.4-2.1-5.4-1.7c-2.4,0.5-1.3,2.6-1.3,4
			C473.5,241.6,473.6,250.9,473.6,260.2z"/>
		<path d="M350.1,185.3c11.7,0,23.4,0.1,35.1-0.1c3.7-0.1,4.8,1.1,5.3,4.7c6.2,44.5,13.8,88.8,22.4,132.9
			c2.3,11.5,2.2,11.5-9.6,11.5c-13.7,0-27.4-0.1-41.1,0.1c-3.3,0-4.4-1-4.5-4.2c-0.2-5.9-0.9-11.8-1.2-17.7
			c-0.1-3.2-0.7-4.7-4.6-4.7c-10.7,0.1-10.7-0.1-12,10.4c-0.1,0.5-0.2,1.1-0.2,1.6c-0.6,4.7,1,11.3-2.4,13.7
			c-3.2,2.3-9.3,0.7-14.2,0.8c-10.6,0-21.3,0-31.9,0c-7.3,0-7.2,0-5.8-6.8c5.1-23.3,9.3-46.7,13.1-70.2c3.7-22.4,7.1-44.9,10.3-67.4
			c0.5-3.5,1.6-4.8,5.3-4.7C326.3,185.4,338.2,185.3,350.1,185.3z M349.1,226c-2.8,3.9-2,8.2-2.4,12.3c-1.1,10.2-1.7,20.4-2.7,30.5
			c-0.3,2.9,1.4,3,3.2,2.6c1.9-0.4,5.7,1.8,5.5-1.8C351.8,255.1,350.4,240.6,349.1,226z"/>
		<path d="M542.9,282.6c7.9,3.9,15.3,6.9,23.1,8.9c5.1,1.3,10.2,1.9,15.5,1.6c2.9-0.2,5.4-1.3,6.4-4.1c0.9-2.7,0.3-5.3-1.7-7.5
			c-3.5-4-8-6.6-12.4-9.4c-8-5.1-16.2-10-23.1-16.7c-11.8-11.6-16.6-25.4-12.6-41.6c4.3-17.2,17.2-25.3,33.3-29.3
			c17.9-4.5,36.1-2.5,54.3-0.9c4.7,0.4,9.3,1.2,13.9,1.8c2.6,0.3,4,1.4,3.8,4.5c-0.9,12.3-1.6,24.7-2.2,37.1c-0.1,2.8-1.3,2.7-3.4,2
			c-7.9-2.5-15.9-4.7-24.1-5.5c-3-0.3-6.1-0.5-9.2-0.4c-3.7,0.2-7.2,1.3-8.8,5.1c-1.5,3.9,0.5,7,3.2,9.6c5.6,5.4,12.4,9.1,18.8,13.5
			c7.7,5.3,15.1,11.1,20.2,19.1c16.2,24.8,4.3,55.8-24.4,63.9c-18.8,5.3-37.4,2.9-56.1-1c-4.7-1-9.3-2.6-14.1-3.7
			c-3.3-0.8-4.6-2.3-4.2-5.9C540.6,310.2,541.7,296.8,542.9,282.6z"/>
	</g>
</g>
<g>
	<g>
		<path d="M711.6,289c0.9,0.8,2.1,1.3,3.3,1.2l88.6-5.4l4.3,70l8.9-0.5l-4.3-70l23.1-1.4l4.3,70l8.9-0.5l-4.3-70l93-5.7
			c2.5-0.2,4.3-2.3,4.2-4.7l-6.3-102.2c-0.2-2.5-2.3-4.3-4.7-4.2l-93,5.7l-1.3-21.6l90.3-5.5c1.2-0.1,2.4-0.6,3.1-1.6l45.6-54.1
			c1.5-1.8,1.4-4.5-0.4-6.2L923,34.2c-0.9-0.8-2.1-1.3-3.3-1.2l-90.3,5.5L828.9,27c-0.7-10.6-9.8-18.7-20.5-18.1L806,9.1
			c-10.6,0.7-18.7,9.8-18.1,20.5l0.7,11.5l-91.3,5.6c-2.5,0.2-4.3,2.3-4.2,4.7l6.3,102.2c0.2,2.5,2.3,4.3,4.7,4.2l91.3-5.6l1.3,21.6
			l-88.6,5.4c-1.2,0.1-2.4,0.6-3.1,1.6l-45.6,54.1c-1.5,1.8-1.4,4.5,0.4,6.2L711.6,289z M806.5,18l2.5-0.2c5.7-0.3,10.6,4,11,9.7
			l0.7,11.5l-23.1,1.4L796.8,29C796.5,23.3,800.8,18.4,806.5,18z M827.5,150.2l1.3,21.6l-23.1,1.4l-1.3-21.6L827.5,150.2z"/>
		<polygon class="st0" points="708,148.5 702.3,55.3 918.5,42 965.9,85.9 924.2,135.3 		"/>
		<polygon class="st0" points="710.6,187.9 926.8,174.7 932.5,267.9 716.3,281.2 668.9,237.3 		"/>
	</g>
	<g>
		<g>
			<path d="M732.2,81.4l0.5,11.4l19.9-0.8l0.3,8l-19.9,0.8l0.6,15.7l-10,0.4l-1.8-43.1l32.5-1.3l0.3,8L732.2,81.4z"/>
			<path d="M771.3,112.8c-3.7-1.8-6.6-4.3-8.8-7.6c-2.2-3.3-3.3-7.1-3.5-11.3c-0.2-4.2,0.7-8.1,2.6-11.5c1.9-3.5,4.6-6.2,8.1-8.3
				c3.5-2.1,7.5-3.2,12-3.4c4.5-0.2,8.5,0.6,12.2,2.4c3.6,1.8,6.6,4.3,8.8,7.6c2.2,3.3,3.4,7.1,3.5,11.3c0.2,4.2-0.7,8.1-2.6,11.5
				c-1.9,3.5-4.6,6.2-8.1,8.3c-3.5,2.1-7.5,3.2-11.9,3.4C779,115.4,774.9,114.6,771.3,112.8z M789.9,104.7c2-1.3,3.5-2.9,4.6-5.1
				s1.6-4.5,1.5-7.2s-0.8-5-2-7.1c-1.3-2-2.9-3.6-5-4.7s-4.4-1.6-7-1.5s-4.8,0.8-6.8,2c-2,1.3-3.5,2.9-4.6,5.1
				c-1.1,2.1-1.6,4.5-1.5,7.2s0.8,5,2,7.1c1.3,2,2.9,3.6,5,4.7s4.4,1.6,7,1.5S787.9,105.9,789.9,104.7z"/>
			<path d="M823.2,110.7c-3.7-1.8-6.6-4.3-8.8-7.6c-2.2-3.3-3.3-7.1-3.5-11.3c-0.2-4.2,0.7-8.1,2.6-11.5c1.9-3.5,4.6-6.2,8.1-8.3
				c3.5-2.1,7.5-3.2,12-3.4c4.5-0.2,8.5,0.6,12.2,2.4c3.6,1.8,6.6,4.3,8.8,7.6c2.2,3.3,3.4,7.1,3.5,11.3c0.2,4.2-0.7,8.1-2.6,11.5
				c-1.9,3.5-4.6,6.2-8.1,8.3c-3.5,2.1-7.5,3.2-11.9,3.4C830.9,113.2,826.8,112.5,823.2,110.7z M841.9,102.5c2-1.3,3.5-2.9,4.6-5.1
				c1.1-2.1,1.6-4.5,1.5-7.2s-0.8-5-2-7.1c-1.3-2-2.9-3.6-5-4.7s-4.4-1.6-7-1.5c-2.5,0.1-4.8,0.8-6.8,2c-2,1.3-3.5,2.9-4.6,5.1
				c-1.1,2.1-1.6,4.5-1.5,7.2s0.8,5,2,7.1c1.3,2,2.9,3.6,5,4.7s4.4,1.6,7,1.5C837.6,104.5,839.9,103.8,841.9,102.5z"/>
			<path d="M864.7,68l19.6-0.8c4.7-0.2,8.8,0.5,12.5,2.2c3.7,1.6,6.6,4,8.7,7.2c2.1,3.2,3.3,6.9,3.4,11.2c0.2,4.3-0.7,8.1-2.5,11.4
				c-1.9,3.3-4.5,5.9-8.1,7.9c-3.5,1.9-7.6,3-12.3,3.2l-19.6,0.8L864.7,68z M885.2,102.1c4.3-0.2,7.7-1.5,10.2-4s3.6-5.8,3.4-9.9
				c-0.2-4.1-1.6-7.3-4.2-9.6c-2.7-2.3-6.1-3.4-10.5-3.2l-9.1,0.4l1.1,26.7L885.2,102.1z"/>
		</g>
	</g>
	<g>
		<path d="M739.7,254.2l-5.4-4.5c-3.9,3.4-8.6,5.3-14.1,5.6c-3.1,0.2-6-0.2-8.5-1c-2.6-0.9-4.6-2.1-6.1-3.9c-1.5-1.7-2.3-3.7-2.5-6
			c-0.2-2.7,0.5-5.1,1.8-7.2c1.4-2.1,3.7-4.2,6.9-6.2c-1.6-1.5-2.9-3-3.6-4.4c-0.8-1.4-1.2-2.9-1.3-4.5c-0.1-2.1,0.3-4,1.3-5.6
			c1-1.7,2.5-3,4.5-4s4.3-1.6,7-1.7c3.7-0.2,6.8,0.5,9.1,2.2c2.4,1.7,3.6,4,3.8,7c0.1,2.2-0.4,4.2-1.7,6c-1.2,1.8-3.3,3.6-6.1,5.3
			l8.3,6.9c0.8-2,1.4-4.3,1.8-6.8l7.8,2c-0.6,3.9-1.7,7.2-3.4,10l5.3,4.4L739.7,254.2z M728.3,244.8l-10.9-9.1
			c-1.9,1.2-3.2,2.4-3.9,3.5c-0.8,1.1-1.1,2.3-1,3.7c0.1,1.6,0.9,2.8,2.3,3.8c1.5,0.9,3.3,1.3,5.7,1.2
			C723.4,247.6,726.1,246.7,728.3,244.8z M716.7,218.7c-0.8,0.8-1.2,1.8-1.1,2.9c0,0.9,0.3,1.7,0.8,2.4s1.4,1.7,2.8,2.9
			c2-1.2,3.4-2.3,4.2-3.2s1.1-1.9,1.1-2.9c-0.1-1.1-0.5-1.9-1.3-2.5s-1.8-0.9-3.2-0.8C718.6,217.5,717.5,218,716.7,218.7z"/>
		<path d="M775.7,216.4l-13.8,0.8l-0.5-8.1l37.5-2.2l0.5,8.1l-13.8,0.8l2,34.9l-10,0.6L775.7,216.4z"/>
		<path d="M839.6,239.7l0.5,8l-33.3,1.9l-2.5-43l32.5-1.9l0.5,8l-22.6,1.3l0.5,9.3l20-1.2l0.4,7.7l-20,1.2l0.6,10L839.6,239.7z"/>
		<path d="M880.8,237.3l0.5,8l-33.3,1.9l-2.5-43l32.5-1.9l0.5,8l-22.6,1.3l0.5,9.3l20-1.2l0.4,7.7l-20,1.2l0.6,10L880.8,237.3z"/>
		<path d="M893.5,244c-3.2-0.7-5.8-1.8-7.9-3.2l2.9-7.7c1.9,1.2,4.2,2.2,6.8,2.9s5.2,0.9,7.7,0.8c2.8-0.2,4.9-0.7,6.2-1.6
			c1.3-0.9,1.9-2.1,1.8-3.5c-0.1-1-0.5-1.9-1.3-2.5s-1.9-1.1-3.2-1.5c-1.3-0.3-3-0.7-5.1-1.1c-3.3-0.6-6.1-1.2-8.2-1.9
			c-2.1-0.7-4-1.8-5.6-3.4c-1.6-1.6-2.5-3.9-2.6-6.8c-0.1-2.5,0.4-4.8,1.6-6.9s3.2-3.8,5.8-5.2c2.7-1.3,6-2.1,9.9-2.4
			c2.7-0.2,5.4,0,8.1,0.5c2.7,0.5,5,1.3,7,2.4l-2.6,7.7c-4.1-2-8.1-2.9-12.1-2.7c-2.8,0.2-4.8,0.7-6.1,1.7s-1.9,2.2-1.8,3.7
			c0.1,1.5,0.9,2.5,2.5,3.2c1.6,0.6,4,1.2,7.2,1.7c3.3,0.6,6.1,1.2,8.2,1.9c2.1,0.7,4,1.8,5.6,3.4c1.6,1.6,2.5,3.8,2.6,6.7
			c0.1,2.5-0.4,4.7-1.7,6.8s-3.2,3.8-5.9,5.2c-2.7,1.3-6,2.1-9.9,2.4C900,245,896.7,244.7,893.5,244z"/>
	</g>
</g>
</svg>
