<?xml version="1.0" encoding="utf-8"?>
<!-- Generator: Adobe Illustrator 26.5.0, SVG Export Plug-In . SVG Version: 6.00 Build 0)  -->
<svg version="1.1" id="Layer_1" xmlns="http://www.w3.org/2000/svg" xmlns:xlink="http://www.w3.org/1999/xlink" x="0px" y="0px"
	 viewBox="0 0 745.4 775.9" style="enable-background:new 0 0 745.4 775.9;" xml:space="preserve">
<style type="text/css">
	.st0{fill:#FFFFFF;stroke:#23571D;stroke-width:23.8495;stroke-miterlimit:10;}
	.st1{fill:#23571D;}
	.st2{fill:none;stroke:#23571D;stroke-width:8.9436;stroke-miterlimit:10;}
	.st3{fill:#FFCA00;}
</style>
<g>
	<circle class="st0" cx="371.6" cy="397.6" r="329.2"/>
	<g>
		<g>
			<path class="st1" d="M265.3,373.9c0,12-0.1,24.1,0.1,36.1c0,2.8-0.2,4.1-3.5,4.1c-12-0.2-24-0.2-35.9,0c-2.9,0-3.3-1-3.2-3.5
				c1-38.1,1.1-76.2,0-114.3c-0.1-2.4,0.5-3.2,3-3.2c17.7,0.1,35.3,0,53,0.1c4.7,0,9.3,0.7,13.8,2.1c12.7,4.1,19.8,13.4,20.7,26.8
				c0.5,8.3,0.4,16.6-3.4,24.3c-3.9,8-10.3,12.5-19.1,13.1c-3.7,0.2-3.7,1.3-2.3,4.2c4.5,9.1,12.4,13.4,24.2,12.3
				c2.5-0.2,3.5-0.2,3.5,2.8c0.1,10.6,0.3,21.2,0.8,31.8c0.2,3.1-1.3,4.2-3.7,4.6c-22.2,4-38.2-2.8-44.7-27.5
				c-1.2-4.5-1.9-9.2-2.8-13.9C265.6,373.9,265.4,373.9,265.3,373.9z M264.6,339.9c0,2.7-0.1,5.5,0.1,8.2c0.1,1.3-1.2,3.4,1.6,3.6
				c2.2,0.1,4.9,0.3,5.5-2.3c1.4-6.4,1.5-12.9,0-19.3c-0.7-2.8-3.5-2.1-5.6-2c-2.5,0-1.5,2-1.5,3.2
				C264.5,334.2,264.6,337.1,264.6,339.9z"/>
			<path class="st1" d="M370.3,290.6c7.4-0.3,14.6,0.2,21.5,3c13.1,5.2,20,15.7,23.2,28.7c5.4,22,5.5,44.1-1.1,65.9
				c-5.5,18.1-19,27.8-38.1,28.1c-7.1,0.1-14.3,0.5-21.4-1.2c-15.7-3.8-24.6-14.5-28.6-29.3c-5.8-21.6-5.6-43.4-0.1-65.1
				c4.8-18.8,18.9-29.7,38.4-30.1C366.3,290.6,368.3,290.6,370.3,290.6z M365,353.9c0.4,6.9-0.5,13.9,0.8,20.8
				c0.5,2.6,0.9,5.3,4.5,5.2c3.6-0.1,4-2.9,4.3-5.5c1.2-13.5,1.3-26.9,0-40.4c-0.3-2.7-0.9-5.4-4.4-5.5c-3.2-0.1-4,2.3-4.5,4.9
				C364.6,340.3,365.4,347.1,365,353.9z"/>
			<path class="st1" d="M475.8,290.6c10.7-0.2,21.3,1.2,31.8,2.5c3,0.4,4.4,1.2,4,4.9c-0.9,9.1-1.2,18.3-1.6,27.4
				c-0.1,3-0.7,4-4.1,2.9c-7.5-2.5-15.1-4.3-23.1-4.5c-1.9-0.1-3.8-0.1-5.6,0.6c-4.7,1.6-6.1,5.5-3.3,9.6c2.2,3.2,5.5,5.2,8.6,7.3
				c6.7,4.6,13.6,9,19.5,14.7c17.7,17,14.7,50.6-16.2,58.5c-14.7,3.7-29.3,1.9-43.8-1.2c-4.1-0.9-8.1-2.2-12.2-3.3
				c-2.4-0.6-3.2-1.7-2.9-4.3c1.1-10,2-20,2.7-30c0.2-3.2,1-3.5,3.8-2.1c8.1,4,16.7,7,25.9,7.1c3,0,6-0.3,7.3-3.6
				c1.3-3.3-0.9-5.6-3.1-7.5c-5.1-4.6-11.4-7.6-17-11.4c-7.7-5.2-14.7-11.1-18.6-19.8c-9-20.1,2.2-40.6,24.7-45.9
				C460.3,290.8,468,290.4,475.8,290.6z"/>
			<path class="st1" d="M520.1,372.2c6.4,3.2,12.3,5.5,18.5,7.1c3.3,0.8,6.6,1.4,9.9,1.4c3.3,0,6.8,0.1,8.1-3.7
				c1.3-3.6-1.3-6.1-3.9-8c-4.5-3.2-9.2-6.2-13.8-9.2c-6.8-4.4-13.3-9.1-17.9-15.8c-14.1-20.5-3.4-45.7,21.6-51.4
				c14.8-3.4,29.6-2.1,44.4-0.7c3.3,0.3,6.6,1,10,1.2c3.4,0.2,4.7,1.4,4.3,5.1c-0.8,8.5-1.1,17.1-1.6,25.7c-0.4,6.5,0.5,5.7-5.8,3.9
				c-7-2-14.1-3.7-21.4-3.9c-1.6,0-3.2,0-4.8,0.4c-5.4,1.3-7.1,5.8-3.7,10.2c2.4,3.2,5.8,5.2,9.1,7.4c6.4,4.3,13,8.4,18.5,13.9
				c20.4,20.6,12,51.4-16,58.7c-14.6,3.8-29.3,1.9-43.8-1.2c-4.3-0.9-8.4-2.3-12.6-3.5c-1.6-0.5-2.8-1-2.6-3.2
				C518,395.3,519,384,520.1,372.2z"/>
			<path class="st1" d="M188.1,290.7c9.2-0.5,17.1,1.2,25,2.6c2.4,0.4,3.6,1.6,3.2,4.4c-1.1,8.9-2,17.9-2.8,26.9
				c-0.3,3-1.3,3.1-3.9,2.3c-7.1-2.1-14.3-2.8-21.5-0.6c-3,0.9-5.7,2.2-8.1,4.1c-9,7.3-12,25.7-6.2,38.4
				c4.5,9.9,15.6,14.7,28.6,12.4c1.7-0.3,3.4-0.7,5.1-1.2c5.5-1.6,5.5-1.7,6,4c0.7,7.4,1.5,14.7,2.5,22.1c0.3,2.3-0.3,3.4-2.4,4.3
				c-21,8.2-41.8,9.1-62-2c-10.9-6-17.2-16-20.4-27.7c-5-18.2-4.8-36.6,1.2-54.5c7.3-21.4,26.1-34.6,50.1-35.5
				C184.8,290.6,187,290.7,188.1,290.7z"/>
		</g>
		<g>
			<path class="st1" d="M172.1,501.2c0,12.1-0.1,24.1,0.1,36.2c0.1,3-0.5,4-3.7,3.9c-11.8-0.2-23.7-0.2-35.5,0
				c-2.9,0-3.6-0.8-3.5-3.6c1.1-38,1.1-75.9,0-113.9c-0.1-3,0.9-3.5,3.6-3.5c16.9,0.1,33.9,0,50.8,0.1c5.3,0,10.5,0.7,15.5,2.2
				c10.7,3.3,17.3,10.3,19.6,21.3c2.1,10,2,19.9-2.3,29.4c-3.7,8.3-10.3,12.8-19.4,13.4c-3.2,0.2-3.7,0.9-2.3,3.9
				c4.4,9.3,12.5,13.8,24.5,12.6c2.9-0.3,3.3,0.3,3.3,2.9c0.1,10.5,0.3,20.9,0.9,31.4c0.2,3.2-1.1,4.5-3.9,5
				c-22.3,4-38.2-3-44.6-27.7c-1.2-4.5-1.8-9.2-2.7-13.8C172.4,501.1,172.3,501.2,172.1,501.2z M171.5,466.9c0,2.7-0.2,5.5,0.1,8.2
				c0.1,1.4-1.4,3.8,1.9,3.8c2.4,0,4.9,0,5.5-3c1.1-6,1.1-12.1,0-18.1c-0.6-3.2-3.3-2.7-5.6-2.7c-2.9,0-1.7,2.2-1.7,3.5
				C171.4,461.4,171.5,464.2,171.5,466.9z"/>
			<path class="st1" d="M277.4,417.7c7.2-0.3,14.3,0.3,21.1,2.9c12.3,4.9,19.5,14.5,22.8,26.9c6.4,24.1,6.8,48.3-2.1,71.9
				c-5.9,15.6-18.3,23.2-34.8,23.9c-7.6,0.3-15.2,0.7-22.7-1c-15.3-3.6-24.4-13.8-28.5-28.3c-6-21.1-6.2-42.6-0.9-63.8
				c5.8-23,18.8-32.4,42.6-32.6C275.6,417.7,276.5,417.7,277.4,417.7z M271.9,481.4c0.4,6.9-0.5,13.9,0.9,20.8c0.5,2.5,1,5,4.4,4.9
				c3.6,0,4.1-2.7,4.4-5.4c1.3-13.6,1.4-27.2,0-40.9c-0.3-2.6-1-5-4.2-5.1c-3.2-0.1-4.1,2.2-4.6,4.8
				C271.4,467.5,272.3,474.5,271.9,481.4z"/>
			<path class="st1" d="M436.7,480.5c0-18.5,0.2-36.9-0.1-55.4c-0.1-4.2,1.2-4.8,5-4.8c13.3,0.2,26.6,0.1,39.9,0.1
				c25,0,38.3,9.1,44.8,33c5.8,21,5.6,42.3-2.7,62.9c-6.4,15.8-18.4,24.4-35.7,24.8c-16.1,0.3-32.1,0-48.2,0.2
				c-3.1,0-3.1-1.3-3.1-3.6C436.7,518.6,436.6,499.6,436.7,480.5C436.6,480.5,436.6,480.5,436.7,480.5z M478.4,481.2
				C478.4,481.2,478.5,481.2,478.4,481.2c0,7.7,0.1,15.4,0,23.1c-0.1,2.6,0.9,3,3.1,2.3c3.2-1,4-3.5,4.3-6.4
				c1.1-12.7,1.1-25.5,0-38.2c-0.2-1.9-0.8-3.7-1.9-5.2c-1.1-1.4-2.8-1.7-4.4-1.4c-1.9,0.4-1,2.1-1.1,3.3
				C478.4,466.1,478.4,473.6,478.4,481.2z"/>
			<path class="st1" d="M378.3,420.4c9.5,0,19,0.1,28.5-0.1c3-0.1,3.9,0.9,4.3,3.8c5.1,36.1,11.2,72,18.2,107.8
				c1.8,9.3,1.8,9.3-7.8,9.3c-11.1,0-22.2-0.1-33.3,0.1c-2.7,0-3.5-0.8-3.6-3.4c-0.1-4.8-0.7-9.6-1-14.4c-0.1-2.6-0.6-3.8-3.7-3.8
				c-8.7,0.1-8.7-0.1-9.7,8.5c-0.1,0.4-0.1,0.9-0.2,1.3c-0.5,3.8,0.8,9.2-1.9,11.1c-2.6,1.9-7.6,0.6-11.5,0.6c-8.6,0-17.2,0-25.9,0
				c-5.9,0-5.9,0-4.7-5.5c4.1-18.9,7.6-37.9,10.7-56.9c3-18.2,5.7-36.4,8.4-54.7c0.4-2.9,1.3-3.9,4.3-3.8
				C359,420.5,368.6,420.4,378.3,420.4z M377.5,453.5c-2.3,3.1-1.6,6.7-2,10c-0.9,8.2-1.4,16.5-2.2,24.8c-0.2,2.4,1.1,2.5,2.6,2.1
				c1.5-0.4,4.6,1.4,4.4-1.5C379.7,477.1,378.5,465.3,377.5,453.5z"/>
			<path class="st1" d="M534.7,499.3c6.4,3.2,12.4,5.6,18.8,7.2c4.1,1.1,8.3,1.6,12.6,1.3c2.4-0.2,4.4-1,5.2-3.3
				c0.8-2.2,0.2-4.3-1.4-6.1c-2.9-3.2-6.5-5.3-10.1-7.6c-6.5-4.1-13.2-8.1-18.7-13.6c-9.6-9.4-13.5-20.6-10.2-33.7
				c3.5-14,14-20.5,27-23.8c14.6-3.6,29.3-2.1,44-0.8c3.8,0.3,7.5,0.9,11.3,1.4c2.1,0.3,3.3,1.1,3.1,3.7c-0.7,10-1.3,20-1.8,30.1
				c-0.1,2.3-1,2.2-2.7,1.6c-6.4-2-12.9-3.8-19.6-4.4c-2.5-0.2-5-0.4-7.4-0.3c-3,0.1-5.9,1.1-7.1,4.2c-1.3,3.2,0.4,5.7,2.6,7.8
				c4.5,4.4,10.1,7.4,15.2,10.9c6.3,4.3,12.2,9,16.4,15.5c13.1,20.1,3.5,45.2-19.8,51.8c-15.2,4.3-30.4,2.4-45.5-0.8
				c-3.8-0.8-7.6-2.1-11.4-3c-2.7-0.6-3.7-1.9-3.4-4.8C532.8,521.7,533.7,510.9,534.7,499.3z"/>
		</g>
	</g>
	<circle class="st2" cx="371.6" cy="397.6" r="303.5"/>
	<g>
		<g>
			<path class="st1" d="M281.6,255c0.7,0.7,1.7,1,2.7,1l71.9-4.4l3.5,56.7l7.2-0.4l-3.5-56.7l18.8-1.2l3.5,56.7l7.2-0.4l-3.5-56.7
				l75.4-4.6c2-0.1,3.5-1.8,3.4-3.8l-5.1-82.9c-0.1-2-1.8-3.5-3.8-3.4l-75.4,4.6l-1.1-17.5l73.2-4.5c1-0.1,1.9-0.5,2.6-1.3l37-43.9
				c1.2-1.5,1.1-3.7-0.3-5l-42.1-39c-0.7-0.7-1.7-1-2.7-1l-73.2,4.5l-0.6-9.3c-0.5-8.6-8-15.2-16.6-14.7l-2,0.1
				c-8.6,0.5-15.2,8-14.7,16.6l0.6,9.3L270,58.4c-2,0.1-3.5,1.8-3.4,3.8l5.1,82.9c0.1,2,1.8,3.5,3.8,3.4l74.1-4.5l1.1,17.5
				l-71.9,4.4c-1,0.1-1.9,0.5-2.6,1.3l-37,43.9c-1.2,1.5-1.1,3.7,0.3,5L281.6,255z M358.6,35.2l2-0.1c4.6-0.3,8.6,3.2,8.9,7.9
				l0.6,9.3l-18.8,1.2l-0.6-9.3C350.4,39.4,354,35.4,358.6,35.2z M375.6,142.3l1.1,17.5l-18.8,1.2l-1.1-17.5L375.6,142.3z"/>
			<polygon class="st3" points="278.7,141 274.1,65.4 449.4,54.6 487.8,90.2 454.1,130.2 			"/>
			<polygon class="st3" points="280.8,173 456.1,162.2 460.8,237.8 285.4,248.6 247,213 			"/>
		</g>
		<g>
			<path class="st1" d="M298.3,86.6l0.4,9.2l16.2-0.7l0.3,6.5l-16.2,0.7l0.5,12.7l-8.1,0.3L290,80.4l26.4-1.1l0.3,6.5L298.3,86.6z"
				/>
			<path class="st1" d="M330,112c-3-1.4-5.3-3.5-7.1-6.2c-1.8-2.7-2.7-5.7-2.8-9.2c-0.1-3.4,0.6-6.5,2.1-9.4
				c1.5-2.8,3.7-5.1,6.6-6.7c2.8-1.7,6.1-2.6,9.7-2.7c3.6-0.1,6.9,0.5,9.9,1.9c3,1.4,5.3,3.5,7.1,6.2c1.8,2.7,2.7,5.7,2.9,9.2
				c0.1,3.4-0.6,6.5-2.1,9.4c-1.6,2.8-3.7,5.1-6.6,6.7c-2.8,1.7-6.1,2.6-9.7,2.7C336.3,114.1,333,113.5,330,112z M345.1,105.4
				c1.6-1,2.9-2.4,3.8-4.1c0.9-1.7,1.3-3.7,1.2-5.8c-0.1-2.2-0.6-4.1-1.7-5.7c-1-1.7-2.4-2.9-4.1-3.8c-1.7-0.9-3.6-1.3-5.6-1.2
				s-3.9,0.6-5.5,1.7c-1.6,1-2.9,2.4-3.8,4.1c-0.9,1.7-1.3,3.7-1.2,5.8c0.1,2.2,0.6,4.1,1.7,5.7c1,1.7,2.4,2.9,4.1,3.8
				s3.6,1.3,5.6,1.2S343.5,106.5,345.1,105.4z"/>
			<path class="st1" d="M372.1,110.3c-3-1.4-5.3-3.5-7.1-6.2c-1.8-2.7-2.7-5.7-2.8-9.2c-0.1-3.4,0.6-6.5,2.1-9.4
				c1.5-2.8,3.7-5.1,6.6-6.7c2.8-1.7,6.1-2.6,9.7-2.7c3.6-0.1,6.9,0.5,9.9,1.9c3,1.4,5.3,3.5,7.1,6.2c1.8,2.7,2.7,5.7,2.9,9.2
				c0.1,3.4-0.6,6.5-2.1,9.4c-1.6,2.8-3.7,5.1-6.6,6.7c-2.8,1.7-6.1,2.6-9.7,2.7C378.4,112.4,375.1,111.7,372.1,110.3z M387.3,103.7
				c1.6-1,2.9-2.4,3.8-4.1c0.9-1.7,1.3-3.7,1.2-5.8c-0.1-2.2-0.6-4.1-1.7-5.7c-1-1.7-2.4-2.9-4.1-3.8c-1.7-0.9-3.6-1.3-5.6-1.2
				c-2.1,0.1-3.9,0.6-5.5,1.7c-1.6,1-2.9,2.4-3.8,4.1c-0.9,1.7-1.3,3.7-1.2,5.8c0.1,2.2,0.6,4.1,1.7,5.7c1,1.7,2.4,2.9,4.1,3.8
				c1.7,0.9,3.6,1.3,5.6,1.2C383.8,105.3,385.6,104.7,387.3,103.7z"/>
			<path class="st1" d="M405.7,75.7l15.9-0.7c3.8-0.2,7.2,0.4,10.1,1.8c3,1.3,5.3,3.3,7,5.8c1.7,2.6,2.7,5.6,2.8,9.1
				c0.1,3.5-0.5,6.6-2,9.3c-1.5,2.7-3.7,4.8-6.5,6.4c-2.9,1.6-6.2,2.4-10,2.6l-15.9,0.7L405.7,75.7z M422.4,103.3
				c3.5-0.1,6.2-1.2,8.2-3.3c2-2,2.9-4.7,2.8-8c-0.1-3.3-1.3-5.9-3.4-7.8c-2.2-1.9-5-2.7-8.5-2.6l-7.4,0.3l0.9,21.7L422.4,103.3z"/>
		</g>
		<g>
			<path class="st1" d="M304.4,226.7l-4.4-3.6c-3.2,2.8-7,4.3-11.4,4.6c-2.5,0.1-4.8-0.1-6.9-0.8c-2.1-0.7-3.7-1.7-5-3.1
				c-1.2-1.4-1.9-3-2-4.8c-0.1-2.2,0.4-4.1,1.5-5.8c1.1-1.7,3-3.4,5.6-5c-1.3-1.2-2.3-2.4-3-3.6c-0.6-1.1-1-2.4-1.1-3.6
				c-0.1-1.7,0.3-3.2,1.1-4.6c0.8-1.3,2-2.4,3.6-3.2c1.6-0.8,3.5-1.3,5.6-1.4c3-0.2,5.5,0.4,7.4,1.7c1.9,1.3,2.9,3.2,3.1,5.7
				c0.1,1.8-0.3,3.4-1.3,4.9c-1,1.5-2.7,2.9-5,4.3l6.7,5.6c0.7-1.6,1.1-3.5,1.4-5.5l6.3,1.6c-0.5,3.1-1.4,5.8-2.7,8.1l4.3,3.6
				L304.4,226.7z M295.2,219.1l-8.9-7.4c-1.5,1-2.6,1.9-3.2,2.8c-0.6,0.9-0.9,1.9-0.8,3c0.1,1.3,0.7,2.3,1.9,3
				c1.2,0.7,2.7,1,4.6,0.9C291.2,221.4,293.3,220.6,295.2,219.1z M285.7,198c-0.6,0.6-0.9,1.4-0.9,2.4c0,0.7,0.3,1.3,0.7,1.9
				c0.4,0.6,1.2,1.4,2.3,2.3c1.6-1,2.8-1.9,3.4-2.6c0.6-0.8,0.9-1.5,0.9-2.4c0-0.9-0.4-1.5-1-2c-0.6-0.5-1.5-0.7-2.6-0.7
				C287.3,197,286.4,197.3,285.7,198z"/>
			<path class="st1" d="M333.6,196l-11.2,0.6l-0.4-6.6l30.4-1.8l0.4,6.6l-11.2,0.6l1.6,28.3l-8.1,0.5L333.6,196z"/>
			<path class="st1" d="M385.4,215l0.4,6.5l-27,1.6l-2-34.9l26.4-1.5l0.4,6.5l-18.3,1.1l0.4,7.6l16.2-0.9l0.4,6.3L366,208l0.5,8.1
				L385.4,215z"/>
			<path class="st1" d="M418.9,213l0.4,6.5l-27,1.6l-2-34.9l26.4-1.5l0.4,6.5l-18.3,1.1l0.4,7.6l16.2-0.9l0.4,6.3l-16.2,0.9l0.5,8.1
				L418.9,213z"/>
			<path class="st1" d="M429.1,218.4c-2.6-0.6-4.7-1.5-6.4-2.6l2.4-6.2c1.6,1,3.4,1.8,5.5,2.3c2.1,0.5,4.2,0.8,6.2,0.6
				c2.3-0.1,4-0.6,5-1.3c1.1-0.7,1.6-1.7,1.5-2.8c0-0.8-0.4-1.5-1.1-2c-0.7-0.5-1.5-0.9-2.6-1.2c-1-0.3-2.4-0.6-4.2-0.9
				c-2.7-0.5-4.9-1-6.6-1.5c-1.7-0.5-3.2-1.5-4.5-2.8c-1.3-1.3-2-3.2-2.1-5.5c-0.1-2,0.3-3.9,1.3-5.6c1-1.7,2.6-3.1,4.7-4.2
				c2.2-1.1,4.8-1.7,8-1.9c2.2-0.1,4.4,0,6.6,0.4c2.2,0.4,4.1,1.1,5.7,2l-2.1,6.3c-3.3-1.6-6.6-2.4-9.8-2.2
				c-2.3,0.1-3.9,0.6-4.9,1.4c-1,0.8-1.5,1.8-1.5,3c0.1,1.2,0.7,2,2,2.6c1.3,0.5,3.2,1,5.8,1.4c2.7,0.5,4.9,1,6.6,1.5
				c1.7,0.5,3.2,1.4,4.5,2.7c1.3,1.3,2,3.1,2.1,5.4c0.1,2-0.3,3.8-1.4,5.6c-1,1.7-2.6,3.1-4.8,4.2c-2.2,1.1-4.9,1.7-8,1.9
				C434.4,219.2,431.7,219,429.1,218.4z"/>
		</g>
	</g>
	<g>
		<path class="st1" d="M280.3,638.1l-2.7,5.9L253,632.7l14.6-31.8l24,11l-2.7,5.9l-16.7-7.7l-3.2,6.9l14.7,6.8l-2.6,5.7l-14.7-6.8
			l-3.4,7.4L280.3,638.1z"/>
		<path class="st1" d="M289.8,647.6c-2.3-1.5-3.9-3-5.1-4.6l4.4-5c1.1,1.5,2.6,2.9,4.3,4.1c1.8,1.2,3.7,2.2,5.6,2.8
			c2.2,0.7,3.9,0.8,5.2,0.5c1.2-0.3,2-1,2.4-2.1c0.2-0.8,0.1-1.6-0.3-2.3c-0.5-0.7-1.1-1.4-2-2c-0.9-0.6-2.1-1.4-3.6-2.3
			c-2.4-1.4-4.3-2.6-5.7-3.7c-1.4-1.1-2.5-2.5-3.3-4.2c-0.8-1.7-0.8-3.7-0.1-5.9c0.6-1.9,1.7-3.5,3.2-4.8c1.5-1.3,3.5-2,5.9-2.3
			c2.4-0.3,5.1,0,8.2,1c2.1,0.6,4.1,1.5,6,2.7c1.9,1.1,3.4,2.4,4.7,3.8l-4.2,5.1c-2.6-2.7-5.4-4.5-8.5-5.4c-2.2-0.7-3.9-0.8-5.1-0.4
			c-1.2,0.4-2,1.2-2.4,2.3c-0.3,1.1,0,2.2,1,3.1c1,0.9,2.7,2,5,3.3c2.4,1.4,4.3,2.6,5.7,3.7c1.4,1.1,2.5,2.5,3.3,4.1
			c0.8,1.7,0.8,3.6,0.1,5.8c-0.6,1.9-1.6,3.5-3.2,4.7c-1.5,1.3-3.5,2-5.9,2.3c-2.4,0.3-5.2-0.1-8.2-1
			C294.5,650.2,292.1,649.1,289.8,647.6z"/>
		<path class="st1" d="M331,629.6l-11-1.9l1.1-6.5l30,5.1l-1.1,6.5l-11-1.9l-4.8,28l-8-1.4L331,629.6z"/>
		<path class="st1" d="M348.8,659.8c-0.8-1-1.2-2.2-1.1-3.6c0.1-1.4,0.7-2.5,1.7-3.3c1-0.8,2.2-1.1,3.5-1c1.4,0.1,2.5,0.7,3.3,1.6
			c0.8,1,1.2,2.2,1.1,3.6c-0.1,1.4-0.7,2.5-1.7,3.4c-1,0.8-2.2,1.2-3.6,1.1C350.7,661.4,349.6,660.8,348.8,659.8z"/>
		<path class="st1" d="M403.5,654.4l0.4,6.6l-26.4,1.5l-0.3-5.2l12.7-13.5c1.4-1.4,2.2-2.7,2.7-3.7c0.4-1,0.6-2,0.6-3
			c-0.1-1.4-0.6-2.4-1.6-3.1s-2.4-1-4.2-0.9c-1.5,0.1-2.9,0.5-4.1,1.1c-1.2,0.7-2.2,1.6-2.9,2.8l-6.1-3.5c1.2-2.1,3-3.8,5.4-5.1
			c2.3-1.3,5-2,8.1-2.2c2.6-0.1,4.9,0.1,6.9,0.9c2,0.7,3.6,1.8,4.7,3.3c1.2,1.5,1.8,3.3,1.9,5.4c0.1,1.9-0.2,3.7-0.9,5.4
			c-0.7,1.7-2.1,3.7-4.3,5.9l-7.6,8L403.5,654.4z"/>
		<path class="st1" d="M416.7,657.4c-2.5-1-4.6-2.7-6.4-5.1c-1.8-2.4-3-5.5-3.7-9.2c-0.7-3.7-0.7-7,0.1-9.9c0.8-2.9,2.1-5.3,4.1-7.1
			c2-1.8,4.4-3,7.2-3.6c2.8-0.5,5.5-0.3,8,0.7c2.5,1,4.6,2.7,6.4,5.1c1.8,2.4,3,5.5,3.7,9.2c0.7,3.7,0.7,7-0.1,9.9
			c-0.8,2.9-2.1,5.3-4.1,7.1c-2,1.8-4.4,3-7.2,3.6C421.9,658.7,419.2,658.4,416.7,657.4z M427.9,647.8c0.9-2,0.9-4.9,0.2-8.7
			c-0.7-3.8-1.8-6.4-3.4-8c-1.5-1.6-3.4-2.2-5.4-1.8c-2.1,0.4-3.5,1.6-4.4,3.6c-0.9,2-0.9,4.9-0.2,8.7c0.7,3.8,1.8,6.4,3.4,8
			c1.5,1.6,3.3,2.2,5.4,1.8C425.6,651,427,649.8,427.9,647.8z"/>
		<path class="st1" d="M468.3,638.6l2.1,6.3l-25.1,8.2l-1.6-5l8.8-16.3c0.9-1.7,1.5-3.2,1.7-4.2c0.2-1.1,0.1-2.1-0.2-3
			c-0.4-1.3-1.2-2.2-2.4-2.6c-1.1-0.4-2.6-0.3-4.3,0.2c-1.5,0.5-2.7,1.2-3.7,2.1c-1,0.9-1.7,2.1-2.1,3.5l-6.8-1.8
			c0.7-2.4,2-4.5,3.9-6.3c1.9-1.8,4.3-3.2,7.3-4.2c2.5-0.8,4.8-1.1,6.9-0.9c2.1,0.2,3.9,0.9,5.4,2c1.5,1.1,2.6,2.7,3.2,4.7
			c0.6,1.8,0.8,3.6,0.5,5.5c-0.2,1.8-1.1,4.1-2.6,6.9l-5.3,9.7L468.3,638.6z"/>
		<path class="st1" d="M496.8,625.6l2.8,6l-23.9,11.2l-2.2-4.7l6.8-17.3c0.7-1.8,1.1-3.3,1.1-4.4c0-1.1-0.2-2.1-0.6-3
			c-0.6-1.3-1.5-2-2.7-2.3c-1.2-0.3-2.6,0-4.3,0.8c-1.4,0.6-2.5,1.5-3.4,2.5c-0.9,1.1-1.4,2.3-1.7,3.7l-6.9-0.9
			c0.4-2.4,1.4-4.7,3.1-6.7c1.7-2.1,3.9-3.7,6.7-5.1c2.4-1.1,4.6-1.7,6.7-1.7c2.1-0.1,4,0.4,5.6,1.3c1.6,0.9,2.9,2.4,3.8,4.3
			c0.8,1.7,1.2,3.5,1.2,5.3c0,1.8-0.6,4.2-1.8,7.1l-4.1,10.3L496.8,625.6z"/>
	</g>
</g>
</svg>
